if (_typeface_js && _typeface_js.loadFace) _typeface_js.loadFace({"glyphs":{"⌐":{"x_min":66.46875,"x_max":874.90625,"ha":811,"o":"m 67 509 q 83 526 74 522 q 97 531 88 529 q 118 535 106 533 q 150 540 134 539 q 181 542 166 542 q 232 540 204 542 q 297 533 261 538 q 409 525 368 525 q 441 523 422 525 q 485 518 460 522 q 529 513 510 515 q 562 512 548 512 q 590 513 574 512 q 626 517 606 514 q 691 523 665 523 q 704 523 699 523 q 713 522 710 523 q 775 520 744 521 q 843 514 806 520 q 862 498 849 513 q 874 474 874 482 q 870 437 874 450 q 849 424 866 424 l 777 424 q 766 424 774 424 q 743 423 758 423 q 708 421 713 422 q 685 420 706 420 q 637 420 663 420 q 578 421 611 421 q 519 422 545 422 q 470 423 492 423 q 339 431 404 423 q 174 441 264 441 q 164 430 170 441 q 158 400 158 419 q 166 301 158 380 q 171 235 169 261 q 173 196 173 209 q 173 183 173 188 q 172 174 173 177 q 156 148 171 163 q 128 134 141 134 q 100 145 115 134 q 80 166 85 155 q 74 250 77 170 q 72 321 73 291 q 71 371 71 350 q 71 384 71 372 q 69 422 70 397 q 67 464 67 447 q 66 493 66 482 q 67 509 66 503 "},"♀":{"x_min":112.59375,"x_max":972.15625,"ha":1042,"o":"m 797 25 q 783 -16 800 -5 q 733 -27 765 -27 q 710 -27 725 -27 q 676 -26 694 -27 q 642 -26 659 -26 q 615 -26 625 -26 q 559 -34 578 -26 q 543 -59 540 -42 q 551 -119 549 -87 q 554 -197 552 -150 q 555 -231 554 -216 q 556 -260 555 -247 q 556 -289 555 -272 q 558 -326 556 -305 q 544 -354 557 -343 q 514 -365 531 -365 q 494 -358 506 -365 q 467 -335 481 -350 q 444 -308 451 -320 q 437 -288 437 -297 q 436 -277 434 -284 q 439 -261 438 -271 q 451 -170 446 -217 q 455 -86 455 -123 q 447 -62 455 -67 q 425 -56 440 -56 q 354 -66 410 -56 q 278 -75 305 -75 q 232 -60 252 -75 q 209 -16 212 -44 q 219 1 210 -6 q 243 16 228 9 q 278 27 261 23 q 310 33 295 31 q 336 36 323 35 q 362 39 349 37 q 392 40 376 40 q 428 40 408 40 q 442 47 434 40 q 449 62 449 54 q 446 113 446 86 q 447 166 446 139 q 453 217 449 192 q 462 264 457 242 q 440 263 451 263 q 417 263 429 263 q 315 288 365 263 q 223 350 265 312 q 154 433 182 388 q 118 520 126 478 q 115 631 108 571 q 145 752 122 691 q 204 870 167 813 q 291 972 241 927 q 404 1043 341 1016 q 542 1069 467 1069 q 687 1054 618 1069 q 807 1011 756 1039 q 882 959 853 984 q 928 907 911 933 q 953 852 945 881 q 968 788 962 823 q 970 713 974 754 q 951 628 966 672 q 912 542 937 585 q 851 461 887 499 q 780 392 814 422 q 714 340 746 362 q 649 303 681 318 q 581 280 616 288 q 577 270 579 275 q 574 259 575 265 q 562 225 567 239 q 556 204 558 211 q 555 177 558 193 q 550 140 553 161 q 545 105 548 120 q 545 78 543 89 q 552 67 545 73 q 564 62 559 62 q 587 63 573 62 q 623 67 602 65 q 653 70 634 69 q 690 72 671 71 q 725 73 708 73 q 748 73 741 73 q 777 58 762 73 q 791 42 785 50 q 797 25 797 33 m 553 972 q 471 958 507 972 q 405 922 435 944 q 350 870 375 899 q 303 811 325 841 q 265 751 282 784 q 237 681 248 718 q 224 605 227 644 q 229 527 221 566 q 257 460 236 491 q 307 408 278 430 q 373 375 337 387 q 442 363 408 363 q 582 387 517 363 q 698 451 647 412 q 785 539 750 490 q 836 637 820 588 q 851 711 847 669 q 847 796 856 754 q 824 865 847 832 q 793 899 815 881 q 736 934 771 918 q 655 961 701 950 q 553 972 609 972 "},"ǻ":{"x_min":46.125,"x_max":1119.0625,"ha":911,"o":"m 1119 461 q 1117 442 1119 453 q 1111 419 1115 431 q 1103 397 1107 408 q 1093 381 1098 387 q 1082 366 1089 375 q 1064 346 1074 357 q 1044 323 1055 335 q 1020 301 1032 311 q 938 226 978 262 q 855 162 897 189 q 766 117 812 134 q 665 101 719 101 q 614 110 640 101 q 566 137 589 120 q 528 177 544 153 q 505 229 512 201 q 463 187 485 209 q 418 143 442 165 q 370 99 395 120 q 318 61 345 78 q 283 40 303 51 q 239 20 262 29 q 194 5 217 11 q 153 0 171 0 q 105 17 125 0 q 72 59 85 34 q 52 113 59 84 q 46 164 46 141 q 59 255 46 208 q 92 346 71 302 q 138 431 113 391 q 188 502 164 471 q 249 567 214 535 q 322 624 284 599 q 397 666 360 650 q 462 681 434 681 q 492 681 476 681 q 524 679 508 681 q 554 674 539 678 q 581 663 569 670 q 596 647 588 659 q 611 621 604 636 q 623 593 618 607 q 628 571 628 579 q 617 511 628 548 q 597 426 607 464 q 588 347 588 387 q 596 300 588 324 q 617 256 603 276 q 651 224 631 236 q 696 211 671 211 q 781 228 737 211 q 869 276 824 246 q 957 346 913 306 q 1044 430 1001 385 q 1056 444 1047 434 q 1073 464 1064 454 q 1091 481 1083 474 q 1104 489 1100 489 q 1119 461 1119 489 m 515 518 q 514 546 515 529 q 505 574 512 563 q 486 584 497 585 q 465 584 476 584 q 419 577 441 584 q 376 556 397 569 q 336 525 355 543 q 298 489 316 508 q 265 451 282 474 q 231 400 248 427 q 199 342 215 373 q 172 283 183 312 q 153 226 160 253 q 147 176 147 198 q 148 158 147 169 q 154 136 150 147 q 164 118 158 126 q 180 111 170 111 q 258 130 211 111 q 374 205 322 158 q 462 314 425 252 q 515 518 515 409 m 627 907 q 611 843 628 874 q 568 787 595 812 q 507 748 541 763 q 440 734 473 734 q 332 777 376 734 q 288 884 288 819 q 298 934 287 909 q 327 980 309 959 q 368 1017 345 1001 q 415 1038 391 1032 q 493 1050 455 1050 q 546 1034 513 1050 q 591 1004 578 1019 q 614 958 601 994 q 627 907 627 924 m 541 894 q 533 932 541 907 q 517 961 526 956 q 494 969 510 965 q 472 973 478 973 q 461 973 465 973 q 453 972 457 973 q 444 971 449 972 q 431 969 439 970 q 411 959 420 968 q 394 937 401 949 q 383 909 387 924 q 379 882 379 894 q 401 827 379 855 q 448 800 422 800 q 480 808 460 800 q 509 823 500 816 q 541 894 541 848 m 657 1311 q 645 1290 657 1304 q 621 1272 640 1285 q 577 1244 602 1260 q 525 1212 552 1229 q 480 1182 499 1195 q 420 1140 449 1161 q 360 1100 390 1119 q 354 1096 359 1099 q 343 1089 349 1093 q 331 1082 337 1086 q 325 1079 326 1079 q 308 1084 316 1079 q 295 1095 301 1088 q 286 1109 289 1101 q 282 1125 282 1117 q 368 1215 282 1154 q 520 1313 454 1275 q 556 1334 543 1326 q 579 1350 569 1343 q 599 1362 589 1357 q 619 1366 609 1366 q 628 1361 621 1366 q 641 1348 634 1356 q 652 1331 647 1341 q 657 1311 657 1322 "},"Á":{"x_min":13.5625,"x_max":1130.59375,"ha":1162,"o":"m 1130 44 q 1113 -1 1130 17 q 1068 -21 1096 -21 q 1048 -15 1056 -21 q 1027 4 1039 -8 q 1003 35 1015 16 q 957 116 978 74 q 923 191 936 159 q 916 209 920 201 q 909 225 912 217 q 901 243 905 233 q 892 267 897 253 q 864 344 872 326 q 845 329 854 335 q 827 322 836 324 q 806 319 817 320 q 784 319 796 319 q 767 316 777 319 q 745 310 756 314 q 721 303 733 307 q 699 296 710 299 q 631 279 666 286 q 560 264 596 271 q 483 251 523 257 q 398 237 443 244 q 360 210 378 233 q 286 109 342 187 q 194 -4 232 31 q 122 -40 157 -40 q 47 -22 77 -40 q 13 23 13 0 q 28 42 13 36 q 67 52 42 48 q 105 86 75 53 q 147 137 132 117 q 205 217 175 174 q 271 312 234 259 q 302 359 288 339 q 324 392 316 379 q 346 423 334 406 q 373 461 358 440 q 389 484 380 470 q 412 514 399 497 q 435 545 425 532 q 453 570 446 559 q 474 597 461 581 q 503 636 486 613 q 525 668 509 642 q 568 737 541 693 q 617 829 606 800 q 737 1022 697 1022 q 765 1019 754 1022 q 782 1008 776 1015 q 790 989 788 1001 q 792 961 792 978 q 792 940 792 949 q 792 926 792 931 q 790 898 791 915 q 788 858 790 881 q 853 705 822 787 q 886 614 868 663 q 923 506 903 565 q 957 406 942 448 q 982 339 972 365 q 1004 280 991 314 q 1036 205 1018 247 q 1087 130 1043 189 q 1130 44 1130 70 m 830 445 q 803 525 817 482 q 774 612 789 569 q 743 695 758 655 q 711 766 727 735 q 639 667 673 714 q 574 572 605 619 q 511 474 542 524 q 448 366 480 423 q 462 364 456 364 q 488 365 472 364 q 521 369 504 367 q 553 375 537 372 q 577 379 568 377 q 605 386 594 383 q 628 392 617 389 q 652 397 639 394 q 682 404 664 400 q 760 425 721 415 q 830 445 798 436 m 950 1317 q 939 1296 950 1310 q 915 1278 934 1291 q 871 1250 895 1266 q 819 1218 846 1235 q 773 1188 792 1201 q 713 1146 743 1167 q 653 1106 684 1125 q 648 1102 653 1105 q 636 1095 642 1099 q 625 1088 630 1091 q 619 1085 619 1085 q 602 1090 610 1085 q 589 1101 594 1094 q 579 1115 583 1107 q 576 1131 576 1123 q 662 1221 576 1160 q 814 1319 748 1281 q 850 1340 837 1332 q 873 1356 863 1348 q 893 1367 883 1363 q 912 1372 903 1372 q 922 1367 915 1372 q 934 1354 928 1362 q 946 1337 941 1346 q 950 1317 950 1327 "},"ĥ":{"x_min":74.296875,"x_max":1321.171875,"ha":1107,"o":"m 1321 445 q 1300 400 1321 431 q 1281 373 1293 388 q 1257 343 1270 358 q 1233 314 1245 328 q 1211 291 1220 301 q 1127 215 1171 251 q 1036 149 1083 178 q 939 103 989 120 q 836 84 888 85 q 765 99 796 84 q 716 147 734 114 q 690 222 699 181 q 676 311 681 263 q 674 333 675 318 q 671 366 672 348 q 666 403 669 384 q 660 438 663 422 q 652 463 657 453 q 642 473 648 473 q 585 445 621 473 q 505 371 548 417 q 416 267 461 325 q 331 150 370 210 q 268 47 297 99 q 219 -43 240 -4 q 195 -68 208 -61 q 177 -75 182 -75 q 155 -70 166 -75 q 135 -56 144 -65 q 120 -38 126 -48 q 114 -17 114 -27 q 117 11 114 -8 q 124 56 120 31 q 132 108 128 81 q 139 158 137 134 q 150 256 144 202 q 162 364 156 309 q 172 471 167 419 q 179 565 177 523 q 181 601 180 579 q 184 650 183 623 q 187 707 185 677 q 189 765 188 737 q 192 818 191 793 q 193 859 193 843 q 196 895 194 878 q 201 927 198 911 q 209 959 204 943 q 224 994 215 975 q 233 1007 227 1000 q 247 1021 239 1015 q 264 1031 255 1027 q 282 1036 273 1036 q 318 1020 302 1036 q 334 977 334 1005 q 331 953 334 968 q 324 922 328 938 q 316 892 320 906 q 311 870 312 877 q 301 806 305 842 q 294 733 297 770 q 287 659 290 695 q 282 594 284 623 q 277 533 280 562 q 271 477 274 505 q 265 420 268 448 q 260 358 263 391 q 249 269 255 307 q 243 204 243 231 q 247 194 243 200 q 255 189 252 189 l 258 189 q 274 211 264 196 q 295 244 283 226 q 321 281 307 261 q 347 316 334 300 q 375 352 360 333 q 407 391 390 371 q 441 430 423 411 q 474 467 458 450 q 521 511 495 488 q 575 553 547 534 q 632 584 603 572 q 686 596 660 596 q 698 594 691 596 q 714 586 706 591 q 729 574 722 581 q 739 557 735 567 q 758 484 752 520 q 769 406 765 447 q 778 335 773 372 q 790 269 783 299 q 810 220 798 239 q 840 201 822 201 q 1000 238 923 201 q 1070 276 1041 258 q 1125 314 1100 295 q 1176 358 1150 334 q 1234 413 1201 381 q 1311 473 1300 473 q 1321 445 1321 473 m 564 1157 q 552 1128 564 1142 q 526 1115 540 1115 q 506 1122 516 1115 q 486 1140 496 1129 q 467 1163 476 1151 q 452 1185 458 1175 q 407 1244 438 1206 q 363 1308 376 1283 q 356 1322 359 1315 q 348 1336 352 1330 q 340 1347 344 1343 q 332 1351 336 1351 q 320 1345 325 1351 q 263 1286 286 1312 q 241 1263 252 1274 q 221 1240 230 1251 q 192 1209 211 1230 q 145 1158 174 1189 q 108 1139 125 1139 q 74 1197 74 1139 q 84 1232 74 1223 q 150 1294 123 1268 q 202 1340 177 1319 q 282 1419 249 1381 q 348 1466 321 1466 q 382 1435 361 1466 q 430 1352 403 1403 q 466 1291 457 1301 q 481 1275 469 1288 q 513 1240 493 1261 q 555 1192 553 1195 q 564 1157 564 1167 "},"Κ":{"x_min":165.484375,"x_max":1072.265625,"ha":1084,"o":"m 1072 183 q 1062 157 1072 170 q 1037 132 1051 143 q 1007 113 1022 120 q 980 105 991 105 q 859 134 942 105 q 778 164 819 148 q 695 198 737 181 q 619 233 654 217 q 556 263 585 249 q 328 326 473 305 q 307 304 316 318 q 295 272 299 290 q 289 232 290 254 q 287 185 287 210 q 292 130 287 153 q 309 82 298 106 q 333 13 333 32 q 308 -22 333 -8 q 254 -44 284 -36 q 183 42 200 -14 q 165 173 165 101 q 167 309 165 241 q 172 432 170 377 q 177 555 174 488 q 183 712 180 623 q 184 752 183 729 q 186 807 185 776 q 188 862 187 839 q 189 901 189 885 q 188 911 189 904 q 186 925 187 917 q 185 939 185 932 q 184 948 184 945 q 202 990 184 972 q 244 1008 221 1008 q 288 995 263 1008 q 314 965 314 983 q 311 943 314 956 q 307 919 309 929 q 301 867 303 894 q 298 809 299 840 q 292 658 295 738 q 287 484 289 577 q 290 463 287 467 q 305 458 294 458 q 346 472 323 458 q 393 501 369 486 q 625 702 512 573 q 688 778 661 746 q 738 839 714 810 q 765 870 750 854 q 794 901 779 886 q 823 930 809 916 q 849 955 837 944 q 860 965 853 959 q 875 976 867 971 q 890 987 883 982 q 902 991 897 991 q 918 984 909 991 q 936 966 928 976 q 951 945 945 956 q 956 926 956 933 q 948 900 956 918 l 935 876 q 928 858 930 866 q 923 845 926 851 q 916 835 921 840 q 901 825 911 830 q 885 817 895 821 q 866 810 876 814 q 849 801 857 806 q 838 790 841 796 q 799 729 815 753 q 773 693 783 705 q 678 590 731 640 q 627 544 652 566 q 577 505 601 523 q 523 464 554 487 q 454 415 493 442 q 626 340 531 378 q 826 261 720 301 q 843 255 833 259 q 862 247 852 251 q 880 239 871 243 q 895 233 889 236 q 924 227 909 230 q 955 225 938 225 q 975 226 963 225 q 1002 229 988 227 q 1030 233 1015 231 q 1058 237 1045 235 q 1072 183 1072 215 "},"»":{"x_min":101.734375,"x_max":971.21875,"ha":1013,"o":"m 971 408 q 949 370 971 385 q 891 341 928 356 q 844 318 853 325 q 806 292 827 305 q 760 264 786 279 q 716 238 736 250 q 679 215 695 225 q 647 191 663 204 q 612 162 630 178 q 587 138 599 149 q 558 127 575 127 q 525 143 538 127 q 512 180 512 159 q 549 229 512 200 q 590 260 567 244 q 641 294 613 276 q 746 355 697 328 q 825 396 796 381 q 743 475 823 405 q 676 534 703 510 q 636 571 649 558 q 608 609 608 597 q 626 644 608 622 q 654 666 644 666 q 723 607 676 666 q 810 517 764 557 q 910 450 855 477 q 927 443 916 446 q 947 434 937 439 q 964 422 956 429 q 971 408 971 416 m 499 393 q 498 385 499 390 q 495 376 497 381 q 490 367 493 371 q 486 362 488 364 q 404 311 463 344 q 355 284 373 295 q 327 267 336 273 q 280 236 305 255 q 221 191 256 217 q 215 187 220 191 q 201 175 210 183 q 172 153 182 160 q 158 147 163 147 q 131 148 141 147 q 114 153 120 149 q 105 166 108 158 q 101 191 102 175 q 115 238 101 202 q 196 285 138 256 q 303 340 252 314 q 369 380 353 364 q 380 401 380 391 q 354 437 380 411 q 274 515 328 463 q 197 592 219 567 q 174 629 174 616 q 189 659 174 646 q 222 672 204 672 q 265 649 240 672 q 331 576 290 626 q 368 533 352 552 q 396 503 385 515 q 442 469 420 480 q 477 434 455 463 q 499 393 499 406 "},"∆":{"x_min":41.375,"x_max":1133.984375,"ha":1167,"o":"m 1133 71 q 1116 23 1133 39 q 1075 6 1099 6 q 1051 9 1072 6 q 1002 13 1030 11 q 944 18 974 16 q 893 21 914 21 q 837 18 871 21 q 764 13 803 16 q 687 7 725 10 q 617 0 648 3 q 508 -13 560 -7 q 408 -25 455 -20 q 322 -33 362 -30 q 253 -37 282 -37 q 231 -33 242 -37 q 211 -24 220 -30 q 196 -8 202 -17 q 190 10 190 0 q 201 48 190 33 q 227 72 212 63 q 257 86 242 82 q 281 90 272 90 q 290 89 284 90 q 303 88 297 88 q 316 86 310 87 q 325 86 322 86 q 401 89 360 86 q 486 98 442 92 q 575 108 531 103 q 660 118 619 113 q 721 123 690 120 q 788 126 753 125 q 861 128 822 128 q 944 129 900 129 q 959 138 959 129 q 957 145 959 141 q 954 153 956 148 q 914 245 931 200 q 882 334 896 290 q 854 423 867 379 q 830 514 842 467 q 807 607 819 558 q 780 704 794 656 q 750 796 766 752 q 716 874 733 840 q 700 890 707 890 q 687 878 693 890 q 656 815 672 845 q 622 756 640 785 q 585 699 605 728 q 543 640 566 671 q 446 506 498 581 q 329 347 394 432 q 270 267 297 304 q 222 194 244 231 q 183 119 200 158 q 150 33 165 80 q 141 23 148 27 q 125 16 134 19 q 108 12 116 14 q 94 10 99 10 q 70 16 80 10 q 54 32 61 23 q 44 52 47 41 q 41 75 41 64 q 58 138 41 101 q 102 218 75 175 q 161 305 128 261 q 225 391 194 350 q 283 465 257 432 q 323 518 309 499 q 351 558 334 533 q 388 610 368 582 q 428 665 408 637 q 464 714 448 692 q 485 742 474 727 q 507 775 496 758 q 528 808 518 792 q 546 840 538 825 q 582 901 562 868 q 634 962 602 934 q 638 980 638 967 q 640 1003 638 994 q 663 1025 646 1015 q 708 1034 681 1034 q 752 1018 732 1034 q 789 974 772 1001 q 820 914 806 948 q 848 847 835 881 q 903 684 877 768 q 950 515 928 600 q 966 459 956 491 q 989 390 976 427 q 1016 317 1001 354 q 1047 244 1030 279 q 1074 194 1059 218 q 1102 149 1089 170 q 1124 108 1115 128 q 1133 71 1133 88 "},"♥":{"x_min":72.328125,"x_max":841.71875,"ha":912,"o":"m 236 271 q 225 287 229 280 q 217 302 221 295 q 209 316 213 309 q 200 330 206 323 q 148 414 173 369 q 106 505 124 458 q 79 599 88 552 q 73 691 69 647 q 89 761 75 730 q 125 812 103 792 q 178 840 147 832 q 246 846 209 849 q 305 828 277 843 q 361 791 334 813 q 412 742 387 769 q 460 690 437 716 q 509 742 484 716 q 560 791 533 769 q 614 828 586 813 q 673 846 642 843 q 791 811 748 853 q 840 691 834 770 q 836 599 844 647 q 812 505 828 552 q 772 414 796 458 q 721 330 748 369 q 698 301 710 316 q 675 270 687 285 q 654 240 664 255 q 636 214 644 226 q 600 156 617 183 q 563 102 583 129 q 551 85 558 96 q 534 58 544 73 q 515 26 524 40 q 498 1 506 12 q 479 -17 487 -12 q 457 -23 471 -23 q 438 -14 446 -23 q 421 13 431 -6 q 400 50 414 29 q 366 99 386 71 q 351 119 360 107 q 334 142 343 130 q 315 165 324 153 q 299 185 306 177 q 236 271 267 220 "},"ў":{"x_min":133.609375,"x_max":851.84375,"ha":960,"o":"m 851 613 q 846 583 851 602 q 833 541 840 564 q 820 493 826 518 q 814 444 814 468 q 807 212 814 311 q 785 37 800 113 q 746 -96 769 -38 q 691 -204 723 -153 q 638 -266 670 -236 q 567 -317 606 -295 q 484 -352 528 -339 q 396 -365 440 -365 q 333 -361 361 -365 q 281 -348 305 -357 q 234 -327 257 -339 q 187 -297 211 -314 q 147 -259 162 -278 q 133 -213 133 -241 q 148 -172 133 -189 q 186 -155 162 -155 q 203 -161 195 -155 q 219 -175 210 -166 q 239 -194 228 -184 q 264 -215 249 -205 q 290 -232 278 -223 q 321 -247 303 -240 q 364 -258 339 -254 q 429 -262 390 -262 q 494 -247 459 -262 q 561 -202 529 -231 q 622 -127 594 -172 q 665 -25 650 -83 q 680 45 673 5 q 693 129 687 86 q 701 215 698 172 q 704 290 704 257 q 656 255 682 276 q 601 208 630 233 q 539 157 572 183 q 470 110 506 131 q 393 76 433 90 q 308 63 352 63 q 277 66 296 63 q 238 73 257 68 q 203 84 219 78 q 182 98 187 90 q 161 139 170 115 q 146 186 152 162 q 138 231 141 210 q 134 267 134 253 q 138 314 134 281 q 149 388 142 347 q 166 476 155 430 q 189 560 176 521 q 196 576 191 569 q 204 590 200 583 q 214 603 208 596 q 225 619 219 610 q 249 642 236 634 q 276 649 263 649 q 302 641 291 649 q 318 619 314 634 q 319 610 319 615 q 320 597 320 604 q 319 576 320 588 q 316 554 318 565 q 310 533 314 543 q 303 516 307 523 q 278 477 287 493 q 263 442 269 461 q 235 295 235 356 q 261 202 235 234 q 335 169 286 169 q 408 181 375 169 q 469 211 440 192 q 523 252 497 229 q 577 299 550 276 q 601 320 588 308 q 627 346 614 333 q 651 375 640 360 q 671 401 663 389 q 702 472 694 438 q 713 537 710 506 q 718 597 716 569 q 735 653 721 626 q 759 679 742 667 q 805 693 776 691 q 823 685 815 693 q 838 665 832 677 q 848 639 844 653 q 851 613 851 626 m 805 1013 q 798 981 805 1001 q 778 940 791 961 q 747 896 765 918 q 705 859 728 874 q 666 837 689 847 q 619 821 644 828 q 567 810 594 814 q 518 807 541 807 q 443 816 479 807 q 376 842 407 825 q 322 881 346 858 q 281 932 297 904 q 272 952 276 940 q 264 974 267 963 q 259 994 261 986 q 258 1006 258 1003 q 263 1035 258 1024 q 274 1054 267 1047 q 290 1064 282 1062 q 307 1067 299 1067 q 341 1059 328 1067 q 356 1035 355 1051 q 369 977 359 1004 q 398 931 379 950 q 450 898 418 911 q 528 886 483 886 q 553 888 539 886 q 583 894 568 890 q 611 904 598 898 q 636 916 625 909 q 664 941 652 927 q 684 972 676 956 q 698 1005 693 988 q 708 1035 704 1022 q 728 1064 715 1056 q 754 1073 741 1073 q 792 1059 779 1073 q 805 1013 805 1045 "},"ţ":{"x_min":-12.890625,"x_max":823.359375,"ha":518,"o":"m 823 597 q 809 559 823 572 q 778 535 796 545 q 728 517 756 525 q 672 502 701 509 q 614 492 643 496 q 558 484 585 487 q 498 479 530 482 q 436 473 466 476 q 381 466 406 470 q 340 456 356 462 q 310 338 326 394 q 283 227 294 282 q 276 188 280 214 q 267 134 271 162 q 260 81 263 106 q 257 46 257 56 q 266 4 257 18 q 285 -17 275 -9 q 305 -33 296 -26 q 314 -56 314 -41 q 304 -74 314 -65 q 282 -90 295 -83 q 255 -100 269 -96 q 229 -104 240 -104 q 194 -93 210 -104 q 168 -65 179 -82 q 151 -25 157 -48 q 145 20 145 -3 q 150 87 145 51 q 164 160 155 122 q 181 236 172 197 q 198 314 190 275 q 205 347 202 330 q 212 380 209 364 q 217 405 215 395 q 219 417 219 415 q 211 434 219 428 q 193 440 204 440 q 168 438 185 440 q 134 435 152 437 q 100 432 116 433 q 76 430 84 430 q 35 433 52 430 q 7 444 18 436 q -7 467 -2 453 q -12 505 -12 482 q -4 520 -12 514 q 17 528 4 525 q 44 530 29 530 q 69 531 58 531 q 98 532 78 531 q 140 536 118 534 q 182 540 162 538 q 210 541 202 541 q 220 542 215 541 q 231 546 225 543 q 242 556 237 549 q 250 576 246 563 q 261 625 255 597 q 275 683 268 653 q 289 740 282 712 q 301 787 296 767 q 311 828 307 806 q 319 871 316 849 q 328 913 323 893 q 340 950 333 933 q 388 986 355 986 q 438 930 438 986 q 423 851 438 895 q 375 681 391 748 q 360 591 360 614 q 385 566 360 566 q 442 567 415 566 q 496 570 469 568 q 554 576 524 573 q 623 583 585 579 q 675 592 650 587 q 720 601 699 596 q 758 609 741 605 q 785 615 774 613 q 799 617 792 615 q 812 617 807 618 q 820 612 817 616 q 823 597 823 607 m 322 -306 q 298 -374 322 -322 q 261 -439 274 -425 q 172 -505 226 -477 q 162 -508 169 -506 q 144 -512 155 -510 q 126 -516 133 -514 q 115 -519 119 -518 q 28 -543 62 -543 q 8 -511 8 -543 q 13 -494 8 -499 q 167 -417 115 -471 q 194 -371 178 -404 q 211 -324 211 -338 q 203 -250 211 -298 q 192 -226 202 -242 q 183 -201 183 -213 q 192 -172 183 -191 q 211 -153 201 -153 q 259 -165 226 -153 q 294 -186 291 -176 q 322 -306 322 -260 "},"«":{"x_min":59.6875,"x_max":988.84375,"ha":1015,"o":"m 988 623 q 978 596 988 612 q 958 577 967 580 q 925 568 946 572 q 885 556 904 563 q 845 541 877 554 q 756 507 813 529 q 636 461 642 463 q 629 448 629 456 q 644 434 630 447 q 685 398 659 421 q 771 318 737 349 q 803 286 788 302 q 833 253 818 269 q 862 209 862 222 q 850 182 862 193 q 822 172 838 172 q 796 184 809 172 q 772 208 784 196 q 685 289 738 242 q 558 401 632 337 q 548 409 554 404 q 534 421 542 415 q 520 434 526 428 q 511 442 514 439 q 499 466 499 454 q 511 494 499 488 q 601 540 548 520 q 707 576 653 560 q 828 613 760 593 q 883 644 843 618 q 948 669 922 669 q 964 665 956 669 q 976 654 971 661 q 985 640 982 648 q 988 623 988 632 m 491 659 q 483 632 493 644 q 458 609 473 620 q 425 590 442 598 q 394 573 407 581 q 344 541 375 562 q 314 520 328 529 q 287 505 300 512 q 245 491 278 500 q 205 474 213 481 q 200 463 203 472 q 286 399 222 451 q 402 297 352 346 q 453 226 453 246 q 450 213 453 220 q 441 202 446 207 q 430 193 436 197 q 417 190 423 190 q 401 196 408 190 q 359 231 383 211 q 304 275 335 251 q 250 317 274 299 q 212 349 227 336 q 169 382 194 365 q 113 417 145 399 q 91 429 101 423 q 76 440 81 436 q 64 458 68 445 q 59 479 59 472 q 65 506 59 497 q 80 520 70 516 q 103 526 89 524 q 134 531 117 528 q 282 601 201 550 q 458 708 449 708 q 472 703 465 708 q 482 692 478 699 q 489 676 486 685 q 491 659 491 668 "},"í":{"x_min":160.734375,"x_max":880.359375,"ha":627,"o":"m 880 507 q 867 464 881 493 q 828 396 853 434 q 771 316 804 358 q 704 231 739 273 q 664 187 685 210 q 619 140 642 164 q 572 94 596 117 q 525 53 548 72 q 482 23 505 37 q 435 -1 459 9 q 388 -17 411 -11 q 347 -23 365 -23 q 256 1 292 -23 q 199 69 220 25 q 169 173 177 113 q 160 305 160 233 q 161 328 160 314 q 162 358 161 341 q 164 393 163 375 q 168 430 166 411 q 176 493 172 466 q 185 535 180 519 q 225 591 194 567 q 290 616 256 616 q 308 581 308 616 q 304 529 308 558 q 295 472 299 500 q 282 376 286 418 q 278 302 278 333 q 278 267 278 288 q 281 223 278 246 q 288 177 283 200 q 302 135 293 154 q 324 105 311 117 q 357 94 337 94 q 417 107 382 94 q 482 143 451 120 q 555 203 519 170 q 625 270 592 236 q 689 338 659 305 q 743 400 718 371 q 771 434 756 416 q 799 469 786 452 q 825 502 813 486 q 845 529 836 517 q 848 533 846 530 q 851 539 849 536 q 855 544 853 542 q 859 545 857 546 q 874 531 869 545 q 880 507 880 516 m 543 988 q 531 967 543 981 q 507 949 526 962 q 463 921 488 937 q 411 889 438 906 q 366 859 385 872 q 306 817 335 838 q 246 777 276 796 q 240 773 245 776 q 229 766 235 770 q 217 759 223 763 q 211 756 212 756 q 194 761 202 756 q 181 772 187 765 q 172 786 175 778 q 168 802 168 794 q 254 892 168 831 q 406 990 340 952 q 442 1011 429 1003 q 465 1027 455 1020 q 485 1039 475 1034 q 505 1043 495 1043 q 514 1038 507 1043 q 527 1025 520 1033 q 538 1008 533 1018 q 543 988 543 999 "},"◦":{"x_min":71.859375,"x_max":542.578125,"ha":610,"o":"m 542 467 q 503 353 542 404 q 404 274 465 302 q 282 245 343 245 q 200 257 239 244 q 133 295 162 270 q 87 355 104 320 q 71 435 71 390 q 102 522 71 468 q 137 573 118 550 q 177 617 155 596 q 257 659 221 659 q 303 663 274 659 q 354 668 329 668 q 409 658 373 668 q 457 638 443 649 q 492 592 472 628 q 511 556 503 574 q 527 520 520 537 q 542 467 542 486 m 456 451 q 450 497 457 474 q 433 540 443 521 q 409 570 422 558 q 383 579 396 581 q 365 576 375 579 q 348 569 356 573 q 337 561 341 564 q 334 558 333 558 q 325 559 331 558 q 310 561 320 560 q 293 563 301 562 q 280 564 285 564 q 239 552 258 565 q 205 519 219 539 q 182 475 190 499 q 174 431 173 451 q 212 362 174 393 q 290 333 252 333 q 395 351 355 333 q 434 395 413 359 q 456 451 456 431 "},"ņ":{"x_min":122.765625,"x_max":1280.484375,"ha":1053,"o":"m 1280 484 q 1276 458 1280 472 q 1265 432 1271 445 q 1250 406 1258 419 q 1235 382 1242 394 q 1188 320 1215 352 q 1132 259 1162 288 q 1070 202 1102 229 q 1007 155 1038 176 q 961 125 983 139 q 916 101 939 111 q 870 84 894 90 q 816 78 845 78 q 725 107 760 78 q 694 144 707 121 q 671 194 680 166 q 654 253 661 222 q 642 315 647 284 q 630 383 636 353 q 618 434 625 413 q 600 466 611 455 q 574 477 590 477 q 550 474 561 477 q 525 463 538 472 q 498 440 513 455 q 463 401 483 425 q 417 341 443 377 q 357 257 392 306 q 317 205 340 233 q 270 151 294 177 q 223 105 246 125 q 182 80 200 86 q 122 229 122 93 q 130 338 122 265 q 140 407 134 371 q 153 480 145 444 q 172 551 162 516 q 197 614 183 585 q 211 635 204 628 q 226 647 219 643 q 243 652 234 651 q 260 653 251 653 q 279 638 271 653 q 288 596 288 623 q 285 566 288 580 q 278 537 282 552 q 267 504 273 522 q 257 465 262 487 q 247 424 252 446 q 238 379 242 402 q 230 334 233 356 q 227 294 227 311 q 231 269 227 282 q 294 326 250 271 q 343 387 316 354 q 401 460 370 420 q 447 516 424 490 q 494 561 470 541 q 546 591 518 580 q 607 602 573 602 q 665 587 642 602 q 703 545 689 572 q 725 481 717 518 q 737 399 733 444 q 745 324 741 361 q 760 257 749 286 q 791 209 771 227 q 849 191 811 191 q 910 204 878 191 q 978 242 942 218 q 1050 299 1013 266 q 1128 370 1088 331 q 1162 407 1144 385 q 1199 451 1181 430 q 1233 487 1217 472 q 1258 502 1248 502 q 1271 498 1262 502 q 1280 484 1280 494 m 540 -131 q 516 -199 540 -147 q 479 -264 492 -250 q 390 -330 444 -302 q 380 -333 387 -331 q 362 -337 373 -335 q 344 -341 351 -339 q 333 -344 337 -343 q 246 -368 280 -368 q 226 -336 226 -368 q 231 -319 226 -324 q 385 -242 333 -296 q 412 -196 396 -229 q 429 -149 429 -163 q 421 -75 429 -123 q 410 -51 420 -67 q 401 -26 401 -38 q 410 2 401 -16 q 429 21 419 21 q 477 9 444 21 q 512 -11 509 -1 q 540 -131 540 -85 "},"µ":{"x_min":111.234375,"x_max":975.28125,"ha":1030,"o":"m 975 115 q 959 78 975 100 q 943 58 950 67 q 927 44 935 50 q 880 25 914 31 q 825 19 847 19 q 762 61 790 19 q 718 158 735 103 q 705 210 710 187 q 697 254 699 233 q 551 101 639 172 q 415 31 465 31 q 390 34 404 31 q 360 41 375 36 q 333 50 345 45 q 312 62 320 56 q 276 143 295 78 q 258 19 276 95 q 242 -48 250 -8 q 225 -140 234 -87 q 218 -185 221 -164 q 209 -227 215 -206 q 194 -256 206 -244 q 168 -267 183 -267 q 124 -237 139 -267 q 111 -174 111 -206 q 115 -135 111 -160 q 119 -115 118 -124 q 122 -94 120 -107 q 135 -6 126 -49 q 152 74 143 35 q 169 151 161 113 q 181 216 177 190 q 186 248 183 228 q 193 296 189 267 q 202 345 198 324 q 208 380 205 366 q 214 407 211 395 q 219 430 217 419 q 227 465 223 445 q 234 510 231 484 q 242 556 238 536 q 248 589 245 575 q 266 647 254 618 q 293 687 278 675 q 335 699 308 699 q 370 675 360 699 q 381 620 381 653 q 374 575 381 600 q 366 548 370 563 q 354 516 361 533 q 344 485 348 498 q 339 465 340 472 q 315 344 323 397 q 307 248 307 291 q 331 188 307 227 q 375 148 357 148 q 543 210 461 148 q 616 277 584 241 q 672 354 649 312 q 689 398 681 368 q 704 457 697 427 q 712 490 708 473 q 719 525 716 507 q 726 558 722 544 q 731 581 729 572 q 736 606 733 590 q 745 636 739 621 q 759 661 751 651 q 777 669 767 671 q 830 658 797 669 q 865 633 865 648 q 851 567 865 610 q 844 539 848 557 q 832 495 839 522 q 810 407 817 442 q 803 351 803 371 q 806 285 803 320 q 815 209 809 250 q 862 127 828 127 q 913 140 881 127 q 946 153 948 153 q 967 141 959 153 q 975 115 975 129 "},"ỳ":{"x_min":92.921875,"x_max":791.484375,"ha":874,"o":"m 791 605 q 790 578 791 594 q 788 543 790 563 q 785 504 787 524 q 781 462 784 484 q 778 424 779 440 q 776 396 777 407 q 756 205 771 303 q 719 18 741 107 q 615 -233 683 -128 q 423 -339 545 -339 q 262 -307 343 -339 q 126 -219 181 -276 q 92 -165 92 -180 q 103 -126 92 -148 q 127 -105 113 -105 q 140 -113 134 -105 q 184 -165 163 -146 q 419 -245 274 -245 q 518 -191 476 -245 q 557 -134 540 -164 q 586 -70 573 -103 q 609 -2 599 -37 q 628 67 619 31 q 638 120 634 101 q 642 147 642 140 q 647 202 646 175 q 653 254 649 228 q 575 209 634 245 q 512 171 540 188 q 461 141 483 154 q 360 91 416 115 q 266 67 303 67 q 168 118 202 67 q 133 236 133 169 q 143 341 133 283 q 154 396 149 370 q 167 444 160 421 q 183 497 174 466 q 205 569 192 529 q 220 608 212 592 q 239 636 228 625 q 263 653 249 647 q 298 658 278 658 q 329 636 318 658 q 340 592 340 615 q 334 568 340 579 q 324 552 330 562 q 309 527 318 542 q 294 502 299 512 q 287 487 288 493 q 278 459 282 471 q 270 438 274 446 q 264 419 267 430 q 256 393 261 408 q 243 340 247 364 q 240 288 240 316 q 250 223 240 261 q 282 183 262 183 q 426 217 341 183 q 579 309 511 252 q 662 422 648 365 q 666 446 665 430 q 669 483 668 463 q 670 524 670 503 q 672 566 671 546 q 674 602 673 586 q 678 626 676 618 q 735 689 696 689 q 781 670 773 689 q 791 605 791 649 m 671 792 q 656 760 671 774 q 620 745 641 745 q 607 750 618 745 q 584 765 596 755 q 561 784 576 771 q 529 810 546 796 q 497 836 513 824 q 475 854 481 848 q 453 869 471 857 q 411 897 435 882 q 316 991 316 957 q 321 1004 316 998 q 332 1017 325 1011 q 346 1027 338 1023 q 359 1031 353 1031 q 383 1026 369 1031 q 416 1007 398 1020 q 453 978 437 991 q 483 952 469 965 q 515 926 498 939 q 557 895 532 912 q 603 864 583 877 q 637 840 623 850 q 671 792 671 816 "},"Ι":{"x_min":103.765625,"x_max":368.296875,"ha":432,"o":"m 368 876 q 341 790 368 858 q 320 734 328 756 q 311 702 313 712 q 285 529 298 621 q 261 328 273 436 q 255 277 257 299 q 250 242 252 256 q 246 213 248 229 q 243 178 244 197 q 241 143 242 159 q 242 114 241 128 q 250 90 242 106 q 259 64 259 75 q 226 16 261 40 q 194 0 209 5 q 167 -7 180 -6 q 136 2 147 -7 q 114 35 123 15 q 105 70 105 56 q 104 155 103 113 q 110 242 105 198 q 123 341 115 286 q 143 463 131 396 q 159 550 151 509 q 174 628 167 591 q 191 711 182 665 q 212 815 201 758 q 219 850 216 836 q 223 872 221 864 q 228 897 225 882 q 236 937 231 913 q 241 955 236 945 q 251 975 245 966 q 266 992 258 985 q 281 999 274 999 q 311 993 295 1000 q 338 974 328 986 q 358 945 352 961 q 366 913 365 930 q 367 894 367 902 q 368 876 367 886 "},"Ύ":{"x_min":61.515625,"x_max":1428.890625,"ha":1399,"o":"m 1377 821 q 1353 829 1363 821 q 1338 851 1344 838 q 1309 892 1327 877 q 1272 906 1292 906 q 1221 885 1253 906 q 1152 827 1189 864 q 1025 666 1089 761 q 902 457 962 571 q 870 381 882 418 q 851 302 857 345 q 841 204 844 259 q 836 76 838 150 q 830 25 835 50 q 814 -18 825 0 q 788 -49 804 -37 q 749 -61 772 -61 q 717 -55 731 -61 q 695 -41 704 -50 q 682 -21 686 -31 q 678 0 678 -10 q 683 24 678 9 q 693 56 688 38 q 722 189 714 124 q 731 325 731 254 q 729 389 731 361 q 723 448 728 418 q 709 516 718 479 q 686 607 701 554 q 669 662 680 632 q 646 722 659 692 q 617 782 633 753 q 581 833 600 811 q 539 868 562 855 q 490 881 516 881 q 452 875 470 881 q 410 855 433 870 q 399 845 407 853 q 381 828 390 836 q 365 812 372 819 q 354 805 357 805 q 329 813 338 805 q 315 831 319 820 q 309 853 311 841 q 308 874 308 865 q 323 923 308 900 q 363 963 337 946 q 423 990 389 980 q 498 1000 458 1000 q 577 987 541 1000 q 642 946 612 973 q 697 876 671 918 q 744 777 722 834 q 768 712 758 743 q 787 652 779 680 q 803 596 796 623 q 817 542 811 569 q 822 527 819 535 q 827 519 825 519 q 833 526 830 519 q 840 539 836 533 q 890 632 863 582 q 948 730 918 681 q 1009 824 977 779 q 1071 902 1040 868 q 1176 987 1122 956 q 1287 1018 1231 1018 q 1341 1006 1315 1018 q 1386 974 1367 993 q 1417 934 1405 956 q 1428 894 1428 912 q 1425 870 1428 883 q 1416 846 1422 857 q 1400 828 1410 835 q 1377 821 1390 821 m 199 1058 q 221 1054 212 1058 q 237 1045 231 1050 q 246 1032 243 1039 q 249 1020 249 1025 q 246 1001 249 1012 q 239 982 243 989 q 213 930 228 959 q 184 867 199 900 q 155 800 169 834 q 132 736 142 767 q 127 722 130 731 q 121 705 125 713 q 110 690 117 696 q 95 684 104 684 q 81 688 87 684 q 70 698 75 692 q 63 712 66 704 q 61 725 61 719 q 67 770 61 739 q 85 841 74 801 q 111 926 96 881 q 144 1012 126 971 q 152 1029 148 1020 q 163 1044 157 1037 q 178 1054 169 1050 q 199 1058 186 1058 "},"ѕ":{"x_min":52.21875,"x_max":840.3125,"ha":598,"o":"m 840 463 q 831 440 840 456 q 812 408 823 425 q 790 376 800 391 q 775 355 779 361 q 685 253 737 309 q 572 141 632 198 q 446 30 511 84 q 321 -63 382 -22 q 207 -130 261 -105 q 114 -155 153 -155 q 98 -153 108 -155 q 77 -147 87 -151 q 59 -137 67 -143 q 52 -122 52 -130 q 74 -67 52 -88 q 129 -32 96 -46 q 201 -5 162 -17 q 272 22 239 6 q 327 61 305 38 q 349 122 349 84 q 335 155 349 135 q 298 199 320 175 q 250 251 276 223 q 202 307 225 278 q 165 367 180 337 q 151 427 151 398 q 155 476 151 453 q 168 523 160 500 q 195 582 178 554 q 233 633 212 611 q 275 668 253 655 q 314 682 296 682 q 358 665 343 682 q 373 611 373 649 q 359 567 373 588 q 326 527 345 546 q 285 492 306 508 q 251 461 265 475 q 263 418 251 441 q 292 369 274 394 q 331 319 309 344 q 375 269 354 293 q 414 223 396 245 q 441 184 432 202 q 444 182 442 182 q 448 181 446 181 q 479 195 459 181 q 527 232 500 209 q 584 284 554 255 q 647 343 615 313 q 707 402 678 373 q 759 454 736 432 q 796 491 781 477 q 813 505 811 505 q 825 500 819 505 q 833 489 830 495 q 838 475 836 482 q 840 463 840 468 "},"Ш":{"x_min":124.796875,"x_max":1536.171875,"ha":1696,"o":"m 1479 1018 q 1504 1012 1493 1018 q 1522 996 1515 1006 q 1532 973 1529 986 q 1536 944 1536 959 q 1531 846 1536 902 q 1521 731 1526 790 q 1510 617 1515 672 q 1504 522 1504 562 q 1501 421 1502 474 q 1497 314 1499 367 q 1493 212 1495 261 q 1490 123 1491 162 q 1487 92 1490 111 q 1474 56 1483 74 q 1449 25 1465 38 q 1405 9 1432 11 q 1236 2 1323 2 q 1066 1 1148 1 q 943 2 1010 1 q 805 3 875 3 q 666 1 735 3 q 537 -8 596 -1 q 453 -12 497 -13 q 366 -10 410 -11 q 282 -9 323 -8 q 205 -18 241 -10 q 192 -15 201 -17 q 173 -11 183 -14 q 154 -5 164 -8 q 139 2 145 -1 q 130 27 135 6 q 124 78 124 48 q 128 137 124 101 q 138 219 132 174 q 150 316 143 264 q 164 422 158 368 q 177 531 171 476 q 185 634 183 585 q 190 700 187 667 q 196 767 193 734 q 200 832 198 800 q 202 890 202 863 q 203 917 202 903 q 208 945 204 931 q 219 972 212 959 q 238 999 226 986 q 252 1005 242 1003 q 270 1008 263 1007 q 302 1003 290 1008 q 319 987 314 998 q 326 959 324 975 q 327 918 327 942 q 324 861 327 889 q 318 803 322 832 q 310 745 314 774 q 305 689 307 716 q 303 659 305 680 q 297 609 301 638 q 290 549 294 581 q 283 490 286 518 q 276 440 279 461 q 271 412 273 419 q 263 343 266 381 q 257 268 259 304 q 254 206 255 233 q 252 174 252 180 q 253 159 252 168 q 255 141 253 150 q 259 125 256 132 q 269 117 263 118 q 313 109 293 111 q 354 106 334 107 q 394 107 373 106 q 437 107 414 107 q 510 109 470 107 q 591 113 551 111 q 668 118 632 115 q 727 122 704 120 q 737 125 733 122 q 744 136 740 128 q 762 352 754 246 q 781 551 770 459 q 791 640 788 594 q 795 732 794 686 q 798 825 797 779 q 803 914 800 870 q 806 928 803 919 q 814 944 809 936 q 826 957 819 951 q 841 963 833 963 l 843 963 q 865 958 850 963 q 896 944 881 953 q 923 921 911 935 q 934 891 934 908 q 921 744 928 818 q 908 599 914 669 q 896 467 902 529 q 886 358 890 406 q 878 278 881 309 q 876 239 876 247 q 876 209 876 226 q 881 177 877 192 q 891 148 884 161 q 912 131 899 136 q 968 120 936 122 q 1033 117 1001 117 q 1120 118 1083 117 q 1193 122 1158 120 q 1264 128 1228 124 q 1346 134 1300 131 q 1353 139 1349 135 q 1360 149 1357 143 q 1366 161 1363 155 q 1372 170 1370 166 q 1380 318 1377 242 q 1388 474 1384 395 q 1394 594 1391 535 q 1400 711 1397 653 q 1406 828 1403 769 q 1412 947 1409 886 q 1420 970 1413 958 q 1437 993 1427 982 q 1459 1010 1448 1003 q 1479 1018 1471 1018 "},"M":{"x_min":78,"x_max":1293.53125,"ha":1396,"o":"m 1293 1028 q 1290 1014 1293 1020 q 1281 1001 1287 1009 q 1272 986 1276 992 q 1268 975 1268 980 q 1267 970 1268 973 q 1264 960 1266 967 q 1258 940 1261 948 q 1255 929 1256 932 q 1245 883 1248 905 q 1243 833 1243 860 q 1239 731 1243 783 q 1234 677 1237 706 q 1228 618 1231 649 q 1221 558 1224 587 q 1215 503 1218 530 q 1208 405 1210 456 q 1205 298 1205 354 q 1207 203 1205 261 q 1209 69 1208 145 q 1235 48 1218 61 q 1262 28 1254 36 q 1270 5 1270 19 q 1243 -44 1270 -20 q 1190 -69 1216 -69 q 1098 23 1121 -69 q 1074 212 1074 116 q 1079 273 1074 242 q 1086 335 1083 303 q 1092 397 1088 356 q 1104 499 1097 438 q 1114 593 1110 560 q 1118 630 1117 625 q 1120 646 1119 635 q 1123 674 1121 657 q 1129 735 1127 710 q 1131 776 1131 761 q 1132 785 1132 781 q 1133 796 1133 789 q 1126 813 1133 800 q 1099 777 1115 798 q 1064 729 1083 756 q 999 642 1024 676 q 973 608 986 625 q 948 574 961 591 q 918 535 935 557 q 881 484 902 513 q 794 360 837 423 q 787 350 792 357 q 775 333 782 343 q 758 308 760 310 q 670 234 710 246 q 581 294 605 253 q 571 313 575 305 q 562 328 567 321 q 554 342 558 335 q 545 358 550 349 q 521 401 532 381 q 501 436 510 421 q 468 503 484 467 q 438 577 452 539 q 425 620 430 603 q 417 644 419 636 q 410 666 414 652 q 400 698 406 679 q 388 737 395 717 q 375 777 382 756 q 360 823 362 819 q 347 775 356 804 q 329 713 339 746 q 311 647 320 680 q 297 587 303 613 q 284 536 290 560 q 273 490 278 512 q 238 358 261 448 q 223 245 223 301 q 225 214 223 233 q 232 167 227 195 q 239 118 237 140 q 241 80 241 96 q 223 36 241 63 q 187 10 204 10 q 168 12 181 10 q 149 13 156 13 q 94 59 111 13 q 78 152 78 103 q 84 192 78 166 q 92 225 88 206 q 103 268 97 244 q 113 305 110 292 q 118 322 117 319 q 145 425 132 379 q 166 506 157 471 q 186 580 176 541 q 208 661 196 618 q 231 743 221 710 q 247 809 241 777 q 255 859 252 847 q 265 894 259 876 q 278 929 271 912 q 316 966 293 966 q 396 956 366 966 q 445 912 425 948 q 461 881 455 897 q 473 848 468 865 q 483 810 478 832 q 494 762 489 789 q 502 734 497 748 q 514 704 507 720 q 670 387 566 544 q 692 403 674 390 q 707 415 701 410 q 718 426 714 421 q 737 452 727 438 q 757 484 748 467 q 795 550 777 520 q 836 605 813 581 q 861 635 847 617 q 895 677 876 653 q 928 720 914 701 q 952 750 943 738 q 974 775 964 763 q 992 798 984 787 q 1012 825 1001 810 q 1037 858 1024 840 q 1057 882 1043 866 q 1069 896 1064 890 q 1077 908 1074 903 q 1104 946 1089 925 q 1136 996 1119 968 q 1167 1046 1153 1025 q 1190 1080 1180 1066 q 1204 1086 1194 1086 q 1229 1081 1214 1087 q 1259 1065 1245 1074 q 1284 1046 1274 1056 q 1293 1028 1294 1036 "},"Ψ":{"x_min":97.671875,"x_max":1117.03125,"ha":1083,"o":"m 1020 659 q 987 613 1004 634 q 951 573 971 592 q 907 539 931 555 q 851 508 883 523 q 796 485 822 494 q 749 471 771 477 q 708 461 727 465 q 672 452 689 457 q 653 442 659 448 q 645 424 647 436 q 641 388 643 411 q 638 341 640 366 q 634 291 636 316 q 630 250 632 267 q 624 207 627 229 q 621 161 622 184 q 618 117 619 138 q 617 80 617 96 q 616 32 617 54 q 612 -2 615 11 q 602 -17 611 -10 q 582 -30 593 -25 q 559 -38 571 -35 q 540 -41 547 -41 q 511 -34 522 -41 q 493 -16 499 -28 q 484 9 486 -5 q 481 42 481 25 q 484 96 481 65 q 493 163 488 128 q 503 236 497 198 q 514 307 509 273 q 522 370 518 341 q 525 417 525 398 q 510 432 525 432 q 468 434 495 432 q 406 440 441 435 q 336 459 367 446 q 280 488 305 471 q 236 528 255 505 q 200 579 216 551 q 152 676 170 628 q 119 774 134 725 q 103 838 109 808 q 97 887 97 868 q 115 940 97 918 q 164 961 133 961 q 201 940 189 961 q 220 883 213 918 q 264 721 238 790 q 318 619 290 652 q 389 565 348 583 q 482 546 430 546 q 502 547 492 546 q 524 549 513 548 q 534 553 530 550 q 542 566 539 556 q 548 591 545 575 q 552 626 550 607 q 557 683 554 653 q 562 743 560 714 q 568 798 565 772 q 573 842 571 824 q 580 897 576 874 q 590 934 584 919 q 601 950 593 944 q 620 960 610 956 q 642 966 631 964 q 661 967 653 967 q 696 949 687 967 q 706 906 706 931 q 703 864 706 887 q 695 810 700 841 q 682 741 689 779 q 668 654 675 702 q 665 634 666 645 q 662 612 663 623 q 661 591 661 601 q 661 574 661 581 q 663 562 661 565 q 672 560 666 560 q 699 563 683 560 q 731 572 714 567 q 765 584 748 577 q 796 597 782 590 q 838 621 819 609 q 874 650 857 634 q 906 686 891 666 q 935 732 921 706 q 951 765 942 746 q 967 808 959 785 q 983 856 975 831 q 996 904 990 881 q 1005 949 1001 925 q 1013 990 1009 973 q 1026 1014 1016 1005 q 1054 1023 1037 1023 q 1085 1015 1073 1023 q 1104 996 1098 1008 q 1114 969 1111 984 q 1117 938 1117 954 q 1106 867 1117 906 q 1081 788 1096 827 q 1049 714 1066 749 q 1020 659 1032 680 "},"ũ":{"x_min":131.578125,"x_max":1311.6875,"ha":1061,"o":"m 1311 548 q 1298 490 1311 522 q 1263 428 1285 457 q 1199 356 1235 392 q 1125 287 1163 320 q 1046 226 1086 254 q 968 177 1006 198 q 897 144 931 156 q 839 132 864 132 q 784 143 807 132 q 742 173 760 154 q 714 217 725 191 q 694 269 702 242 q 680 327 685 297 q 670 384 674 356 q 631 326 653 358 q 587 261 610 294 q 539 197 563 227 q 494 143 515 166 q 442 94 470 118 q 382 54 414 71 q 316 26 351 37 q 245 16 282 16 q 161 60 191 16 q 131 162 131 104 q 135 218 131 189 q 146 277 140 248 q 157 334 151 306 q 164 387 162 362 q 165 413 165 398 q 166 448 166 428 q 166 482 166 467 q 166 511 166 497 q 168 539 167 525 q 172 567 170 552 q 191 607 177 590 q 236 624 205 624 q 298 538 298 624 q 295 505 298 523 q 288 468 292 487 q 279 428 284 448 q 271 389 275 408 q 258 337 265 363 q 245 285 251 310 q 236 237 240 260 q 233 193 233 213 q 236 171 233 183 q 244 147 238 158 q 258 128 249 136 q 280 121 267 121 q 352 141 316 121 q 422 190 389 161 q 485 253 456 220 q 537 315 515 287 q 580 381 559 343 q 621 460 602 419 q 658 541 640 501 q 690 615 676 582 q 747 689 722 689 q 771 683 765 689 q 777 660 777 678 q 774 623 777 647 q 767 575 771 600 q 760 527 763 550 q 757 491 757 504 q 757 463 757 480 q 758 429 758 446 q 761 394 759 411 q 765 364 763 377 q 775 329 768 350 q 792 289 781 309 q 817 256 803 269 q 852 242 832 242 q 935 263 889 242 q 1030 319 982 285 q 1127 396 1079 354 q 1217 480 1176 438 q 1250 512 1233 496 q 1280 539 1266 529 q 1303 554 1294 550 q 1311 548 1311 557 m 826 938 q 808 890 826 920 q 789 861 799 875 q 765 832 778 847 q 724 793 740 803 q 687 784 708 784 q 643 788 662 784 q 607 802 623 793 q 590 814 600 807 q 567 833 580 822 q 549 849 555 844 q 541 856 542 855 q 522 874 531 865 q 506 890 514 883 q 488 901 497 896 q 466 905 478 905 q 443 901 453 905 q 423 888 433 896 q 401 868 413 880 q 377 840 390 856 q 353 811 363 823 q 334 791 343 799 q 315 779 324 783 q 296 776 306 776 q 275 785 282 776 q 267 809 267 795 q 299 882 267 837 q 375 959 333 926 q 448 992 419 992 q 513 983 492 992 q 535 969 524 978 q 559 947 546 960 q 583 925 572 934 q 603 909 594 915 q 622 895 612 903 q 642 881 632 888 q 661 870 651 875 q 676 866 670 866 q 709 880 694 866 q 738 914 724 894 q 753 934 746 924 q 768 954 761 945 q 793 974 784 974 q 817 964 809 974 q 826 938 826 954 "},"ŭ":{"x_min":131.578125,"x_max":1311.6875,"ha":1061,"o":"m 1311 548 q 1298 490 1311 522 q 1263 428 1285 457 q 1199 356 1235 392 q 1125 287 1163 320 q 1046 226 1086 254 q 968 177 1006 198 q 897 144 931 156 q 839 132 864 132 q 784 143 807 132 q 742 173 760 154 q 714 217 725 191 q 694 269 702 242 q 680 327 685 297 q 670 384 674 356 q 631 326 653 358 q 587 261 610 294 q 539 197 563 227 q 494 143 515 166 q 442 94 470 118 q 382 54 414 71 q 316 26 351 37 q 245 16 282 16 q 161 60 191 16 q 131 162 131 104 q 135 218 131 189 q 146 277 140 248 q 157 334 151 306 q 164 387 162 362 q 165 413 165 398 q 166 448 166 428 q 166 482 166 467 q 166 511 166 497 q 168 539 167 525 q 172 567 170 552 q 191 607 177 590 q 236 624 205 624 q 298 538 298 624 q 295 505 298 523 q 288 468 292 487 q 279 428 284 448 q 271 389 275 408 q 258 337 265 363 q 245 285 251 310 q 236 237 240 260 q 233 193 233 213 q 236 171 233 183 q 244 147 238 158 q 258 128 249 136 q 280 121 267 121 q 352 141 316 121 q 422 190 389 161 q 485 253 456 220 q 537 315 515 287 q 580 381 559 343 q 621 460 602 419 q 658 541 640 501 q 690 615 676 582 q 747 689 722 689 q 771 683 765 689 q 777 660 777 678 q 774 623 777 647 q 767 575 771 600 q 760 527 763 550 q 757 491 757 504 q 757 463 757 480 q 758 429 758 446 q 761 394 759 411 q 765 364 763 377 q 775 329 768 350 q 792 289 781 309 q 817 256 803 269 q 852 242 832 242 q 935 263 889 242 q 1030 319 982 285 q 1127 396 1079 354 q 1217 480 1176 438 q 1250 512 1233 496 q 1280 539 1266 529 q 1303 554 1294 550 q 1311 548 1311 557 m 756 975 q 747 950 756 966 q 724 916 738 934 q 695 881 710 898 q 666 856 679 865 q 593 815 633 832 q 506 799 552 799 q 447 812 475 799 q 393 847 418 826 q 348 896 368 869 q 314 949 327 923 q 308 963 311 956 q 304 977 306 970 q 300 990 301 984 q 299 998 299 996 q 302 1013 299 1005 q 312 1029 306 1021 q 326 1041 318 1036 q 341 1046 334 1046 q 354 1040 347 1046 q 365 1023 360 1033 q 391 974 377 995 q 423 931 405 952 q 466 899 441 911 q 514 888 491 888 q 556 891 536 888 q 596 909 575 895 q 653 954 629 930 q 700 1009 677 978 q 715 1023 708 1021 q 725 1025 722 1025 q 738 1021 732 1025 q 748 1008 744 1016 q 754 992 752 1001 q 756 975 756 983 "},"―":{"x_min":218.390625,"x_max":1480.5625,"ha":1588,"o":"m 1480 429 q 1464 383 1480 413 q 1436 354 1448 354 l 1197 354 q 1160 353 1184 354 q 1100 350 1136 352 q 1047 348 1064 349 q 1032 347 1030 347 q 989 348 1020 347 q 908 350 958 349 q 818 353 859 352 q 746 354 778 354 q 558 349 651 354 q 467 343 528 349 q 419 340 437 341 q 396 339 402 339 q 303 335 337 336 q 261 333 270 333 q 245 338 257 333 q 225 343 233 343 q 218 368 218 352 q 230 409 218 390 q 263 430 242 427 q 309 434 285 433 q 359 436 333 436 q 406 440 382 436 q 425 443 417 442 q 436 445 432 444 q 536 455 481 452 q 657 458 591 458 q 717 457 679 458 q 795 456 754 457 q 874 455 836 455 q 934 454 912 454 q 968 454 948 454 q 1013 453 988 453 q 1058 452 1038 452 q 1091 451 1077 451 q 1148 453 1117 451 q 1216 457 1180 455 q 1257 460 1235 459 q 1303 462 1278 461 q 1350 464 1328 463 q 1391 465 1372 465 q 1450 456 1420 465 q 1480 429 1480 448 "},"{":{"x_min":10.171875,"x_max":592.09375,"ha":587,"o":"m 592 -212 q 577 -246 592 -222 q 563 -267 569 -258 q 553 -282 558 -276 q 503 -305 541 -296 q 466 -312 483 -309 q 436 -314 450 -314 q 415 -313 429 -314 q 392 -311 400 -311 q 329 -296 358 -311 q 277 -254 300 -280 q 238 -196 254 -229 q 214 -130 222 -164 q 206 -77 208 -107 q 204 -8 204 -47 q 205 13 204 3 q 205 34 205 23 q 206 57 206 45 q 206 85 206 69 q 196 220 206 177 q 162 263 185 263 q 111 245 151 263 q 60 227 70 227 q 27 248 44 227 q 10 283 10 267 q 48 338 10 308 q 113 375 85 368 q 135 381 118 375 q 218 436 173 396 q 264 510 264 478 q 261 532 264 519 q 255 579 258 548 q 247 632 252 613 q 229 768 229 711 q 335 999 230 910 q 404 1036 352 1013 q 475 1059 457 1059 q 526 1048 503 1059 q 550 1015 550 1038 q 542 965 550 994 q 517 937 534 937 q 484 941 505 937 q 452 945 463 945 q 392 914 426 945 q 346 859 357 884 q 336 747 337 837 q 346 685 336 727 q 356 619 356 643 q 349 494 357 541 q 329 427 342 448 q 305 397 320 412 q 271 369 290 383 q 235 340 235 347 q 255 322 235 333 q 290 271 278 308 q 301 198 301 235 q 297 90 301 172 q 293 -18 293 8 q 322 -161 292 -113 q 411 -209 352 -209 q 463 -204 440 -209 q 518 -185 484 -199 q 535 -180 531 -180 q 592 -212 592 -180 "},"¼":{"x_min":108.515625,"x_max":1140.09375,"ha":1153,"o":"m 1140 226 q 1124 197 1140 212 q 1096 181 1108 181 q 1072 183 1089 182 q 1035 183 1056 183 q 918 153 918 183 l 918 1 q 923 -20 918 -5 q 927 -47 927 -36 q 910 -77 927 -64 q 876 -91 894 -91 q 836 -58 845 -91 q 828 26 828 -25 l 828 152 q 804 165 821 165 q 761 161 786 165 q 701 150 735 158 q 609 136 632 136 q 574 149 590 136 q 558 183 558 162 q 614 261 558 195 q 675 328 642 293 q 746 402 708 364 q 836 490 822 478 q 845 497 838 493 q 862 510 851 502 q 890 539 881 524 q 905 564 899 554 q 915 579 911 575 q 948 587 923 587 q 965 578 954 587 q 976 562 976 569 q 971 502 976 534 q 955 419 966 470 q 946 374 950 394 q 939 337 942 354 q 934 304 936 320 q 933 273 933 289 q 1002 257 941 257 q 1029 258 1018 257 q 1053 258 1041 258 q 1140 226 1140 258 m 271 999 q 271 985 271 992 q 269 967 270 977 q 263 932 266 949 q 255 893 259 916 q 230 740 240 802 q 216 642 221 678 q 213 619 215 632 q 210 590 212 606 q 206 559 209 573 q 198 534 203 545 q 185 517 193 523 q 166 511 177 511 q 125 540 142 511 q 108 597 108 569 q 121 666 108 612 q 131 714 128 695 q 136 746 134 734 q 150 844 139 779 q 159 900 155 876 q 164 940 162 924 q 169 973 164 954 q 181 1014 173 992 q 219 1060 196 1060 q 258 1042 244 1060 q 271 999 271 1024 m 832 1015 q 812 980 832 1008 q 759 911 792 952 q 733 878 742 890 q 722 864 724 866 q 672 788 687 819 q 652 743 665 772 q 620 672 639 714 q 587 599 602 629 q 562 551 573 569 q 552 535 558 545 q 534 510 545 525 q 515 481 523 494 q 499 458 506 468 q 483 435 492 448 q 463 405 474 421 q 369 250 411 323 q 299 112 328 177 q 288 84 295 102 q 269 41 280 67 q 247 -5 259 15 q 224 -43 236 -27 q 201 -67 212 -59 q 177 -76 189 -76 q 144 -62 158 -76 q 130 -30 130 -48 q 143 8 130 -20 q 158 39 150 23 q 174 74 165 56 q 194 116 192 112 q 230 188 211 153 q 268 258 248 223 q 313 332 288 293 q 366 417 337 372 q 382 440 369 421 q 418 497 394 460 q 458 559 442 533 q 482 601 474 585 q 532 697 507 650 q 581 792 557 745 q 595 821 587 804 q 615 862 604 838 q 654 941 636 909 q 693 999 672 973 q 714 1022 703 1011 q 738 1041 726 1032 q 761 1054 750 1049 q 783 1060 773 1060 q 816 1047 801 1060 q 832 1015 832 1034 m 864 396 l 857 400 q 763 310 801 351 q 704 237 725 270 l 708 227 q 739 230 720 228 q 779 233 758 231 q 815 238 800 236 q 841 245 829 240 q 855 327 849 269 q 864 396 862 386 "},"▄":{"x_min":-56.296875,"x_max":1027.5,"ha":984,"o":"m 1017 -375 q 994 -407 1011 -400 q 955 -412 978 -414 q 942 -413 948 -413 q 929 -413 935 -413 q 907 -413 923 -413 q 870 -414 890 -414 q 831 -414 850 -414 q 804 -411 813 -413 q 742 -407 779 -408 q 660 -405 705 -406 q 566 -405 615 -405 q 467 -406 516 -405 q 370 -408 417 -407 q 285 -411 324 -410 q 218 -414 246 -413 q 178 -418 190 -416 q 129 -426 150 -423 q 90 -428 107 -428 q 59 -427 73 -428 q 29 -424 44 -425 q -9 -410 6 -421 q -33 -384 -24 -398 q -48 -356 -43 -370 q -56 -336 -53 -342 q -51 -308 -54 -325 q -46 -270 -49 -290 q -40 -226 -43 -249 q -35 -180 -37 -203 q -38 -157 -37 -177 q -41 -109 -40 -137 q -43 -49 -42 -82 q -44 10 -44 -17 q -43 59 -44 38 q -42 86 -43 80 q -41 138 -40 104 q -44 212 -42 172 q -49 291 -46 252 q -50 359 -51 330 q -47 387 -52 374 q -34 411 -43 401 q -13 424 -25 420 q 14 425 0 428 q 42 425 27 427 q 63 425 46 425 q 100 424 80 425 q 139 421 120 423 q 166 419 158 420 q 228 415 191 416 q 310 413 265 413 q 404 413 355 413 q 503 414 454 413 q 600 416 553 415 q 685 419 647 417 q 752 422 724 420 q 792 425 780 423 q 842 434 820 431 q 880 438 863 437 q 911 439 897 439 q 941 436 926 438 q 980 422 965 434 q 1005 396 995 411 q 1019 368 1014 382 q 1027 348 1024 354 q 1023 320 1025 337 q 1017 282 1020 303 q 1011 238 1014 261 q 1006 192 1009 215 q 1010 169 1008 189 q 1012 122 1011 149 q 1014 62 1013 94 q 1015 2 1015 30 q 1014 -47 1015 -26 q 1013 -73 1014 -67 q 1012 -125 1011 -91 q 1015 -199 1013 -160 q 1020 -279 1018 -239 q 1022 -347 1022 -318 l 1017 -375 "},"ι":{"x_min":142.421875,"x_max":545.96875,"ha":540,"o":"m 545 162 q 536 128 545 146 q 511 94 526 111 q 480 62 497 77 q 451 37 464 47 q 386 -1 421 13 q 308 -16 351 -16 q 236 1 267 -16 q 183 51 204 20 q 152 126 162 83 q 142 216 142 168 q 156 387 142 294 q 207 586 170 481 q 228 635 217 615 q 250 667 239 655 q 274 685 262 679 q 298 690 286 690 q 329 678 316 690 q 343 646 343 667 q 338 622 343 636 q 325 586 333 608 q 307 534 317 564 q 286 461 297 503 q 274 405 280 435 q 265 345 269 376 q 260 283 262 314 q 258 225 258 252 q 277 124 258 160 q 335 87 297 87 q 444 134 389 87 q 489 174 472 158 q 518 191 506 191 q 538 182 531 191 q 545 162 545 173 "},"Ĳ":{"x_min":103.765625,"x_max":1095.5,"ha":1189,"o":"m 368 876 q 341 790 368 858 q 320 734 328 756 q 311 702 313 712 q 285 529 298 621 q 261 328 273 436 q 255 277 257 299 q 250 242 252 256 q 246 213 248 229 q 243 178 244 197 q 241 143 242 159 q 242 114 241 128 q 250 90 242 106 q 259 64 259 75 q 226 16 261 40 q 194 0 209 5 q 167 -7 180 -6 q 136 2 147 -7 q 114 35 123 15 q 105 70 105 56 q 104 155 103 113 q 110 242 105 198 q 123 341 115 286 q 143 463 131 396 q 159 550 151 509 q 174 628 167 591 q 191 711 182 665 q 212 815 201 758 q 219 850 216 836 q 223 872 221 864 q 228 897 225 882 q 236 937 231 913 q 241 955 236 945 q 251 975 245 966 q 266 992 258 985 q 281 999 274 999 q 311 993 295 1000 q 338 974 328 986 q 358 945 352 961 q 366 913 365 930 q 367 894 367 902 q 368 876 367 886 m 1095 726 q 1088 506 1095 599 q 1066 352 1081 413 q 1053 314 1062 337 q 1030 260 1044 291 q 1003 204 1016 229 q 978 162 990 180 q 963 143 973 155 q 939 113 954 130 q 828 25 887 53 q 691 -2 769 -2 q 573 5 634 -2 q 456 35 513 13 q 367 91 400 56 q 356 119 356 103 q 362 146 356 134 q 378 168 368 159 q 402 182 388 177 q 431 187 415 187 q 516 158 447 187 q 576 133 552 143 q 615 118 601 124 q 671 108 643 108 q 819 149 762 108 q 910 275 875 189 q 960 600 960 397 q 958 691 960 628 q 951 854 955 754 q 948 916 949 889 q 946 961 946 943 q 950 971 945 965 q 961 983 955 977 q 975 994 968 989 q 985 1003 982 999 q 1012 1011 994 1011 q 1046 1001 1031 1011 q 1066 975 1061 991 q 1069 955 1067 973 q 1075 902 1071 937 q 1090 785 1085 832 q 1095 726 1095 738 "},"Ê":{"x_min":109.875,"x_max":1065.484375,"ha":1042,"o":"m 1065 964 q 1062 949 1065 958 q 1054 931 1059 940 q 1044 914 1050 922 q 1032 904 1039 906 q 998 890 1013 895 q 962 882 983 886 q 836 861 897 870 q 720 848 775 853 q 620 841 666 843 q 543 838 575 838 q 512 838 525 838 q 486 838 499 838 q 463 837 474 838 q 438 837 451 837 q 386 838 408 837 q 348 840 364 838 q 334 781 338 816 q 328 710 330 747 q 325 638 326 673 q 320 576 324 602 q 344 561 334 567 q 363 554 354 556 q 384 551 373 552 q 411 551 395 551 q 448 551 427 551 q 490 552 469 551 q 530 555 510 553 q 565 560 550 556 q 612 568 592 567 q 652 569 632 569 q 691 571 671 569 q 735 583 710 573 q 767 596 752 590 q 794 606 781 602 q 818 612 807 610 q 844 615 830 615 q 862 607 855 615 q 874 587 870 599 q 879 561 878 575 q 881 533 881 546 q 870 507 881 518 q 845 491 859 497 q 815 480 830 484 q 792 474 800 476 q 751 468 776 470 q 697 464 725 466 q 643 462 670 463 q 600 459 617 461 q 503 451 554 453 q 400 448 452 448 q 355 445 373 448 q 313 435 336 442 q 303 417 308 434 q 291 375 297 400 q 279 320 285 350 q 266 263 272 290 q 252 188 257 222 q 246 140 248 154 q 257 131 250 136 q 270 126 263 126 q 313 127 288 126 q 364 128 337 127 q 415 129 390 128 q 459 132 440 130 q 552 140 503 136 q 647 150 601 145 q 734 162 693 155 q 805 177 775 168 q 814 179 805 177 q 840 186 824 182 q 874 196 855 191 q 908 205 892 201 q 934 212 923 209 q 944 215 944 215 q 963 210 954 215 q 980 195 973 204 q 992 174 988 186 q 996 147 996 162 q 991 132 996 142 q 976 112 986 122 q 954 93 967 102 q 927 82 942 84 q 863 70 893 75 q 801 61 832 65 q 734 53 769 57 q 655 46 699 50 q 551 34 603 40 q 452 23 498 29 q 371 11 406 16 q 318 3 335 6 q 284 -5 303 0 q 246 -14 265 -10 q 211 -23 227 -19 q 185 -27 195 -27 q 152 -22 166 -27 q 128 -4 138 -16 q 114 30 119 8 q 109 85 109 52 q 118 150 109 114 q 137 237 126 185 q 154 321 145 279 q 172 404 164 362 q 186 487 181 446 q 193 572 192 529 q 197 634 193 602 q 205 697 201 665 q 211 760 208 729 q 215 823 215 792 q 213 838 215 828 q 212 852 212 847 q 233 916 212 881 q 251 935 238 925 q 279 952 263 944 q 309 965 294 960 q 335 969 324 969 q 358 967 341 969 q 393 960 375 964 q 428 954 411 956 q 451 951 444 951 q 482 951 463 951 q 524 950 501 950 q 572 950 547 950 q 619 951 597 950 q 717 957 671 954 q 815 969 764 961 q 871 982 845 974 q 921 998 897 990 q 968 1010 944 1005 q 1015 1015 991 1015 q 1033 1011 1024 1015 q 1049 1000 1042 1007 q 1061 983 1056 992 q 1065 964 1065 973 m 935 1159 q 923 1130 935 1144 q 896 1117 911 1117 q 876 1124 887 1117 q 856 1142 866 1131 q 838 1164 847 1152 q 822 1186 829 1176 q 777 1245 809 1207 q 733 1310 746 1285 q 726 1324 730 1317 q 719 1338 722 1332 q 711 1348 715 1344 q 703 1353 707 1353 q 691 1347 696 1353 q 634 1288 657 1313 q 612 1264 622 1276 q 592 1242 601 1253 q 563 1211 582 1231 q 516 1160 544 1190 q 479 1140 496 1140 q 444 1199 444 1140 q 455 1233 444 1225 q 521 1295 494 1270 q 573 1342 548 1321 q 653 1421 620 1382 q 718 1468 691 1468 q 752 1437 732 1468 q 800 1354 773 1405 q 836 1293 828 1303 q 852 1276 840 1289 q 883 1241 864 1263 q 925 1193 924 1197 q 935 1159 935 1169 "},"Ά":{"x_min":13.5625,"x_max":1130.59375,"ha":1162,"o":"m 1130 44 q 1113 -1 1130 17 q 1068 -21 1096 -21 q 1048 -15 1056 -21 q 1027 4 1039 -8 q 1003 35 1015 16 q 957 116 978 74 q 923 191 936 159 q 916 209 920 201 q 909 225 912 217 q 901 243 905 233 q 892 267 897 253 q 864 344 872 326 q 845 329 854 335 q 827 322 836 324 q 806 319 817 320 q 784 319 796 319 q 767 316 777 319 q 745 310 756 314 q 721 303 733 307 q 699 296 710 299 q 631 279 666 286 q 560 264 596 271 q 483 251 523 257 q 398 237 443 244 q 360 210 378 233 q 286 109 342 187 q 194 -4 232 31 q 122 -40 157 -40 q 47 -22 77 -40 q 13 23 13 0 q 28 42 13 36 q 67 52 42 48 q 105 86 75 53 q 147 137 132 117 q 205 217 175 174 q 271 312 234 259 q 302 359 288 339 q 324 392 316 379 q 346 423 334 406 q 373 461 358 440 q 389 484 380 470 q 412 514 399 497 q 435 545 425 532 q 453 570 446 559 q 474 597 461 581 q 503 636 486 613 q 525 668 509 642 q 568 737 541 693 q 617 829 606 800 q 737 1022 697 1022 q 765 1019 754 1022 q 782 1008 776 1015 q 790 989 788 1001 q 792 961 792 978 q 792 940 792 949 q 792 926 792 931 q 790 898 791 915 q 788 858 790 881 q 853 705 822 787 q 886 614 868 663 q 923 506 903 565 q 957 406 942 448 q 982 339 972 365 q 1004 280 991 314 q 1036 205 1018 247 q 1087 130 1043 189 q 1130 44 1130 70 m 830 445 q 803 525 817 482 q 774 612 789 569 q 743 695 758 655 q 711 766 727 735 q 639 667 673 714 q 574 572 605 619 q 511 474 542 524 q 448 366 480 423 q 462 364 456 364 q 488 365 472 364 q 521 369 504 367 q 553 375 537 372 q 577 379 568 377 q 605 386 594 383 q 628 392 617 389 q 652 397 639 394 q 682 404 664 400 q 760 425 721 415 q 830 445 798 436 m 326 1016 q 348 1012 339 1016 q 364 1003 358 1008 q 373 990 370 997 q 376 978 376 983 q 373 959 376 970 q 366 940 370 947 q 340 888 355 917 q 311 825 326 858 q 282 758 296 792 q 259 694 269 725 q 254 680 257 689 q 248 663 252 671 q 237 648 244 654 q 222 642 231 642 q 208 646 214 642 q 197 656 202 650 q 190 670 193 662 q 188 683 188 677 q 194 728 188 697 q 212 799 201 759 q 238 884 223 839 q 271 970 253 929 q 279 987 275 978 q 290 1002 284 995 q 305 1012 296 1008 q 326 1016 313 1016 "},")":{"x_min":16.953125,"x_max":427.953125,"ha":505,"o":"m 427 266 q 393 51 427 152 q 297 -147 359 -49 q 260 -196 288 -159 q 219 -257 231 -233 q 182 -321 198 -297 q 145 -344 166 -344 q 103 -329 122 -344 q 84 -299 84 -315 q 98 -261 84 -285 q 129 -217 112 -239 q 172 -163 146 -196 q 219 -89 191 -139 q 249 -24 232 -64 q 287 71 266 15 q 330 215 330 184 q 324 336 330 268 q 303 478 319 404 q 263 616 288 552 q 212 741 239 679 q 96 931 158 866 q 70 960 88 942 q 25 1003 52 978 q 16 1031 16 1011 q 36 1058 16 1042 q 76 1075 56 1075 q 209 947 126 1075 q 256 877 235 908 q 291 821 276 846 q 336 720 321 772 q 373 608 354 663 q 405 491 392 552 q 423 371 419 429 q 427 266 427 313 "},"ε":{"x_min":10.359375,"x_max":770.46875,"ha":747,"o":"m 208 569 q 267 624 235 598 q 337 670 299 651 q 416 701 374 690 q 503 713 457 713 q 548 710 525 713 q 588 700 570 708 q 617 679 606 693 q 628 644 628 666 q 615 602 628 614 q 583 590 603 590 q 552 594 567 590 q 521 603 537 598 q 487 613 505 609 q 447 617 470 617 q 404 609 426 617 q 361 590 381 602 q 322 563 340 578 q 290 533 304 548 q 222 438 244 478 q 200 386 200 398 q 205 377 200 380 q 217 376 210 375 q 281 386 255 381 q 331 395 307 391 q 381 404 355 400 q 446 415 408 409 q 494 423 473 419 q 531 430 515 427 q 560 435 548 433 q 583 440 573 438 q 598 443 591 441 q 610 444 605 444 q 619 439 615 443 q 622 424 622 434 q 619 402 623 412 q 610 385 616 393 q 597 372 604 377 q 580 360 589 366 q 524 345 558 353 q 449 328 491 337 q 361 312 408 320 q 267 296 314 304 q 200 284 223 288 q 172 274 177 279 q 169 266 170 271 q 167 252 168 260 q 166 236 166 244 q 166 219 166 227 q 173 170 166 195 q 195 127 180 146 q 233 95 210 107 q 290 84 257 84 q 391 95 341 84 q 490 126 440 106 q 587 172 539 145 q 682 231 635 200 q 727 259 710 250 q 760 267 744 267 q 770 249 770 267 q 766 225 770 237 q 752 205 762 214 q 641 118 701 159 q 517 48 581 78 q 386 3 453 18 q 251 -8 318 -12 q 177 3 212 -9 q 114 43 141 16 q 72 109 88 69 q 56 200 56 148 q 58 227 56 212 q 62 257 59 242 q 55 260 59 260 q 22 268 31 258 q 10 294 12 279 q 20 331 8 314 q 53 349 31 348 q 70 349 63 349 q 85 354 78 349 q 135 468 104 413 q 208 569 166 524 "},"э":{"x_min":50.1875,"x_max":692.8125,"ha":733,"o":"m 690 411 q 685 371 690 396 q 672 318 680 346 q 654 264 664 290 q 634 220 644 237 q 533 91 585 139 q 425 17 480 43 q 313 -16 369 -8 q 200 -24 256 -24 q 142 -10 170 -24 q 94 24 115 2 q 62 74 74 46 q 50 130 50 102 q 56 151 50 143 q 71 164 63 159 q 88 170 80 168 q 101 172 96 172 q 129 161 120 172 q 147 134 139 149 q 159 112 152 123 q 178 92 166 101 q 205 77 189 83 q 248 71 222 71 q 315 80 276 71 q 394 108 354 88 q 470 162 434 128 q 528 245 505 195 q 538 267 532 253 q 550 296 544 282 q 560 323 556 311 q 564 341 564 336 q 548 354 564 354 q 522 351 538 354 q 488 345 505 348 q 454 337 470 341 q 426 331 437 333 q 350 318 384 323 q 278 313 316 313 q 243 325 257 313 q 230 356 230 338 q 238 377 230 368 q 258 392 245 386 q 287 402 270 398 q 321 407 303 405 q 383 415 349 410 q 451 427 417 421 q 516 440 484 433 q 574 452 548 446 q 566 520 574 489 q 543 573 558 551 q 505 608 528 596 q 454 621 483 621 q 397 612 426 621 q 340 590 367 603 q 289 561 312 577 q 250 534 265 546 q 218 511 234 521 q 190 501 202 501 q 169 504 177 501 q 157 514 161 508 q 152 526 153 520 q 151 540 151 533 q 166 589 151 562 q 219 637 182 615 q 275 665 246 651 q 336 690 303 679 q 407 708 369 701 q 489 714 445 714 q 587 689 546 714 q 652 620 627 663 q 687 523 677 577 q 690 411 696 468 "},"ш":{"x_min":128.1875,"x_max":1717.9375,"ha":1485,"o":"m 1717 484 q 1712 466 1717 477 q 1698 442 1707 455 q 1679 417 1690 430 q 1660 394 1669 404 q 1597 324 1632 361 q 1523 250 1562 286 q 1440 179 1483 213 q 1352 120 1397 145 q 1261 79 1307 94 q 1170 63 1215 63 q 1115 74 1140 63 q 1072 106 1090 85 q 1045 157 1055 126 q 1035 227 1035 187 q 1037 267 1035 250 q 1040 297 1038 284 q 1043 322 1041 310 q 1044 349 1044 335 q 1042 357 1044 356 q 1037 358 1041 358 q 1028 349 1035 358 q 1009 327 1020 341 q 983 295 997 313 q 952 258 968 277 q 880 183 916 217 q 809 124 844 149 q 743 86 775 99 q 685 72 711 72 q 634 82 656 72 q 597 110 612 92 q 575 152 583 128 q 567 204 567 176 q 569 236 567 220 q 572 265 571 251 q 576 289 574 278 q 577 308 577 301 q 570 316 577 316 q 559 304 569 316 q 532 270 549 291 q 494 223 516 249 q 447 168 472 196 q 396 114 423 141 q 344 67 370 88 q 294 33 318 46 q 249 21 269 21 q 171 50 202 21 q 132 127 141 80 q 129 151 130 138 q 128 179 128 164 q 131 249 128 210 q 140 326 134 287 q 152 403 145 365 q 166 471 159 440 q 179 521 172 501 q 189 545 185 541 q 226 569 210 561 q 263 577 242 577 q 272 576 267 577 q 282 573 278 575 q 290 566 287 571 q 294 556 294 562 q 292 544 294 549 q 288 530 291 539 q 282 509 285 520 q 274 483 278 497 q 265 451 270 469 q 255 409 261 433 q 244 349 249 381 q 236 290 239 318 q 230 238 232 261 q 229 200 229 214 q 239 146 229 164 q 266 128 248 128 q 334 167 286 128 q 446 288 382 206 q 487 341 465 312 q 528 398 508 370 q 562 449 547 425 q 584 486 577 473 q 616 550 601 520 q 644 602 631 579 q 670 638 657 624 q 693 653 682 652 q 712 651 702 653 q 731 646 722 649 q 746 638 739 642 q 752 628 752 634 q 746 585 752 609 q 730 534 739 562 q 709 473 720 505 q 687 404 697 440 q 669 325 676 367 q 661 236 661 283 q 672 192 661 207 q 699 177 684 177 q 740 185 719 177 q 785 211 761 193 q 838 257 809 229 q 901 322 866 284 q 956 386 929 354 q 1006 448 984 419 q 1045 501 1028 477 q 1070 541 1062 525 q 1096 565 1080 559 q 1123 573 1111 571 q 1142 568 1133 573 q 1156 556 1150 563 q 1165 541 1162 549 q 1168 528 1168 534 q 1163 489 1168 509 q 1152 449 1159 469 q 1142 409 1147 432 q 1134 363 1138 387 q 1129 313 1131 339 q 1127 262 1127 287 q 1132 221 1127 240 q 1146 189 1136 203 q 1173 168 1157 176 q 1213 161 1189 161 q 1289 177 1248 161 q 1382 228 1331 193 q 1494 317 1433 263 q 1629 448 1555 371 q 1648 470 1640 459 q 1664 487 1656 480 q 1678 499 1671 495 q 1694 503 1685 503 q 1709 498 1701 503 q 1717 484 1717 493 "},"Я":{"x_min":27.8125,"x_max":969.859375,"ha":1030,"o":"m 969 1000 q 963 972 969 990 q 948 934 956 954 q 930 894 940 914 q 916 858 921 874 q 891 766 904 817 q 866 658 878 714 q 844 542 854 602 q 826 426 833 483 q 814 318 818 370 q 809 225 809 266 q 811 180 809 207 q 815 121 813 153 q 818 52 817 88 q 820 -18 820 16 q 814 -31 819 -25 q 803 -41 809 -37 q 790 -48 796 -46 q 779 -51 783 -51 l 776 -51 q 724 -33 744 -51 q 698 19 704 -16 q 697 48 697 25 q 697 105 697 71 q 697 148 697 121 q 699 208 698 176 q 701 275 700 240 q 703 339 703 309 q 705 392 704 369 q 704 422 705 414 q 697 426 704 423 q 689 427 690 429 q 523 285 607 360 q 355 137 440 209 q 298 89 327 113 q 242 39 269 64 q 191 -10 215 14 q 151 -56 168 -34 q 141 -66 147 -61 q 128 -75 135 -71 q 115 -83 122 -80 q 105 -86 109 -86 l 104 -86 q 71 -74 85 -86 q 48 -49 57 -63 q 33 -20 38 -34 q 27 0 28 -6 l 27 1 q 34 17 27 7 q 52 37 42 27 q 76 60 63 48 q 100 81 89 71 q 119 96 111 90 q 127 103 126 102 q 182 145 158 128 q 229 180 206 163 q 277 214 252 196 q 331 257 301 232 q 355 277 340 265 q 386 304 369 289 q 421 336 403 320 q 455 366 440 352 q 482 393 471 381 q 498 411 494 404 q 483 417 494 416 q 461 417 472 417 q 436 417 451 417 q 406 416 421 416 q 377 415 392 415 q 352 416 362 415 q 303 426 329 418 q 252 447 277 435 q 205 475 227 459 q 168 508 183 491 q 150 539 157 521 q 139 575 143 557 q 133 608 134 593 q 132 632 132 623 q 156 736 132 687 q 220 828 180 786 q 313 904 261 870 q 423 964 366 938 q 538 1008 480 990 q 647 1036 596 1026 q 676 1040 653 1037 q 727 1048 699 1044 q 776 1055 754 1052 q 803 1058 798 1058 q 825 1054 811 1058 q 847 1049 838 1049 q 865 1052 853 1049 q 886 1055 876 1055 q 911 1051 897 1055 q 937 1041 925 1047 q 958 1024 949 1034 q 969 1003 967 1015 l 969 1000 m 808 904 q 793 931 806 919 q 765 943 780 943 q 694 937 732 943 q 618 922 656 931 q 546 901 581 912 q 489 878 512 889 q 394 828 438 855 q 319 768 351 800 q 270 699 288 736 q 252 619 252 662 q 265 579 253 599 q 301 544 277 559 q 362 519 325 529 q 451 510 400 510 q 589 517 529 510 q 688 542 650 525 q 702 551 695 545 q 717 566 710 556 q 731 589 725 575 q 743 623 738 603 l 808 904 "},"a":{"x_min":46.125,"x_max":1119.0625,"ha":911,"o":"m 1119 461 q 1117 442 1119 453 q 1111 419 1115 431 q 1103 397 1107 408 q 1093 381 1098 387 q 1082 366 1089 375 q 1064 346 1074 357 q 1044 323 1055 335 q 1020 301 1032 311 q 938 226 978 262 q 855 162 897 189 q 766 117 812 134 q 665 101 719 101 q 614 110 640 101 q 566 137 589 120 q 528 177 544 153 q 505 229 512 201 q 463 187 485 209 q 418 143 442 165 q 370 99 395 120 q 318 61 345 78 q 283 40 303 51 q 239 20 262 29 q 194 5 217 11 q 153 0 171 0 q 105 17 125 0 q 72 59 85 34 q 52 113 59 84 q 46 164 46 141 q 59 255 46 208 q 92 346 71 302 q 138 431 113 391 q 188 502 164 471 q 249 567 214 535 q 322 624 284 599 q 397 666 360 650 q 462 681 434 681 q 492 681 476 681 q 524 679 508 681 q 554 674 539 678 q 581 663 569 670 q 596 647 588 659 q 611 621 604 636 q 623 593 618 607 q 628 571 628 579 q 617 511 628 548 q 597 426 607 464 q 588 347 588 387 q 596 300 588 324 q 617 256 603 276 q 651 224 631 236 q 696 211 671 211 q 781 228 737 211 q 869 276 824 246 q 957 346 913 306 q 1044 430 1001 385 q 1056 444 1047 434 q 1073 464 1064 454 q 1091 481 1083 474 q 1104 489 1100 489 q 1119 461 1119 489 m 515 518 q 514 546 515 529 q 505 574 512 563 q 486 584 497 585 q 465 584 476 584 q 419 577 441 584 q 376 556 397 569 q 336 525 355 543 q 298 489 316 508 q 265 451 282 474 q 231 400 248 427 q 199 342 215 373 q 172 283 183 312 q 153 226 160 253 q 147 176 147 198 q 148 158 147 169 q 154 136 150 147 q 164 118 158 126 q 180 111 170 111 q 258 130 211 111 q 374 205 322 158 q 462 314 425 252 q 515 518 515 409 "},"Ę":{"x_min":109.875,"x_max":1065.484375,"ha":1042,"o":"m 1058 -134 q 998 -213 1058 -192 q 866 -234 939 -234 q 780 -198 811 -234 q 749 -106 749 -162 q 774 -4 749 -56 q 793 26 781 10 q 822 64 805 43 q 746 55 786 59 q 655 46 706 51 q 551 34 603 40 q 452 23 498 29 q 371 11 406 16 q 318 3 335 6 q 284 -5 303 0 q 246 -14 265 -10 q 211 -23 227 -19 q 185 -27 195 -27 q 152 -22 166 -27 q 128 -4 138 -16 q 114 30 119 8 q 109 85 109 52 q 118 150 109 114 q 137 237 126 185 q 154 321 145 279 q 172 404 164 362 q 186 487 181 446 q 193 572 192 529 q 197 634 193 602 q 205 697 201 665 q 211 760 208 729 q 215 823 215 792 q 213 838 215 828 q 212 852 212 847 q 233 916 212 881 q 251 935 238 925 q 279 952 263 944 q 309 965 294 960 q 335 969 324 969 q 358 967 341 969 q 393 960 375 964 q 428 954 411 956 q 451 951 444 951 q 482 951 463 951 q 524 950 501 950 q 572 950 547 950 q 619 951 597 950 q 717 957 671 954 q 815 969 764 961 q 871 982 845 974 q 921 998 897 990 q 968 1010 944 1005 q 1015 1015 991 1015 q 1033 1011 1024 1015 q 1049 1000 1042 1007 q 1061 983 1056 992 q 1065 964 1065 973 q 1062 949 1065 958 q 1054 931 1059 940 q 1044 914 1050 922 q 1032 904 1039 906 q 998 890 1013 895 q 962 882 983 886 q 836 861 897 870 q 720 848 775 853 q 620 841 666 843 q 543 838 575 838 q 512 838 525 838 q 486 838 499 838 q 463 837 474 838 q 438 837 451 837 q 386 838 408 837 q 348 840 364 838 q 334 781 338 816 q 328 710 330 747 q 325 638 326 673 q 320 576 324 602 q 344 561 334 567 q 363 554 354 556 q 384 551 373 552 q 411 551 395 551 q 448 551 427 551 q 490 552 469 551 q 530 555 510 553 q 565 560 550 556 q 612 568 592 567 q 652 569 632 569 q 691 571 671 569 q 735 583 710 573 q 767 596 752 590 q 794 606 781 602 q 818 612 807 610 q 844 615 830 615 q 862 607 855 615 q 874 587 870 599 q 879 561 878 575 q 881 533 881 546 q 870 507 881 518 q 845 491 859 497 q 815 480 830 484 q 792 474 800 476 q 751 468 776 470 q 697 464 725 466 q 643 462 670 463 q 600 459 617 461 q 503 451 554 453 q 400 448 452 448 q 355 445 373 448 q 313 435 336 442 q 303 417 308 434 q 291 375 297 400 q 279 320 285 350 q 266 263 272 290 q 252 188 257 222 q 246 140 248 154 q 257 131 250 136 q 270 126 263 126 q 313 127 288 126 q 364 128 337 127 q 415 129 390 128 q 459 132 440 130 q 552 140 503 136 q 647 150 601 145 q 734 162 693 155 q 805 177 775 168 q 814 179 805 177 q 840 186 824 182 q 874 196 855 191 q 908 205 892 201 q 934 212 923 209 q 944 215 944 215 q 963 210 954 215 q 980 195 973 204 q 992 174 988 186 q 996 147 996 162 q 987 125 996 140 q 961 98 977 110 q 948 86 956 92 q 929 70 940 79 q 866 -13 889 29 q 842 -94 842 -57 q 855 -132 842 -116 q 892 -148 869 -148 q 935 -143 919 -148 q 980 -127 951 -140 q 996 -117 988 -122 q 1011 -107 1004 -111 q 1026 -99 1019 -102 q 1042 -95 1034 -95 q 1049 -99 1046 -95 q 1054 -109 1052 -103 q 1057 -122 1056 -115 q 1058 -134 1058 -128 "},"Z":{"x_min":82.0625,"x_max":1255.390625,"ha":1178,"o":"m 1255 247 q 1240 218 1255 222 q 1208 212 1233 217 q 1141 202 1184 208 q 1044 185 1089 193 q 955 170 999 178 q 865 155 911 163 q 765 139 819 147 q 668 123 714 130 q 581 110 622 115 q 417 91 499 99 q 252 80 335 83 q 212 52 237 71 q 167 23 187 33 q 120 13 146 13 q 105 21 112 13 q 93 38 98 28 q 85 59 88 48 q 82 76 82 69 q 90 96 82 84 q 113 124 99 109 q 149 159 128 140 q 196 198 170 177 q 269 256 236 231 q 330 302 302 280 q 384 346 358 324 q 438 397 411 368 q 470 432 450 409 q 513 484 489 455 q 562 544 537 512 q 610 604 587 575 q 653 656 634 633 q 683 693 672 680 q 781 788 727 744 q 714 808 773 808 q 647 804 691 808 q 586 798 619 802 q 520 790 553 794 q 455 783 486 786 q 397 780 423 780 q 277 787 333 780 q 170 812 220 793 q 151 820 158 816 q 139 829 143 824 q 132 840 134 834 q 130 857 130 847 q 132 872 130 862 q 137 895 134 883 q 143 917 140 906 q 149 931 146 927 q 193 946 160 946 q 295 912 249 923 q 384 901 341 901 q 436 902 407 901 q 494 905 464 904 q 554 909 524 907 q 609 912 583 911 q 671 915 648 915 q 714 917 694 916 q 760 921 735 918 q 828 931 785 923 q 903 942 872 938 q 952 946 934 946 q 978 941 965 946 q 1001 927 990 935 q 1018 908 1011 919 q 1024 886 1024 897 q 1016 868 1024 876 q 994 845 1003 855 q 975 827 984 836 q 957 810 966 819 q 935 788 948 800 q 794 637 864 716 q 661 487 725 559 q 596 414 629 451 q 529 339 562 376 q 462 266 495 301 q 397 198 428 230 q 493 206 446 200 q 587 219 540 212 q 682 236 634 227 q 783 254 731 245 q 1226 295 1024 295 q 1255 247 1255 283 "},"k":{"x_min":118.6875,"x_max":1180.109375,"ha":950,"o":"m 1180 463 q 1167 436 1180 459 q 1132 378 1155 413 q 1078 300 1109 343 q 1009 212 1047 257 q 930 125 972 168 q 845 50 889 83 q 756 -3 800 16 q 668 -23 711 -23 q 616 -15 640 -23 q 569 5 591 -8 q 527 35 547 18 q 489 73 507 53 q 442 126 464 99 q 400 176 420 153 q 361 218 380 200 q 324 247 342 237 q 316 239 322 246 q 301 224 309 232 q 285 207 293 215 q 274 193 278 198 q 244 155 256 172 q 229 124 233 138 q 225 97 226 113 q 224 66 224 82 q 221 21 224 39 q 209 -8 217 2 q 188 -23 202 -18 q 155 -27 175 -27 q 125 -15 131 -27 q 118 22 118 -4 q 121 63 118 41 q 127 106 123 84 q 134 150 130 128 q 141 191 138 172 q 155 297 149 246 q 169 400 162 349 q 181 504 175 452 q 194 613 187 557 q 211 791 205 701 q 221 959 217 882 q 226 987 221 973 q 239 1013 230 1001 q 260 1033 248 1025 q 288 1041 272 1041 q 321 1034 308 1041 q 340 1017 333 1027 q 349 997 347 1007 q 352 980 352 987 q 348 945 352 968 q 340 893 345 921 q 328 834 335 864 q 317 777 322 803 q 308 732 311 751 q 303 709 304 714 q 280 576 288 627 q 269 498 272 525 q 251 358 259 416 q 238 267 244 301 q 295 331 265 298 q 353 399 324 364 q 412 467 383 433 q 467 535 440 502 q 505 587 483 556 q 553 646 527 617 q 606 697 578 674 q 663 725 634 719 q 691 722 679 727 q 711 707 704 716 q 723 686 719 697 q 727 666 727 674 q 710 632 727 651 q 671 591 694 613 q 621 548 647 570 q 574 507 594 526 q 519 455 543 479 q 473 407 494 430 q 433 363 452 385 q 395 318 414 341 q 436 287 417 304 q 474 250 455 270 q 515 208 494 230 q 560 162 535 186 q 636 103 604 119 q 695 88 669 88 q 760 106 725 88 q 833 153 796 124 q 908 220 870 183 q 982 297 946 258 q 1048 374 1017 336 q 1103 441 1079 411 q 1142 488 1127 470 q 1159 506 1157 506 q 1169 501 1165 506 q 1176 490 1174 497 q 1179 476 1178 483 q 1180 463 1180 468 "},"Ù":{"x_min":121.40625,"x_max":1015.296875,"ha":1073,"o":"m 951 328 q 930 253 944 288 q 894 184 916 217 q 842 119 872 150 q 771 56 811 87 q 717 28 750 41 q 648 5 685 14 q 573 -8 611 -3 q 503 -13 535 -13 q 438 -5 475 -13 q 365 15 401 2 q 297 45 328 29 q 248 77 265 61 q 190 149 215 109 q 151 233 166 189 q 128 325 135 278 q 121 419 121 373 q 127 504 121 457 q 142 600 133 552 q 160 696 151 649 q 174 781 169 743 q 181 822 177 794 q 190 881 185 850 q 201 940 196 912 q 209 980 206 968 q 236 1025 217 1007 q 278 1043 254 1043 q 297 1032 288 1043 q 314 1009 307 1022 q 326 982 322 995 q 331 961 331 968 q 328 943 331 956 q 320 912 325 930 q 310 875 316 895 q 300 838 305 855 q 291 808 295 820 q 287 791 288 795 q 280 748 284 776 q 270 686 276 720 q 259 614 265 651 q 249 540 254 576 q 242 475 245 505 q 240 426 240 444 q 277 230 240 322 q 313 184 286 207 q 373 142 340 160 q 440 111 406 123 q 495 100 473 100 q 599 105 552 100 q 682 125 645 110 q 748 168 720 141 q 798 239 776 195 q 824 309 815 274 q 838 379 833 345 q 845 445 843 413 q 850 505 847 477 q 859 612 856 558 q 864 719 862 667 q 872 817 867 771 q 886 899 876 863 q 919 977 901 954 q 969 1001 937 1001 q 991 994 982 1001 q 1005 978 1000 988 q 1013 954 1011 967 q 1015 925 1015 940 q 1010 863 1015 899 q 1000 789 1006 826 q 988 716 994 751 q 978 658 982 681 q 971 588 972 625 q 969 510 970 551 q 964 423 967 469 q 951 328 961 378 m 727 1155 q 712 1122 727 1137 q 676 1108 697 1108 q 663 1112 674 1108 q 640 1127 652 1117 q 617 1146 632 1134 q 585 1172 602 1159 q 553 1199 569 1186 q 531 1216 537 1211 q 509 1232 526 1220 q 467 1260 491 1244 q 372 1354 372 1320 q 377 1367 372 1360 q 388 1380 381 1374 q 402 1390 394 1386 q 415 1394 409 1394 q 439 1388 425 1394 q 472 1370 454 1382 q 509 1340 493 1353 q 539 1315 524 1327 q 571 1288 554 1302 q 613 1258 588 1275 q 659 1226 639 1240 q 693 1203 679 1212 q 727 1155 727 1179 "},"Ů":{"x_min":121.40625,"x_max":1015.296875,"ha":1073,"o":"m 951 328 q 930 253 944 288 q 894 184 916 217 q 842 119 872 150 q 771 56 811 87 q 717 28 750 41 q 648 5 685 14 q 573 -8 611 -3 q 503 -13 535 -13 q 438 -5 475 -13 q 365 15 401 2 q 297 45 328 29 q 248 77 265 61 q 190 149 215 109 q 151 233 166 189 q 128 325 135 278 q 121 419 121 373 q 127 504 121 457 q 142 600 133 552 q 160 696 151 649 q 174 781 169 743 q 181 822 177 794 q 190 881 185 850 q 201 940 196 912 q 209 980 206 968 q 236 1025 217 1007 q 278 1043 254 1043 q 297 1032 288 1043 q 314 1009 307 1022 q 326 982 322 995 q 331 961 331 968 q 328 943 331 956 q 320 912 325 930 q 310 875 316 895 q 300 838 305 855 q 291 808 295 820 q 287 791 288 795 q 280 748 284 776 q 270 686 276 720 q 259 614 265 651 q 249 540 254 576 q 242 475 245 505 q 240 426 240 444 q 277 230 240 322 q 313 184 286 207 q 373 142 340 160 q 440 111 406 123 q 495 100 473 100 q 599 105 552 100 q 682 125 645 110 q 748 168 720 141 q 798 239 776 195 q 824 309 815 274 q 838 379 833 345 q 845 445 843 413 q 850 505 847 477 q 859 612 856 558 q 864 719 862 667 q 872 817 867 771 q 886 899 876 863 q 919 977 901 954 q 969 1001 937 1001 q 991 994 982 1001 q 1005 978 1000 988 q 1013 954 1011 967 q 1015 925 1015 940 q 1010 863 1015 899 q 1000 789 1006 826 q 988 716 994 751 q 978 658 982 681 q 971 588 972 625 q 969 510 970 551 q 964 423 967 469 q 951 328 961 378 m 837 1225 q 821 1161 838 1192 q 778 1105 805 1130 q 717 1066 751 1081 q 650 1052 683 1052 q 542 1095 586 1052 q 498 1202 498 1137 q 508 1252 497 1227 q 537 1298 519 1277 q 578 1335 555 1319 q 625 1356 601 1350 q 703 1368 665 1368 q 756 1352 723 1368 q 801 1322 788 1337 q 824 1276 811 1312 q 837 1225 837 1242 m 751 1212 q 743 1250 751 1225 q 727 1279 736 1274 q 704 1287 720 1283 q 682 1291 688 1291 q 671 1291 675 1291 q 663 1290 667 1291 q 654 1289 659 1290 q 641 1287 649 1288 q 621 1277 630 1286 q 604 1255 611 1267 q 593 1227 597 1242 q 589 1200 589 1212 q 611 1145 589 1173 q 658 1118 632 1118 q 690 1126 670 1118 q 719 1141 710 1134 q 751 1212 751 1166 "},"¢":{"x_min":80.703125,"x_max":637.53125,"ha":707,"o":"m 637 630 q 628 593 637 604 q 592 581 619 581 q 567 588 578 581 q 539 609 555 595 q 511 629 522 622 q 489 636 500 636 q 463 577 477 636 q 449 515 455 547 q 437 448 442 483 q 429 392 432 413 q 426 360 426 370 q 438 341 426 341 q 482 352 462 341 q 526 377 501 361 q 556 393 550 393 q 596 386 578 393 q 615 372 615 379 q 584 305 615 326 q 557 291 575 298 q 514 278 539 284 q 450 259 463 265 q 409 206 416 245 q 396 75 396 139 q 351 -6 396 -6 q 309 14 327 -6 q 293 61 293 36 q 307 140 293 80 q 326 222 322 201 q 267 230 316 225 q 228 234 242 233 q 208 237 213 236 q 122 305 164 246 q 80 411 80 366 q 91 495 80 460 q 128 577 102 530 q 193 632 140 596 q 239 662 220 651 q 270 678 259 674 q 307 688 288 683 q 346 697 326 692 q 389 714 386 706 q 409 825 398 726 q 414 873 413 852 q 416 908 416 893 q 472 951 416 951 q 490 946 482 951 q 504 933 498 941 q 513 916 510 925 q 516 897 516 906 q 514 870 516 885 q 511 848 512 856 q 499 793 509 832 q 489 737 489 754 q 507 728 493 734 q 542 712 520 721 q 612 674 587 693 q 637 630 637 655 m 388 632 q 227 548 291 600 q 162 415 162 495 q 172 383 161 401 q 200 348 183 364 q 234 320 216 331 q 265 309 252 308 q 278 311 269 309 q 300 315 286 312 q 331 326 328 321 q 344 351 341 335 q 366 499 349 399 q 381 581 375 548 q 388 632 386 615 "},"В":{"x_min":122.078125,"x_max":961.71875,"ha":1034,"o":"m 952 274 q 935 213 952 250 q 887 136 918 177 q 811 54 855 95 q 710 -18 766 14 q 589 -71 654 -50 q 450 -91 523 -91 q 422 -87 440 -91 q 386 -77 404 -84 q 355 -64 368 -71 q 341 -47 341 -56 q 351 -8 341 -24 q 377 18 360 8 q 415 33 393 28 q 462 37 437 37 q 493 37 477 37 q 524 36 508 36 q 577 44 546 36 q 642 66 609 52 q 710 101 676 80 q 770 146 744 121 q 813 202 796 172 q 830 265 830 231 q 818 319 830 289 q 783 375 807 349 q 721 418 758 400 q 631 435 683 435 q 604 428 621 435 q 566 413 586 421 q 529 398 547 404 q 500 391 510 391 q 461 393 476 391 q 437 402 446 396 q 424 421 428 409 q 421 453 421 433 q 439 475 421 464 q 482 498 457 486 q 535 520 507 509 q 582 542 562 531 q 637 578 609 558 q 693 622 666 598 q 744 670 720 645 q 787 718 769 695 q 815 764 805 742 q 826 801 826 785 q 818 833 826 816 q 793 863 810 849 q 750 885 776 876 q 686 894 723 894 q 627 891 660 894 q 559 884 594 889 q 490 872 524 878 q 430 857 457 865 q 386 840 403 849 q 366 823 368 832 q 357 772 363 807 q 342 690 350 737 q 326 588 335 643 q 308 476 317 533 q 291 365 299 419 q 278 265 284 310 q 268 186 272 219 q 265 141 265 153 q 267 91 265 115 q 269 45 269 67 q 263 0 269 17 q 245 -28 257 -17 q 217 -43 233 -39 q 179 -47 200 -47 q 153 -35 164 -47 q 135 -6 143 -23 q 125 27 128 10 q 122 54 122 44 q 127 89 122 65 q 144 158 133 113 q 164 263 154 204 q 183 385 174 322 q 200 507 192 447 q 213 616 208 568 q 222 693 219 663 q 225 725 225 723 q 222 754 225 744 q 213 771 219 765 q 200 778 208 777 q 182 780 191 780 q 171 780 177 780 q 159 779 165 779 q 139 793 149 779 q 129 825 129 807 q 149 861 129 841 q 207 900 170 880 q 299 937 245 919 q 420 969 353 955 q 565 991 486 983 q 731 1000 643 1000 q 820 982 778 1000 q 894 937 862 965 q 943 877 925 910 q 961 813 961 844 q 944 758 961 792 q 896 687 926 725 q 827 609 866 649 q 743 533 787 569 q 759 517 743 526 q 797 497 775 507 q 843 474 819 486 q 882 447 867 461 q 907 421 894 436 q 929 385 919 406 q 946 337 940 364 q 952 274 952 309 "},"І":{"x_min":103.765625,"x_max":368.296875,"ha":432,"o":"m 368 876 q 341 790 368 858 q 320 734 328 756 q 311 702 313 712 q 285 529 298 621 q 261 328 273 436 q 255 277 257 299 q 250 242 252 256 q 246 213 248 229 q 243 178 244 197 q 241 143 242 159 q 242 114 241 128 q 250 90 242 106 q 259 64 259 75 q 226 16 261 40 q 194 0 209 5 q 167 -7 180 -6 q 136 2 147 -7 q 114 35 123 15 q 105 70 105 56 q 104 155 103 113 q 110 242 105 198 q 123 341 115 286 q 143 463 131 396 q 159 550 151 509 q 174 628 167 591 q 191 711 182 665 q 212 815 201 758 q 219 850 216 836 q 223 872 221 864 q 228 897 225 882 q 236 937 231 913 q 241 955 236 945 q 251 975 245 966 q 266 992 258 985 q 281 999 274 999 q 311 993 295 1000 q 338 974 328 986 q 358 945 352 961 q 366 913 365 930 q 367 894 367 902 q 368 876 367 886 "},"ē":{"x_min":108.515625,"x_max":946.125,"ha":731,"o":"m 946 467 q 931 432 946 457 q 852 330 895 381 q 759 233 808 279 q 656 148 710 187 q 549 79 603 108 q 441 35 495 50 q 337 20 387 19 q 168 83 228 20 q 108 274 108 146 q 141 480 108 380 q 253 674 174 581 q 287 705 268 690 q 326 731 305 720 q 369 750 347 743 q 413 758 391 756 q 428 756 419 758 q 448 752 438 755 q 470 743 459 748 q 486 731 480 738 q 516 686 505 709 q 529 635 527 663 q 521 574 530 604 q 493 512 513 543 q 440 447 473 480 q 362 375 408 413 q 297 321 333 350 q 211 259 261 291 q 251 159 211 193 q 360 124 290 124 q 438 134 398 124 q 515 161 477 145 q 589 199 553 178 q 655 243 624 221 q 760 327 713 285 q 853 415 807 368 l 889 451 q 937 480 923 480 q 946 467 946 480 m 427 602 q 424 622 427 613 q 417 640 422 632 q 406 652 413 647 q 392 656 400 656 q 320 612 356 654 q 252 502 284 571 q 239 468 245 487 q 228 431 233 450 q 220 392 223 411 q 213 358 216 373 q 278 407 248 385 q 334 453 308 430 q 367 485 350 468 q 398 522 384 503 q 420 561 412 541 q 427 602 428 581 m 781 971 q 773 943 781 950 q 740 936 764 936 q 669 942 723 936 q 624 946 642 945 q 598 948 607 948 q 523 945 566 948 q 436 939 481 942 q 348 933 391 936 q 273 931 306 931 q 253 931 268 931 q 217 933 239 932 q 180 935 194 935 q 161 936 166 936 q 129 949 139 936 q 119 981 119 963 q 131 1009 119 997 q 161 1021 143 1021 q 175 1022 164 1021 q 207 1024 187 1023 q 241 1027 226 1026 q 265 1028 255 1028 q 294 1027 277 1028 q 333 1025 312 1026 q 376 1023 355 1024 q 416 1022 397 1022 q 507 1028 447 1022 q 561 1032 538 1031 q 601 1034 584 1034 q 669 1028 611 1034 q 716 1023 698 1024 q 740 1021 734 1021 q 769 1008 757 1021 q 781 971 781 995 "},"β":{"x_min":78.671875,"x_max":805.046875,"ha":867,"o":"m 369 -37 q 320 -31 342 -37 q 282 -15 298 -25 q 258 4 267 -6 q 250 26 250 15 q 251 38 250 31 q 256 53 252 46 q 266 65 260 60 q 283 70 273 70 q 300 68 291 70 q 320 65 308 67 q 348 61 331 63 q 391 59 366 59 q 492 78 440 59 q 588 129 544 96 q 659 207 631 162 q 687 307 687 253 q 668 364 687 342 q 622 397 649 385 q 568 413 596 408 q 521 417 539 417 q 485 410 503 417 q 452 395 468 404 q 421 377 436 386 q 394 361 406 367 q 374 351 384 356 q 359 346 364 346 q 345 350 354 346 q 327 362 336 355 q 311 378 318 369 q 305 398 305 387 q 315 427 305 413 q 343 455 326 442 q 367 470 353 463 q 397 482 382 476 q 425 493 412 488 q 445 505 438 499 q 496 557 470 524 q 545 632 522 590 q 582 721 567 674 q 596 817 596 769 q 571 910 596 879 q 504 942 546 942 q 442 918 472 942 q 386 850 413 894 q 335 742 359 805 q 291 600 311 678 q 252 428 270 521 q 220 232 235 335 q 209 146 214 192 q 200 53 204 101 q 194 -39 196 6 q 191 -126 191 -85 q 194 -175 191 -151 q 201 -218 198 -199 q 207 -250 204 -237 q 210 -269 210 -264 q 198 -293 210 -281 q 168 -305 185 -305 q 127 -285 144 -305 q 99 -238 110 -266 q 83 -180 88 -210 q 78 -128 78 -150 q 80 -71 78 -106 q 86 6 82 -35 q 94 94 89 48 q 105 183 99 140 q 176 568 136 407 q 268 833 217 729 q 383 986 320 937 q 523 1035 446 1035 q 602 1016 568 1035 q 659 968 636 998 q 694 899 682 937 q 706 820 706 860 q 694 735 706 776 q 665 656 683 693 q 624 586 647 618 q 578 528 602 554 q 574 524 577 527 q 568 517 571 520 q 561 510 564 514 q 558 505 558 507 q 558 498 558 500 q 563 495 559 495 q 663 478 618 491 q 739 442 708 465 q 788 388 771 420 q 805 316 805 357 q 788 221 805 267 q 741 137 771 176 q 671 65 712 97 q 581 10 630 33 q 479 -24 533 -12 q 369 -37 425 -37 "},"≠":{"x_min":83.421875,"x_max":723.65625,"ha":808,"o":"m 723 354 q 710 318 723 339 q 596 304 661 304 q 587 304 591 304 q 577 303 582 304 q 564 302 573 303 q 544 301 556 302 q 524 300 533 300 q 511 299 516 299 q 472 298 494 299 q 423 295 451 297 q 377 291 396 292 q 349 290 359 290 q 315 238 330 261 q 291 197 300 214 q 241 109 261 135 q 200 83 220 83 q 171 93 183 83 q 160 122 160 104 q 248 293 160 165 l 185 293 q 136 299 169 293 q 95 314 102 306 q 83 355 83 328 q 115 397 83 397 q 138 388 123 397 q 161 380 153 380 q 180 380 169 380 q 201 381 190 381 q 222 382 212 382 q 241 383 233 383 q 250 382 244 383 q 266 380 256 381 q 285 378 276 379 q 301 377 293 377 q 312 398 305 385 q 328 426 319 410 q 343 455 337 442 q 355 474 350 467 q 382 516 368 496 q 406 555 395 536 q 338 559 372 558 q 270 560 304 560 q 202 552 245 560 q 140 543 158 543 q 113 556 130 543 q 98 580 98 571 q 173 634 98 634 q 203 635 185 634 q 246 637 221 636 q 290 639 271 638 q 322 640 309 640 q 342 642 326 640 q 383 647 357 644 q 453 655 436 655 q 478 713 467 690 q 497 750 489 737 q 503 764 499 754 q 512 787 507 773 q 521 809 518 801 q 524 819 524 817 q 550 838 527 826 q 580 851 572 851 q 615 838 600 851 q 630 808 630 826 q 608 756 630 788 q 540 644 573 713 q 563 644 552 644 q 586 645 575 644 q 610 645 597 645 q 640 645 623 645 q 705 609 705 645 q 695 569 705 585 q 665 552 685 552 q 637 552 649 552 q 612 551 626 552 q 507 565 568 551 q 486 529 498 550 q 460 479 475 507 q 432 427 445 451 q 408 385 419 404 q 466 397 440 393 q 512 401 492 401 q 566 397 530 401 q 620 393 601 393 q 644 399 624 393 q 672 405 666 405 q 706 388 689 405 q 723 354 723 372 "},"‼":{"x_min":96.984375,"x_max":661.953125,"ha":762,"o":"m 347 963 q 343 927 347 947 q 333 886 339 908 q 322 844 328 865 q 314 804 316 822 q 279 619 293 710 q 254 438 265 529 q 252 408 252 422 q 251 383 252 395 q 247 359 250 370 q 238 337 244 348 q 220 339 233 337 q 193 342 208 340 q 167 348 179 345 q 151 356 155 352 q 150 371 150 362 q 149 392 149 380 q 153 465 149 426 q 163 546 157 505 q 178 629 170 587 q 192 712 185 671 q 202 792 198 753 q 206 866 206 831 q 207 886 206 873 q 212 914 209 900 q 218 942 215 929 q 225 961 221 954 q 237 975 229 967 q 255 991 245 984 q 276 1004 265 999 q 295 1009 286 1009 q 312 1006 303 1009 q 329 995 321 1002 q 342 981 337 989 q 347 963 347 972 m 238 136 q 229 75 238 124 q 218 54 227 65 q 195 34 208 44 q 169 19 183 25 q 147 13 155 13 q 96 79 96 13 q 103 106 96 89 q 120 139 109 122 q 143 166 130 155 q 169 176 156 177 q 189 172 177 177 q 212 162 201 168 q 231 148 223 155 q 238 136 239 141 m 419 63 q 423 77 419 71 q 426 85 426 83 q 425 99 426 90 q 423 113 423 107 q 433 142 423 128 q 458 166 443 156 q 490 182 473 177 q 520 188 506 188 q 543 179 535 188 q 556 158 552 170 q 562 131 560 145 q 564 106 564 117 q 564 95 564 99 q 565 85 564 90 q 557 68 565 79 q 536 47 549 57 q 506 29 522 36 q 475 21 491 21 q 433 29 446 21 q 419 63 419 36 m 462 446 q 465 477 462 457 q 472 522 467 497 q 482 576 477 548 q 493 630 487 604 q 502 679 498 657 q 508 716 506 701 q 523 828 516 769 q 549 958 531 887 q 574 999 556 987 q 617 1011 592 1011 q 635 1003 627 1011 q 649 983 643 994 q 658 960 655 972 q 661 941 661 948 q 659 903 661 924 q 652 861 656 883 q 643 820 648 840 q 636 784 639 800 q 626 737 632 763 q 612 684 619 711 q 599 629 605 657 q 590 576 593 601 q 582 523 585 545 q 576 480 580 500 q 563 440 571 460 q 540 392 555 419 q 518 375 533 381 q 489 368 503 368 q 472 376 478 368 q 464 395 467 383 q 462 420 462 406 q 462 446 462 434 "},"¥":{"x_min":47.46875,"x_max":869.484375,"ha":899,"o":"m 869 885 q 849 849 869 865 q 768 788 807 819 q 690 726 729 757 q 563 613 614 664 q 497 529 513 562 q 491 518 494 524 q 484 503 488 512 q 476 482 476 485 q 547 490 499 482 q 642 510 596 499 q 708 531 689 522 q 729 540 726 540 q 760 513 744 540 q 777 469 777 486 q 735 441 777 453 q 686 430 714 436 q 620 418 657 424 q 529 400 545 406 q 482 392 500 392 q 474 328 474 375 l 474 311 q 483 261 474 285 q 532 270 501 261 q 585 279 560 279 q 638 289 594 279 q 702 299 682 299 q 722 297 712 299 q 740 289 732 294 q 753 277 748 284 q 758 261 758 269 q 756 248 758 255 q 751 234 754 241 q 745 223 748 227 q 737 216 741 218 q 668 202 721 211 q 573 187 616 193 q 510 181 530 181 q 479 153 479 181 l 479 130 q 503 47 479 78 q 476 11 493 22 q 427 0 460 0 q 397 16 410 0 q 381 61 385 32 q 379 79 380 68 q 378 105 379 90 q 375 145 377 133 q 365 156 373 156 q 305 148 354 156 q 240 136 256 141 q 151 120 193 120 q 115 139 131 120 q 99 179 99 158 q 118 210 99 200 q 160 222 138 222 q 269 230 199 222 q 360 248 340 238 q 366 257 364 250 q 371 275 369 264 q 374 298 373 285 q 375 324 375 311 q 369 370 375 361 q 348 380 364 380 q 308 378 333 380 q 251 373 284 376 q 197 367 218 369 q 165 365 175 365 q 112 378 130 365 q 95 426 95 390 q 109 462 95 453 q 151 472 124 472 q 169 470 156 472 q 203 465 183 468 q 237 460 223 461 q 255 458 250 458 q 364 469 335 458 q 354 492 363 474 q 347 507 350 501 q 341 516 344 513 q 325 539 334 527 q 307 562 317 550 q 287 586 298 573 q 264 612 276 598 q 227 649 242 638 q 191 687 208 666 q 158 729 174 708 q 126 772 142 751 q 91 809 109 793 q 59 853 70 829 q 47 902 47 877 q 66 938 47 927 q 109 948 85 948 q 134 931 120 948 q 164 889 147 913 q 189 848 179 864 q 204 828 199 833 q 340 666 265 746 q 372 632 352 653 q 423 580 393 611 q 460 613 436 585 q 485 641 472 626 q 513 672 499 657 q 538 699 527 689 q 555 714 548 709 q 613 763 583 732 q 644 796 628 779 q 678 834 660 814 q 741 894 716 874 q 786 918 758 906 q 832 930 815 930 q 856 913 843 930 q 869 885 869 896 "},"Ĥ":{"x_min":112.125,"x_max":1089.5,"ha":1144,"o":"m 1089 1053 q 1085 992 1090 1028 q 1071 909 1080 956 q 1052 809 1063 863 q 1031 696 1041 755 q 1011 574 1020 636 q 998 448 1003 511 q 995 421 997 443 q 991 365 994 398 q 986 292 989 333 q 982 210 984 252 q 979 129 980 169 q 979 59 978 90 q 970 25 980 42 q 948 -3 961 9 q 921 -24 935 -16 q 897 -32 907 -32 q 879 -28 889 -32 q 860 -17 869 -25 q 844 0 851 -10 q 836 25 838 11 q 838 63 836 36 q 846 126 841 90 q 856 203 851 162 q 867 282 862 244 q 873 354 871 321 q 874 408 875 387 q 861 433 872 424 q 833 441 849 441 q 776 438 811 441 q 702 433 740 436 q 628 427 663 430 q 569 425 592 425 q 543 424 564 425 q 493 421 522 423 q 431 416 463 419 q 369 411 398 414 q 320 405 341 408 q 295 400 299 402 q 287 384 291 398 q 278 350 282 370 q 270 305 274 330 q 264 256 267 280 q 259 210 261 232 q 256 173 257 188 q 253 94 255 133 q 246 25 252 55 q 226 -24 240 -5 q 189 -43 213 -43 q 167 -34 180 -43 q 142 -11 154 -25 q 122 16 130 2 q 112 44 113 31 q 113 73 111 56 q 120 108 116 90 q 128 142 124 126 q 134 170 132 158 q 154 271 144 214 q 173 395 164 328 q 192 533 183 461 q 210 681 202 606 q 227 830 219 756 q 243 975 236 905 q 248 993 244 984 q 261 1009 253 1002 q 279 1020 269 1016 q 301 1022 290 1024 q 349 1000 334 1015 q 368 958 365 985 q 363 858 372 911 q 342 750 354 805 q 321 643 330 696 q 313 543 311 590 q 322 529 314 534 q 343 521 331 524 q 368 518 356 518 q 391 517 381 517 q 445 518 405 517 q 539 523 486 520 q 651 531 592 526 q 760 543 710 536 q 847 560 811 550 q 890 581 883 569 q 901 612 895 589 q 913 671 906 636 q 925 751 919 706 q 936 845 931 795 q 945 946 942 894 q 948 1048 948 998 q 953 1064 948 1054 q 969 1082 959 1073 q 991 1097 979 1091 q 1018 1104 1004 1104 q 1040 1101 1028 1104 q 1062 1091 1051 1098 q 1081 1076 1073 1085 q 1089 1053 1088 1066 m 895 1167 q 883 1138 895 1152 q 857 1125 871 1125 q 837 1132 847 1125 q 817 1150 827 1139 q 798 1173 807 1161 q 783 1195 789 1185 q 738 1254 769 1216 q 694 1318 707 1293 q 687 1332 690 1325 q 679 1346 683 1340 q 671 1357 675 1353 q 663 1361 667 1361 q 651 1355 656 1361 q 594 1296 617 1322 q 572 1273 583 1284 q 552 1250 561 1261 q 523 1219 542 1240 q 476 1168 505 1199 q 439 1149 456 1149 q 405 1207 405 1149 q 415 1242 405 1233 q 481 1304 454 1278 q 533 1350 508 1329 q 613 1429 580 1391 q 679 1476 652 1476 q 713 1445 692 1476 q 761 1362 734 1413 q 797 1301 788 1311 q 812 1285 800 1298 q 844 1250 824 1271 q 886 1202 884 1205 q 895 1167 895 1177 "},"U":{"x_min":121.40625,"x_max":1015.296875,"ha":1073,"o":"m 951 328 q 930 253 944 288 q 894 184 916 217 q 842 119 872 150 q 771 56 811 87 q 717 28 750 41 q 648 5 685 14 q 573 -8 611 -3 q 503 -13 535 -13 q 438 -5 475 -13 q 365 15 401 2 q 297 45 328 29 q 248 77 265 61 q 190 149 215 109 q 151 233 166 189 q 128 325 135 278 q 121 419 121 373 q 127 504 121 457 q 142 600 133 552 q 160 696 151 649 q 174 781 169 743 q 181 822 177 794 q 190 881 185 850 q 201 940 196 912 q 209 980 206 968 q 236 1025 217 1007 q 278 1043 254 1043 q 297 1032 288 1043 q 314 1009 307 1022 q 326 982 322 995 q 331 961 331 968 q 328 943 331 956 q 320 912 325 930 q 310 875 316 895 q 300 838 305 855 q 291 808 295 820 q 287 791 288 795 q 280 748 284 776 q 270 686 276 720 q 259 614 265 651 q 249 540 254 576 q 242 475 245 505 q 240 426 240 444 q 277 230 240 322 q 313 184 286 207 q 373 142 340 160 q 440 111 406 123 q 495 100 473 100 q 599 105 552 100 q 682 125 645 110 q 748 168 720 141 q 798 239 776 195 q 824 309 815 274 q 838 379 833 345 q 845 445 843 413 q 850 505 847 477 q 859 612 856 558 q 864 719 862 667 q 872 817 867 771 q 886 899 876 863 q 919 977 901 954 q 969 1001 937 1001 q 991 994 982 1001 q 1005 978 1000 988 q 1013 954 1011 967 q 1015 925 1015 940 q 1010 863 1015 899 q 1000 789 1006 826 q 988 716 994 751 q 978 658 982 681 q 971 588 972 625 q 969 510 970 551 q 964 423 967 469 q 951 328 961 378 "},"Ñ":{"x_min":117.859375,"x_max":1098.15625,"ha":1163,"o":"m 147 200 q 167 281 155 232 q 190 386 178 329 q 214 505 202 443 q 236 626 226 567 q 254 735 246 684 q 264 822 261 786 q 264 852 265 836 q 265 883 263 868 q 274 912 267 898 q 301 935 282 926 q 343 946 324 947 q 384 932 362 944 q 394 917 389 929 q 403 889 398 905 q 411 854 407 872 q 418 824 415 836 q 447 746 426 792 q 498 643 467 699 q 567 524 529 587 q 648 399 605 461 q 734 276 690 336 q 822 166 779 217 q 854 300 841 236 q 879 425 868 364 q 900 547 890 486 q 921 673 910 608 q 932 747 926 706 q 944 830 938 788 q 953 911 949 872 q 957 978 956 950 q 957 1001 957 990 q 958 1023 957 1013 q 963 1044 959 1034 q 975 1061 967 1053 q 1014 1085 996 1081 q 1051 1089 1032 1089 q 1069 1078 1061 1089 q 1083 1052 1077 1067 q 1093 1021 1089 1037 q 1098 996 1097 1005 q 1095 968 1098 987 q 1086 926 1091 948 q 1076 882 1081 904 q 1067 848 1070 860 q 1035 712 1051 786 q 1005 562 1020 638 q 978 413 990 486 q 955 282 965 341 q 941 186 946 224 q 936 140 935 147 q 937 117 937 130 q 937 91 937 104 q 937 68 937 79 q 938 50 937 56 q 935 22 940 34 q 924 2 931 10 q 908 -10 916 -5 q 891 -18 899 -15 q 871 -23 883 -21 q 848 -25 859 -25 q 827 -23 837 -25 q 813 -16 817 -21 q 770 30 787 8 q 747 75 752 53 q 740 91 746 82 q 728 111 735 101 q 716 129 722 121 q 706 143 710 138 q 619 258 661 200 q 533 382 576 316 q 446 523 490 448 q 354 688 402 598 q 320 543 335 620 q 293 393 305 467 q 271 253 281 319 q 255 140 262 187 q 253 106 253 126 q 253 66 253 86 q 252 28 253 46 q 246 0 250 10 q 236 -17 243 -7 q 220 -37 229 -27 q 200 -53 210 -46 q 179 -59 189 -59 q 148 -53 160 -59 q 131 -35 137 -47 q 122 -6 125 -23 q 118 34 120 11 q 119 62 117 43 q 126 105 122 82 q 136 153 130 128 q 147 200 141 179 m 958 1292 q 940 1245 958 1275 q 921 1216 931 1230 q 897 1186 910 1201 q 856 1148 872 1157 q 819 1138 841 1138 q 775 1143 794 1138 q 739 1157 755 1147 q 722 1169 732 1161 q 699 1187 712 1176 q 681 1204 687 1198 q 673 1210 674 1209 q 654 1228 663 1220 q 638 1244 646 1237 q 620 1255 630 1251 q 598 1259 611 1259 q 575 1255 585 1259 q 555 1243 565 1251 q 534 1222 545 1235 q 509 1194 522 1210 q 485 1165 495 1178 q 466 1145 475 1153 q 447 1134 457 1138 q 428 1130 438 1130 q 407 1140 415 1130 q 399 1163 399 1149 q 432 1236 399 1192 q 507 1313 465 1280 q 580 1346 551 1346 q 645 1337 624 1346 q 667 1323 656 1332 q 691 1302 678 1315 q 715 1279 704 1289 q 735 1263 726 1270 q 754 1249 744 1257 q 774 1236 765 1242 q 793 1225 784 1229 q 809 1220 802 1220 q 841 1234 826 1220 q 870 1268 856 1248 q 885 1289 878 1279 q 900 1308 893 1299 q 925 1328 916 1328 q 949 1318 941 1328 q 958 1292 958 1308 "},"F":{"x_min":118.640625,"x_max":877.125,"ha":809,"o":"m 832 891 q 806 885 823 885 q 770 886 789 884 q 734 890 751 888 q 706 891 716 892 q 661 889 691 891 q 593 882 631 887 q 514 871 555 877 q 438 857 474 864 q 378 842 403 849 q 346 827 353 834 q 337 805 343 824 q 323 757 330 786 q 308 690 316 727 q 295 611 301 652 q 286 529 289 571 q 284 451 282 488 q 379 474 331 464 q 484 495 427 484 q 541 510 511 500 q 602 528 572 519 q 659 544 632 537 q 707 551 687 551 q 737 548 725 551 q 758 537 750 544 q 771 519 766 530 q 779 492 775 507 q 776 481 780 487 q 766 467 772 474 q 753 454 759 460 q 743 444 746 448 q 716 430 735 436 q 675 419 697 423 q 633 411 653 414 q 602 405 612 407 q 530 391 567 398 q 456 376 492 384 q 386 361 419 368 q 328 346 354 354 q 286 332 302 339 q 267 319 270 325 q 259 287 262 307 q 253 245 255 268 q 250 196 250 221 q 249 145 249 170 q 249 96 248 120 q 250 56 250 73 q 251 12 250 33 q 248 -30 252 -9 q 231 -53 243 -45 q 193 -59 219 -61 q 178 -54 190 -59 q 152 -40 166 -50 q 129 -15 139 -30 q 118 19 118 -1 q 126 174 118 101 q 143 319 134 247 q 159 439 150 377 q 177 564 168 501 q 196 690 186 628 q 213 809 205 752 q 212 831 215 820 q 207 854 210 843 q 200 876 204 865 q 194 898 196 887 q 199 920 193 908 q 214 941 205 931 q 235 957 224 951 q 255 963 246 964 q 280 960 269 962 q 301 956 291 958 q 322 954 311 955 q 343 953 332 953 q 388 956 363 953 q 441 965 414 960 q 497 976 469 970 q 550 986 525 982 q 688 1009 625 1000 q 804 1018 751 1018 q 824 1014 812 1018 q 847 1004 836 1010 q 867 990 859 998 q 876 974 876 982 q 869 934 878 956 q 832 891 861 911 "},"Ќ":{"x_min":103.09375,"x_max":1039.03125,"ha":1031,"o":"m 1039 96 q 1027 76 1039 86 q 1001 57 1015 65 q 972 43 986 48 q 954 38 958 38 q 932 44 948 38 q 894 59 916 50 q 847 79 872 67 q 796 101 821 90 q 750 123 771 113 q 714 139 728 132 q 646 175 685 153 q 564 221 607 197 q 478 269 521 245 q 398 313 434 293 q 334 344 361 332 q 295 356 306 356 q 274 351 284 356 q 255 339 263 346 q 238 280 244 310 q 229 211 233 250 q 229 196 229 206 q 228 172 228 185 q 227 147 227 159 q 227 130 227 136 q 227 91 227 113 q 224 48 226 69 q 218 5 222 26 q 206 -31 213 -15 q 189 -57 200 -48 q 164 -67 179 -67 q 137 -60 148 -67 q 118 -41 125 -52 q 106 -16 110 -30 q 103 9 103 -2 q 104 35 103 23 q 108 60 106 47 q 112 86 110 72 q 115 115 114 99 q 128 323 123 211 q 139 548 134 435 q 144 636 141 589 q 150 732 147 682 q 159 831 154 781 q 170 927 164 881 q 176 952 172 937 q 188 981 181 967 q 205 1006 195 995 q 229 1016 215 1016 q 256 1006 245 1016 q 274 982 267 996 q 284 950 281 967 q 287 917 287 932 q 274 837 280 879 q 264 754 268 796 q 257 670 260 712 q 252 590 254 628 q 251 556 252 571 q 250 528 250 542 q 248 496 249 513 q 246 453 247 478 q 248 446 246 446 q 257 451 252 446 q 270 460 259 452 q 297 481 281 468 q 332 509 313 493 q 370 541 352 524 q 406 574 389 558 q 434 604 423 590 q 471 645 450 623 q 515 693 492 668 q 563 745 539 718 q 611 803 588 773 q 629 833 620 813 q 649 873 638 853 q 677 907 661 893 q 719 922 694 922 q 732 915 722 922 q 750 899 741 908 q 766 879 759 889 q 773 861 773 868 q 768 841 773 853 q 755 817 763 830 q 738 794 747 805 q 723 773 729 782 q 684 724 706 749 q 640 674 663 698 q 595 626 617 649 q 551 581 572 602 q 521 551 540 571 q 480 511 501 532 q 437 468 458 489 q 404 432 417 446 q 431 416 408 428 q 486 388 455 404 q 549 356 517 373 q 602 327 581 339 q 684 283 641 305 q 772 240 727 261 q 861 199 816 219 q 947 161 905 179 q 973 154 957 157 q 1003 147 988 152 q 1028 130 1018 141 q 1039 96 1039 119 m 780 1389 q 768 1368 780 1382 q 744 1350 763 1363 q 700 1322 725 1338 q 648 1290 675 1307 q 603 1260 622 1273 q 543 1218 572 1239 q 483 1178 513 1197 q 477 1174 482 1177 q 466 1167 472 1171 q 454 1160 460 1164 q 448 1157 449 1157 q 431 1162 439 1157 q 418 1173 424 1166 q 409 1187 412 1179 q 405 1203 405 1195 q 491 1293 405 1232 q 643 1391 577 1353 q 679 1412 666 1404 q 702 1428 692 1421 q 722 1440 712 1435 q 742 1444 732 1444 q 751 1439 744 1444 q 764 1426 757 1434 q 775 1409 770 1419 q 780 1389 780 1400 "},"å":{"x_min":46.125,"x_max":1119.0625,"ha":911,"o":"m 1119 461 q 1117 442 1119 453 q 1111 419 1115 431 q 1103 397 1107 408 q 1093 381 1098 387 q 1082 366 1089 375 q 1064 346 1074 357 q 1044 323 1055 335 q 1020 301 1032 311 q 938 226 978 262 q 855 162 897 189 q 766 117 812 134 q 665 101 719 101 q 614 110 640 101 q 566 137 589 120 q 528 177 544 153 q 505 229 512 201 q 463 187 485 209 q 418 143 442 165 q 370 99 395 120 q 318 61 345 78 q 283 40 303 51 q 239 20 262 29 q 194 5 217 11 q 153 0 171 0 q 105 17 125 0 q 72 59 85 34 q 52 113 59 84 q 46 164 46 141 q 59 255 46 208 q 92 346 71 302 q 138 431 113 391 q 188 502 164 471 q 249 567 214 535 q 322 624 284 599 q 397 666 360 650 q 462 681 434 681 q 492 681 476 681 q 524 679 508 681 q 554 674 539 678 q 581 663 569 670 q 596 647 588 659 q 611 621 604 636 q 623 593 618 607 q 628 571 628 579 q 617 511 628 548 q 597 426 607 464 q 588 347 588 387 q 596 300 588 324 q 617 256 603 276 q 651 224 631 236 q 696 211 671 211 q 781 228 737 211 q 869 276 824 246 q 957 346 913 306 q 1044 430 1001 385 q 1056 444 1047 434 q 1073 464 1064 454 q 1091 481 1083 474 q 1104 489 1100 489 q 1119 461 1119 489 m 515 518 q 514 546 515 529 q 505 574 512 563 q 486 584 497 585 q 465 584 476 584 q 419 577 441 584 q 376 556 397 569 q 336 525 355 543 q 298 489 316 508 q 265 451 282 474 q 231 400 248 427 q 199 342 215 373 q 172 283 183 312 q 153 226 160 253 q 147 176 147 198 q 148 158 147 169 q 154 136 150 147 q 164 118 158 126 q 180 111 170 111 q 258 130 211 111 q 374 205 322 158 q 462 314 425 252 q 515 518 515 409 m 652 919 q 636 855 653 886 q 593 799 620 824 q 532 760 566 775 q 465 746 498 746 q 357 789 401 746 q 313 896 313 831 q 323 946 312 921 q 352 992 334 971 q 393 1029 370 1013 q 440 1050 416 1044 q 518 1062 480 1062 q 571 1046 538 1062 q 616 1016 603 1031 q 639 970 626 1006 q 652 919 652 936 m 566 906 q 558 944 566 919 q 542 973 551 968 q 519 981 535 977 q 497 985 503 985 q 486 985 490 985 q 478 984 482 985 q 469 983 474 984 q 456 981 464 982 q 436 971 445 980 q 419 949 426 961 q 408 921 412 936 q 404 894 404 906 q 426 839 404 867 q 473 812 447 812 q 505 820 485 812 q 534 835 525 828 q 566 906 566 860 "},"Ϋ":{"x_min":7.453125,"x_max":1127.890625,"ha":1098,"o":"m 1076 821 q 1052 829 1062 821 q 1037 851 1043 838 q 1008 892 1026 877 q 971 906 991 906 q 920 885 952 906 q 851 827 888 864 q 724 666 788 761 q 601 457 661 571 q 569 381 581 418 q 550 302 556 345 q 540 204 543 259 q 535 76 537 150 q 529 25 534 50 q 513 -18 524 0 q 487 -49 503 -37 q 448 -61 471 -61 q 416 -55 430 -61 q 394 -41 403 -50 q 381 -21 385 -31 q 377 0 377 -10 q 382 24 377 9 q 392 56 387 38 q 421 189 413 124 q 430 325 430 254 q 428 389 430 361 q 422 448 427 418 q 408 516 417 479 q 385 607 400 554 q 368 662 379 632 q 345 722 358 692 q 316 782 332 753 q 280 833 299 811 q 238 868 261 855 q 189 881 215 881 q 151 875 169 881 q 109 855 132 870 q 98 845 106 853 q 80 828 89 836 q 64 812 71 819 q 53 805 56 805 q 28 813 37 805 q 14 831 18 820 q 8 853 10 841 q 7 874 7 865 q 22 923 7 900 q 62 963 36 946 q 122 990 88 980 q 197 1000 157 1000 q 276 987 240 1000 q 341 946 311 973 q 396 876 370 918 q 443 777 421 834 q 467 712 457 743 q 486 652 478 680 q 502 596 495 623 q 516 542 510 569 q 521 527 518 535 q 526 519 524 519 q 532 526 529 519 q 539 539 535 533 q 589 632 562 582 q 647 730 617 681 q 708 824 676 779 q 770 902 739 868 q 875 987 821 956 q 986 1018 930 1018 q 1040 1006 1014 1018 q 1085 974 1066 993 q 1116 934 1104 956 q 1127 894 1127 912 q 1124 870 1127 883 q 1115 846 1121 857 q 1099 828 1109 835 q 1076 821 1089 821 m 794 1115 q 727 1047 794 1047 q 689 1063 705 1047 q 672 1102 672 1079 q 687 1140 672 1131 q 743 1160 702 1149 q 759 1164 754 1164 q 785 1149 776 1164 q 794 1115 794 1135 m 541 1054 q 480 1026 541 1026 q 439 1035 466 1026 q 413 1059 413 1044 q 414 1089 413 1075 q 420 1114 416 1103 q 433 1130 425 1124 q 455 1136 442 1136 q 518 1114 495 1136 q 541 1054 541 1092 "},"0":{"x_min":13.5625,"x_max":989.53125,"ha":1015,"o":"m 989 529 q 931 350 989 440 q 779 185 872 260 q 583 59 687 109 q 395 -2 480 10 q 240 -16 290 -16 q 72 56 132 -16 q 13 241 13 130 q 47 426 13 326 q 141 614 82 526 q 270 756 202 703 q 442 866 351 821 q 616 910 534 910 q 754 878 682 910 q 883 797 826 847 q 925 756 916 767 q 989 529 989 676 m 874 507 q 862 597 874 545 q 830 672 849 650 q 802 703 817 687 q 771 736 788 719 q 717 779 739 769 q 668 759 701 759 q 642 774 663 759 q 603 790 621 790 q 524 781 564 790 q 459 756 482 773 q 374 690 421 732 q 210 496 276 604 q 145 276 145 389 q 155 189 145 231 q 193 130 166 147 q 324 95 251 95 q 505 147 395 95 q 644 230 575 182 q 692 267 667 247 q 742 311 716 287 q 834 411 795 358 q 874 507 874 465 "},"ō":{"x_min":54.265625,"x_max":1061.421875,"ha":803,"o":"m 1061 568 q 1056 544 1061 556 q 1043 521 1051 533 q 1025 500 1034 510 q 1005 484 1015 491 q 937 457 981 469 q 829 445 893 445 q 725 458 777 445 q 625 502 673 472 q 645 457 640 478 q 649 405 649 435 q 622 291 649 352 q 554 178 596 230 q 465 91 512 126 q 407 57 438 71 q 341 33 375 42 q 269 20 306 24 q 193 15 231 15 q 142 32 167 15 q 97 73 117 49 q 66 126 78 98 q 54 176 54 153 q 68 281 54 231 q 108 379 83 332 q 165 471 132 426 q 234 561 198 516 q 281 610 255 586 q 335 653 307 634 q 393 684 364 672 q 448 696 422 696 q 486 690 470 696 q 515 673 501 684 q 544 644 529 661 q 577 607 558 628 q 611 589 583 600 q 676 565 638 577 q 755 546 714 554 q 830 537 796 537 q 893 540 864 537 q 948 548 921 542 q 1001 562 975 553 q 1058 585 1028 572 q 1061 568 1061 575 m 554 405 q 552 448 555 424 q 540 494 548 472 q 517 529 531 515 q 483 539 503 542 q 432 565 452 552 q 400 579 411 579 q 383 574 392 579 q 363 560 373 569 q 342 539 353 551 q 322 514 332 527 q 284 466 301 488 q 251 423 267 444 q 222 378 236 402 q 193 326 208 355 q 183 297 187 314 q 174 262 178 280 q 169 226 171 244 q 168 193 168 208 q 174 172 168 185 q 190 148 180 160 q 212 128 200 136 q 237 120 225 120 q 296 123 271 120 q 341 133 320 126 q 383 155 362 141 q 432 190 404 168 q 458 214 445 200 q 484 243 472 227 q 509 274 497 258 q 531 305 520 290 q 542 330 537 316 q 550 360 547 345 q 553 387 552 375 q 554 405 554 400 m 825 933 q 817 905 825 912 q 784 898 808 898 q 713 904 767 898 q 668 908 686 907 q 642 910 651 910 q 567 907 610 910 q 480 901 525 904 q 392 895 435 898 q 317 893 350 893 q 297 893 312 893 q 261 895 283 894 q 224 897 238 897 q 205 898 210 898 q 173 911 183 898 q 163 943 163 925 q 175 971 163 959 q 205 983 187 983 q 219 984 208 983 q 251 986 231 985 q 285 989 270 988 q 309 990 299 990 q 338 989 321 990 q 377 987 356 988 q 420 985 399 986 q 460 984 441 984 q 551 990 491 984 q 605 994 582 993 q 645 996 628 996 q 713 990 655 996 q 760 985 742 986 q 784 983 778 983 q 813 970 801 983 q 825 933 825 957 "},"”":{"x_min":73.921875,"x_max":720.953125,"ha":798,"o":"m 720 886 q 701 777 720 846 q 651 651 683 707 q 583 597 619 597 q 549 609 563 597 q 534 640 534 620 q 541 672 534 655 q 559 698 549 689 q 611 765 595 730 q 626 847 626 799 q 609 884 626 862 q 590 906 600 895 q 567 928 579 916 q 543 955 543 951 q 542 967 543 962 q 541 978 542 971 q 540 995 541 986 q 539 1010 539 1004 q 539 1016 539 1013 q 540 1023 539 1020 q 569 1041 543 1030 q 607 1052 593 1052 q 648 1020 615 1052 q 690 976 680 988 q 714 937 708 954 q 720 886 720 921 m 297 865 q 291 819 297 845 q 278 767 286 793 q 259 716 269 741 q 237 673 248 691 q 181 639 232 665 q 122 613 130 613 q 103 617 111 613 q 88 628 94 621 q 77 644 81 635 q 73 662 73 653 q 88 702 73 691 q 130 722 103 713 q 169 741 160 732 q 182 760 176 749 q 194 785 189 771 q 206 834 206 814 q 196 861 206 845 q 169 895 185 876 q 144 925 153 913 q 134 942 134 936 q 142 994 134 967 q 173 1019 150 1019 q 210 996 189 1019 l 234 972 q 282 927 268 948 q 297 865 297 906 "},"ö":{"x_min":54.265625,"x_max":1061.421875,"ha":803,"o":"m 1061 568 q 1056 544 1061 556 q 1043 521 1051 533 q 1025 500 1034 510 q 1005 484 1015 491 q 937 457 981 469 q 829 445 893 445 q 725 458 777 445 q 625 502 673 472 q 645 457 640 478 q 649 405 649 435 q 622 291 649 352 q 554 178 596 230 q 465 91 512 126 q 407 57 438 71 q 341 33 375 42 q 269 20 306 24 q 193 15 231 15 q 142 32 167 15 q 97 73 117 49 q 66 126 78 98 q 54 176 54 153 q 68 281 54 231 q 108 379 83 332 q 165 471 132 426 q 234 561 198 516 q 281 610 255 586 q 335 653 307 634 q 393 684 364 672 q 448 696 422 696 q 486 690 470 696 q 515 673 501 684 q 544 644 529 661 q 577 607 558 628 q 611 589 583 600 q 676 565 638 577 q 755 546 714 554 q 830 537 796 537 q 893 540 864 537 q 948 548 921 542 q 1001 562 975 553 q 1058 585 1028 572 q 1061 568 1061 575 m 554 405 q 552 448 555 424 q 540 494 548 472 q 517 529 531 515 q 483 539 503 542 q 432 565 452 552 q 400 579 411 579 q 383 574 392 579 q 363 560 373 569 q 342 539 353 551 q 322 514 332 527 q 284 466 301 488 q 251 423 267 444 q 222 378 236 402 q 193 326 208 355 q 183 297 187 314 q 174 262 178 280 q 169 226 171 244 q 168 193 168 208 q 174 172 168 185 q 190 148 180 160 q 212 128 200 136 q 237 120 225 120 q 296 123 271 120 q 341 133 320 126 q 383 155 362 141 q 432 190 404 168 q 458 214 445 200 q 484 243 472 227 q 509 274 497 258 q 531 305 520 290 q 542 330 537 316 q 550 360 547 345 q 553 387 552 375 q 554 405 554 400 m 613 896 q 546 828 613 828 q 508 844 524 828 q 491 883 491 860 q 506 921 491 912 q 562 941 521 930 q 578 945 573 945 q 604 930 595 945 q 613 896 613 916 m 360 835 q 299 807 360 807 q 258 816 285 807 q 232 840 232 825 q 233 870 232 856 q 239 895 235 884 q 252 911 244 905 q 274 917 261 917 q 337 895 314 917 q 360 835 360 873 "},"ć":{"x_min":79.140625,"x_max":971.046875,"ha":729,"o":"m 971 466 q 953 422 971 442 q 934 404 947 415 q 911 383 921 393 l 848 320 q 816 289 831 303 q 789 265 800 275 q 742 226 769 248 q 678 173 714 203 q 548 78 608 115 q 420 19 488 41 q 276 -2 352 -2 q 192 13 229 -4 q 130 61 155 31 q 91 132 104 91 q 79 218 78 172 q 117 398 79 308 q 219 576 155 489 q 303 664 254 622 q 390 706 351 706 q 438 671 411 706 q 464 633 452 653 q 486 591 476 613 q 507 527 507 547 q 494 476 507 507 q 465 445 482 445 q 425 478 441 445 q 413 507 416 495 q 404 533 409 519 q 378 591 389 573 q 303 547 333 583 q 274 504 289 529 q 241 448 258 480 q 216 394 228 424 q 197 331 205 363 q 184 266 189 299 q 179 206 179 234 q 213 130 179 167 q 288 94 248 94 q 452 124 374 94 q 602 206 530 155 q 747 322 673 255 q 816 384 783 355 q 879 441 849 414 q 961 484 928 484 q 971 466 971 484 m 642 1013 q 630 992 642 1006 q 606 974 625 987 q 562 946 587 962 q 510 914 537 931 q 465 884 484 897 q 405 842 434 863 q 345 802 375 821 q 339 798 344 801 q 328 791 334 795 q 316 784 322 788 q 310 781 311 781 q 293 786 301 781 q 280 797 286 790 q 271 811 274 803 q 267 827 267 819 q 353 917 267 856 q 505 1015 439 977 q 541 1036 528 1028 q 564 1052 554 1045 q 584 1064 574 1059 q 604 1068 594 1068 q 613 1063 606 1068 q 626 1050 619 1058 q 637 1033 632 1043 q 642 1013 642 1024 "},"þ":{"x_min":101.734375,"x_max":1133.3125,"ha":936,"o":"m 1133 462 q 1077 398 1133 442 q 1023 358 1049 377 q 971 323 996 339 q 883 275 933 301 q 769 218 833 248 q 642 161 705 187 q 516 112 579 135 q 326 67 390 67 q 294 77 309 67 q 278 87 280 87 q 263 72 269 87 q 254 42 257 58 q 236 -70 241 -18 q 227 -177 230 -122 q 221 -239 225 -212 q 212 -288 217 -267 q 153 -360 195 -360 q 127 -354 137 -360 q 111 -337 116 -348 q 103 -309 105 -325 q 101 -273 101 -293 q 102 -245 101 -259 q 105 -215 103 -230 q 108 -186 106 -200 q 112 -158 110 -172 q 117 -128 114 -145 q 123 -92 120 -112 q 145 61 139 0 q 153 133 150 101 q 158 193 156 166 q 163 257 160 219 q 169 344 166 295 q 176 430 172 394 q 181 490 179 466 q 199 641 189 569 q 219 779 208 713 q 261 982 244 931 q 270 1009 265 998 q 281 1028 275 1021 q 295 1039 286 1036 q 315 1043 303 1043 q 341 1020 335 1043 q 348 931 348 999 q 334 769 348 851 q 317 673 327 729 q 293 545 306 617 q 287 521 290 535 q 281 491 284 507 q 275 461 278 474 q 271 440 273 448 q 266 390 269 413 q 263 351 264 368 q 259 315 261 334 q 255 276 257 297 q 291 346 274 313 q 326 410 309 379 q 407 534 360 470 q 510 644 455 599 q 619 690 566 690 q 686 680 651 690 q 749 650 720 670 q 795 602 777 630 q 813 539 813 574 q 786 434 813 480 q 696 324 758 387 q 647 274 665 293 q 622 247 628 255 q 666 262 640 252 q 729 288 693 273 q 1004 430 878 357 q 1023 443 1009 434 q 1063 470 1038 453 q 1115 503 1113 503 q 1133 476 1133 503 l 1133 462 m 695 531 q 687 551 695 541 q 666 567 678 560 q 640 578 654 574 q 615 583 626 583 q 532 545 576 583 q 446 453 487 507 q 371 344 406 400 q 341 293 354 316 q 319 251 328 270 q 309 229 315 242 q 297 205 303 217 q 288 183 292 193 q 284 166 284 172 q 288 145 284 150 q 308 140 293 140 q 361 152 330 139 q 425 187 392 166 q 491 235 458 208 q 550 286 523 261 q 695 531 695 425 "},"]":{"x_min":-12.890625,"x_max":529.015625,"ha":582,"o":"m 529 1026 q 507 950 529 988 q 491 911 497 934 q 478 849 484 887 q 466 776 475 829 q 442 634 457 723 q 412 444 421 515 q 409 414 411 430 q 406 377 408 397 q 404 318 405 358 q 401 217 402 278 q 399 120 400 156 q 396 69 398 83 q 392 9 394 42 q 389 -61 390 -23 q 387 -123 387 -101 q 386 -152 386 -145 q 387 -178 386 -163 q 392 -210 389 -192 q 398 -267 398 -246 q 338 -324 398 -324 q 284 -318 319 -324 q 251 -314 266 -316 q 225 -313 237 -313 q 186 -315 210 -313 q 129 -320 162 -317 q 39 -328 64 -328 q 6 -318 25 -328 q -12 -295 -12 -308 q 0 -231 -12 -259 q 41 -203 10 -203 q 65 -204 51 -203 q 91 -205 78 -204 q 115 -207 105 -206 q 132 -208 126 -208 q 184 -202 146 -208 q 217 -198 203 -199 q 240 -196 231 -196 q 250 -195 246 -196 q 262 -195 255 -195 q 278 -199 273 -195 q 292 -185 284 -198 l 292 64 q 296 204 292 93 q 304 356 300 316 q 309 400 306 377 q 315 446 312 423 q 321 494 318 470 q 326 539 324 517 q 333 586 327 545 q 348 700 338 626 q 365 819 358 775 q 376 878 373 864 q 381 891 377 883 q 389 912 384 900 q 401 947 401 937 q 384 966 401 966 q 267 958 316 966 q 210 944 253 954 q 147 933 170 933 q 101 946 128 933 q 73 975 73 959 q 98 1030 73 998 q 144 1064 122 1064 q 157 1063 149 1064 q 174 1061 164 1062 q 192 1059 185 1060 q 204 1058 199 1058 q 221 1060 208 1058 q 256 1064 234 1061 q 297 1069 278 1067 q 335 1074 317 1072 q 372 1080 353 1077 q 411 1085 392 1082 q 445 1089 432 1087 q 463 1090 458 1090 q 507 1068 486 1090 q 529 1026 529 1047 "},"А":{"x_min":2.71875,"x_max":1184.859375,"ha":1162,"o":"m 767 448 q 747 499 760 465 q 720 576 735 534 q 689 664 705 619 q 659 748 673 710 q 635 812 645 786 q 620 841 624 838 q 564 731 596 789 q 498 613 533 673 q 430 493 464 553 q 367 376 396 433 q 384 384 372 381 q 413 389 397 387 q 445 394 429 392 q 473 397 461 396 q 534 406 499 400 q 607 421 568 413 q 686 436 645 429 q 767 448 727 444 m 1184 -21 q 1179 -52 1184 -37 q 1165 -80 1174 -68 q 1144 -98 1156 -91 q 1117 -105 1131 -105 q 1076 -91 1098 -105 q 1032 -53 1054 -77 q 989 -1 1011 -30 q 949 57 968 27 q 914 116 930 88 q 887 165 897 144 q 871 196 880 178 q 854 232 863 213 q 835 270 845 251 q 818 304 826 289 q 803 328 810 319 q 792 337 796 337 q 753 334 782 337 q 686 324 724 330 q 608 311 649 318 q 534 297 567 304 q 497 287 522 294 q 443 272 472 280 q 389 258 415 264 q 351 252 363 252 q 322 257 334 252 q 301 262 310 262 q 272 240 288 262 q 238 186 256 219 q 199 116 219 154 q 159 46 179 78 q 118 -7 139 14 q 78 -29 98 -29 q 56 -23 69 -29 q 31 -7 43 -17 q 11 14 19 2 q 2 38 2 26 q 22 89 2 57 q 79 173 42 121 q 171 302 117 225 q 294 487 225 379 q 344 573 315 520 q 405 687 373 626 q 473 810 438 748 q 540 923 508 872 q 601 1004 573 973 q 649 1036 630 1036 q 689 1031 671 1036 q 722 1011 707 1026 q 727 998 725 1007 q 729 976 729 988 q 722 930 729 949 q 732 900 726 918 q 745 859 737 881 q 760 812 752 836 q 779 763 769 787 q 810 684 794 727 q 843 593 826 640 q 878 496 860 545 q 917 397 897 446 q 949 327 929 369 q 992 243 969 286 q 1040 164 1015 200 q 1084 109 1064 127 q 1123 74 1104 91 q 1155 41 1141 57 q 1176 9 1168 25 q 1184 -21 1184 -6 "},"′":{"x_min":90.203125,"x_max":265.1875,"ha":321,"o":"m 265 951 q 249 899 265 933 q 237 871 242 882 q 231 854 233 859 q 225 831 230 848 q 212 786 221 814 q 193 702 196 728 q 190 677 191 692 q 189 640 189 661 q 189 604 189 619 q 187 579 188 589 q 174 534 183 550 q 141 518 165 518 q 105 547 120 518 q 90 601 90 576 q 90 617 90 609 q 91 631 90 624 q 94 650 92 638 q 97 677 95 661 q 105 728 102 709 q 111 765 108 748 q 126 830 115 794 q 153 912 136 867 q 222 1003 186 1003 q 253 987 242 1003 q 265 951 265 972 "},"Ы":{"x_min":132.25,"x_max":1227.578125,"ha":1348,"o":"m 1227 975 q 1224 952 1227 963 q 1218 928 1222 940 q 1212 904 1215 916 q 1208 880 1209 892 q 1200 787 1205 834 q 1189 693 1195 740 q 1179 600 1184 647 q 1174 507 1174 553 q 1172 477 1174 501 q 1168 419 1170 453 q 1163 344 1165 385 q 1158 265 1160 304 q 1153 193 1155 227 q 1151 139 1151 160 q 1148 105 1151 123 q 1138 72 1145 87 q 1118 46 1131 56 q 1087 35 1106 35 q 1054 42 1067 35 q 1035 61 1042 49 q 1025 87 1028 72 q 1023 118 1023 101 q 1025 153 1023 134 q 1028 191 1026 172 q 1031 229 1030 210 q 1033 265 1033 248 q 1036 332 1034 301 q 1041 392 1039 362 q 1046 450 1044 421 q 1049 514 1049 479 q 1051 532 1049 516 q 1055 570 1053 548 q 1060 614 1058 592 q 1064 653 1062 637 q 1067 699 1066 672 q 1071 756 1069 726 q 1076 819 1073 787 q 1081 883 1078 852 q 1091 939 1085 912 q 1107 986 1097 966 q 1132 1017 1117 1005 q 1169 1029 1147 1029 q 1189 1025 1179 1029 q 1208 1013 1200 1020 q 1222 995 1217 1005 q 1227 975 1227 986 m 873 360 q 854 270 872 314 q 806 190 836 227 q 736 122 776 153 q 653 66 697 90 q 564 25 609 42 q 478 0 519 8 q 453 -4 469 -2 q 419 -9 437 -6 q 385 -14 401 -12 q 359 -18 368 -16 q 327 -23 349 -19 q 281 -30 305 -27 q 235 -37 257 -34 q 206 -40 214 -40 q 175 -32 189 -37 q 151 -10 160 -26 q 136 24 141 6 q 132 63 132 42 q 134 78 132 71 q 139 94 136 86 q 144 111 141 102 q 147 133 146 121 q 155 267 151 212 q 162 360 160 322 q 168 424 165 398 q 172 469 170 449 q 177 509 174 489 q 181 554 179 528 q 190 657 187 613 q 194 736 193 701 q 197 798 196 771 q 200 853 198 826 q 204 909 202 880 q 212 975 207 937 q 224 1006 214 993 q 249 1029 235 1020 q 278 1042 263 1038 q 307 1047 294 1047 q 328 1041 321 1047 q 339 1028 336 1036 q 342 1011 342 1020 q 342 995 342 1003 q 339 955 342 982 q 333 894 337 928 q 325 825 329 861 q 317 756 320 788 q 310 701 313 725 q 307 669 307 677 q 311 651 307 659 q 324 642 316 642 q 338 645 326 642 q 371 651 351 648 q 416 657 391 654 q 469 659 442 659 q 569 654 519 659 q 663 636 618 649 q 746 602 708 623 q 813 547 785 580 q 857 468 842 514 q 873 360 873 422 m 752 362 q 741 423 752 396 q 710 471 729 451 q 663 507 690 492 q 608 531 637 522 q 549 545 579 541 q 491 550 519 550 q 441 548 467 550 q 392 544 416 547 q 347 539 368 542 q 308 534 325 537 q 292 501 299 518 q 284 474 286 485 q 282 443 283 465 q 279 398 280 422 q 276 353 278 374 q 273 324 274 333 q 267 271 270 301 q 261 212 264 242 q 256 153 258 183 q 254 101 254 124 q 264 82 254 91 q 285 73 275 73 q 303 74 291 73 q 330 76 316 75 q 358 79 344 78 q 381 81 371 80 q 520 114 453 89 q 639 177 588 139 q 721 262 691 215 q 752 362 752 309 "},"ẁ":{"x_min":150.5625,"x_max":1538.890625,"ha":1246,"o":"m 1538 566 q 1531 536 1538 550 q 1512 510 1524 522 q 1486 487 1500 497 q 1456 469 1471 476 q 1378 440 1422 451 q 1281 428 1335 428 q 1230 432 1254 428 q 1186 442 1207 436 q 1146 455 1165 448 q 1112 469 1128 462 q 1058 371 1083 425 q 1007 246 1032 316 q 986 187 995 212 q 969 138 978 162 q 952 90 961 115 q 931 34 944 66 q 919 11 928 25 q 898 -13 910 -1 q 873 -34 886 -25 q 849 -42 860 -42 q 795 -21 820 -42 q 751 31 769 0 q 683 172 712 100 q 638 318 655 245 q 616 393 620 393 q 602 376 611 393 q 581 334 593 360 q 556 278 569 309 q 532 221 543 248 q 513 173 521 193 q 503 148 505 153 q 377 -70 444 -6 q 362 -76 372 -76 q 317 -60 338 -76 q 283 -21 296 -44 q 274 0 280 -14 q 261 35 268 15 q 245 77 253 55 q 231 120 238 100 q 219 155 224 140 q 212 177 214 171 q 190 261 201 213 q 170 358 179 308 q 156 453 162 407 q 150 533 150 499 q 171 593 150 575 q 231 612 193 612 q 253 599 244 612 q 266 567 261 587 q 272 523 270 548 q 275 477 274 499 q 277 436 276 455 q 280 408 278 417 q 290 337 284 374 q 306 265 297 301 q 323 198 314 230 q 341 142 333 166 q 357 104 349 118 q 369 90 364 90 q 395 118 377 90 q 438 204 414 145 q 476 301 459 258 q 510 384 493 344 q 543 462 526 423 q 581 545 560 501 q 593 565 585 556 q 611 583 601 575 q 631 596 621 591 q 651 601 642 601 q 687 555 682 601 q 756 233 712 362 q 841 105 801 105 q 865 120 853 105 q 888 159 876 135 q 910 213 900 183 q 930 272 921 243 q 947 328 940 302 q 961 372 955 355 q 980 428 969 399 q 1003 485 990 457 q 1029 541 1015 514 q 1060 592 1043 569 q 1102 623 1081 623 q 1127 619 1117 622 q 1144 612 1137 617 q 1156 601 1150 608 q 1168 586 1161 595 q 1193 565 1176 575 q 1228 547 1209 555 q 1266 535 1247 539 q 1298 531 1285 531 q 1405 540 1352 531 q 1507 580 1458 550 q 1513 585 1510 582 q 1522 588 1517 588 q 1534 584 1529 588 q 1538 566 1538 581 m 763 784 q 748 752 763 766 q 712 737 733 737 q 699 742 710 737 q 676 757 688 747 q 653 776 668 763 q 621 802 638 788 q 589 828 605 816 q 567 846 573 840 q 545 861 563 849 q 503 889 527 874 q 408 983 408 949 q 413 996 408 990 q 424 1009 417 1003 q 438 1019 430 1015 q 451 1023 445 1023 q 475 1018 461 1023 q 508 999 490 1012 q 545 970 529 983 q 575 944 561 957 q 607 918 590 931 q 649 887 624 904 q 695 856 675 869 q 729 832 715 842 q 763 784 763 808 "},"ĭ":{"x_min":72.265625,"x_max":880.359375,"ha":627,"o":"m 880 507 q 867 464 881 493 q 828 396 853 434 q 771 316 804 358 q 704 231 739 273 q 664 187 685 210 q 619 140 642 164 q 572 94 596 117 q 525 53 548 72 q 482 23 505 37 q 435 -1 459 9 q 388 -17 411 -11 q 347 -23 365 -23 q 256 1 292 -23 q 199 69 220 25 q 169 173 177 113 q 160 305 160 233 q 161 328 160 314 q 162 358 161 341 q 164 393 163 375 q 168 430 166 411 q 176 493 172 466 q 185 535 180 519 q 225 591 194 567 q 290 616 256 616 q 308 581 308 616 q 304 529 308 558 q 295 472 299 500 q 282 376 286 418 q 278 302 278 333 q 278 267 278 288 q 281 223 278 246 q 288 177 283 200 q 302 135 293 154 q 324 105 311 117 q 357 94 337 94 q 417 107 382 94 q 482 143 451 120 q 555 203 519 170 q 625 270 592 236 q 689 338 659 305 q 743 400 718 371 q 771 434 756 416 q 799 469 786 452 q 825 502 813 486 q 845 529 836 517 q 848 533 846 530 q 851 539 849 536 q 855 544 853 542 q 859 545 857 546 q 874 531 869 545 q 880 507 880 516 m 529 963 q 520 938 529 954 q 497 904 511 922 q 468 869 483 886 q 439 844 452 853 q 366 803 406 820 q 279 787 325 787 q 220 800 248 787 q 166 835 191 814 q 121 884 141 857 q 87 937 100 911 q 81 951 84 944 q 77 965 79 958 q 73 978 74 972 q 72 986 72 984 q 75 1001 72 993 q 85 1017 79 1009 q 99 1029 91 1024 q 114 1034 107 1034 q 127 1028 120 1034 q 138 1011 133 1021 q 164 962 150 983 q 196 919 178 940 q 239 887 214 899 q 287 876 264 876 q 329 879 309 876 q 369 897 348 883 q 426 942 402 918 q 473 997 450 966 q 488 1011 481 1009 q 498 1013 495 1013 q 511 1009 505 1013 q 521 996 517 1004 q 527 980 525 989 q 529 963 529 971 "},"8":{"x_min":189.21875,"x_max":851.84375,"ha":1015,"o":"m 851 693 q 821 633 851 674 q 793 597 806 613 q 769 571 780 581 q 729 533 746 545 q 702 514 719 526 q 660 484 685 502 q 618 453 635 467 q 590 430 600 440 q 635 408 612 421 q 681 376 657 395 q 726 336 706 357 q 765 291 747 315 q 800 202 800 245 q 798 170 800 187 q 792 135 796 153 q 769 80 786 100 q 686 31 748 53 q 558 -2 624 9 q 498 -12 525 -9 q 450 -15 471 -15 q 328 0 401 -15 q 226 42 255 18 q 189 144 189 75 q 201 200 189 177 q 218 228 208 212 q 244 265 229 244 q 286 308 262 288 q 334 343 310 328 q 380 375 358 360 q 429 411 403 391 q 393 431 416 418 q 346 457 369 443 q 307 481 323 470 q 275 507 290 493 q 229 566 255 525 q 206 630 206 606 q 226 704 204 672 q 281 761 247 735 q 356 809 314 787 q 436 854 397 831 q 580 891 496 891 q 620 885 594 892 q 672 866 646 877 q 719 841 698 854 q 747 817 741 828 q 766 752 758 800 q 771 715 769 729 q 775 698 773 701 q 783 708 778 702 q 792 723 787 714 q 808 747 803 740 q 837 725 824 743 q 851 693 851 708 m 683 668 q 674 717 683 695 q 649 756 666 739 q 611 781 633 772 q 561 790 588 790 q 482 769 529 790 q 393 721 436 750 q 335 666 352 693 q 324 642 324 651 q 345 592 324 616 q 399 545 366 567 q 434 523 416 534 q 471 501 451 512 q 503 483 491 491 q 520 473 515 476 q 552 499 535 484 q 588 531 569 514 q 626 566 609 548 q 656 602 643 584 q 676 636 668 619 q 683 668 683 653 m 693 197 q 661 264 693 227 q 588 331 630 302 q 514 372 544 361 q 375 260 443 325 q 307 143 307 196 q 345 98 307 114 q 415 82 383 82 q 460 83 435 82 q 516 87 485 84 q 571 94 547 90 q 611 104 594 99 q 627 111 618 107 q 647 123 636 115 q 679 147 670 137 q 693 183 693 160 l 693 197 "},"R":{"x_min":139.03125,"x_max":1237.75,"ha":1217,"o":"m 1237 23 q 1209 -17 1237 -3 q 1152 -31 1181 -31 q 1078 -15 1115 -31 q 995 30 1040 1 q 937 71 971 46 q 855 133 902 96 q 811 168 844 142 q 722 237 777 193 q 598 328 613 323 q 527 336 576 336 q 494 335 517 336 q 436 331 472 334 q 411 393 411 348 q 437 438 411 431 q 448 440 440 439 q 466 442 456 441 q 488 444 476 443 q 512 446 500 445 q 673 497 603 461 q 722 524 698 510 q 772 555 747 539 q 860 629 822 588 q 900 708 900 669 q 883 762 900 736 q 839 809 866 788 q 780 846 812 830 q 720 869 748 861 q 617 883 670 883 q 580 882 602 883 q 532 878 559 881 q 482 872 505 875 q 439 866 459 870 q 397 859 419 863 q 348 849 374 855 q 375 771 364 824 q 387 683 387 717 q 386 644 387 663 q 383 607 385 625 q 380 571 382 590 q 374 534 377 553 q 358 438 368 496 q 333 281 340 338 q 328 225 330 252 q 326 172 326 198 q 334 89 326 126 q 365 16 342 53 q 338 -7 356 2 q 304 -18 320 -18 q 238 0 259 -18 q 211 48 216 19 q 206 130 206 75 q 210 203 206 165 q 220 272 215 241 q 231 339 225 304 q 238 377 235 354 q 246 430 242 400 q 262 544 256 489 q 267 642 267 599 q 265 728 267 684 q 257 820 262 772 q 173 798 182 798 q 145 811 152 798 q 139 847 139 824 q 187 896 139 872 q 235 917 211 908 q 283 934 259 927 q 428 965 338 952 q 579 979 518 979 q 779 954 682 979 q 942 870 874 931 q 1009 706 1009 809 q 961 580 1009 641 q 846 475 912 520 q 702 389 779 430 q 824 304 747 359 q 897 253 863 277 q 960 208 931 229 q 1026 163 990 188 q 1105 109 1062 139 q 1181 59 1148 80 q 1237 23 1214 37 "},"Ż":{"x_min":82.0625,"x_max":1255.390625,"ha":1178,"o":"m 1255 247 q 1240 218 1255 222 q 1208 212 1233 217 q 1141 202 1184 208 q 1044 185 1089 193 q 955 170 999 178 q 865 155 911 163 q 765 139 819 147 q 668 123 714 130 q 581 110 622 115 q 417 91 499 99 q 252 80 335 83 q 212 52 237 71 q 167 23 187 33 q 120 13 146 13 q 105 21 112 13 q 93 38 98 28 q 85 59 88 48 q 82 76 82 69 q 90 96 82 84 q 113 124 99 109 q 149 159 128 140 q 196 198 170 177 q 269 256 236 231 q 330 302 302 280 q 384 346 358 324 q 438 397 411 368 q 470 432 450 409 q 513 484 489 455 q 562 544 537 512 q 610 604 587 575 q 653 656 634 633 q 683 693 672 680 q 781 788 727 744 q 714 808 773 808 q 647 804 691 808 q 586 798 619 802 q 520 790 553 794 q 455 783 486 786 q 397 780 423 780 q 277 787 333 780 q 170 812 220 793 q 151 820 158 816 q 139 829 143 824 q 132 840 134 834 q 130 857 130 847 q 132 872 130 862 q 137 895 134 883 q 143 917 140 906 q 149 931 146 927 q 193 946 160 946 q 295 912 249 923 q 384 901 341 901 q 436 902 407 901 q 494 905 464 904 q 554 909 524 907 q 609 912 583 911 q 671 915 648 915 q 714 917 694 916 q 760 921 735 918 q 828 931 785 923 q 903 942 872 938 q 952 946 934 946 q 978 941 965 946 q 1001 927 990 935 q 1018 908 1011 919 q 1024 886 1024 897 q 1016 868 1024 876 q 994 845 1003 855 q 975 827 984 836 q 957 810 966 819 q 935 788 948 800 q 794 637 864 716 q 661 487 725 559 q 596 414 629 451 q 529 339 562 376 q 462 266 495 301 q 397 198 428 230 q 493 206 446 200 q 587 219 540 212 q 682 236 634 227 q 783 254 731 245 q 1226 295 1024 295 q 1255 247 1255 283 m 711 1199 q 685 1144 711 1168 q 628 1121 660 1121 q 573 1132 604 1121 q 544 1166 544 1144 q 551 1198 544 1178 q 570 1237 559 1218 q 596 1269 582 1256 q 622 1280 609 1281 q 686 1259 661 1280 q 711 1199 711 1238 "},"ħ":{"x_min":-50.859375,"x_max":1321.171875,"ha":1107,"o":"m 581 792 q 579 770 581 778 q 572 756 577 761 q 557 749 567 751 q 533 748 548 748 q 513 747 527 748 q 481 746 499 747 q 443 745 463 746 q 405 742 423 744 q 350 737 377 740 q 293 731 324 734 q 287 658 290 693 q 282 594 284 623 q 277 533 280 562 q 271 477 274 505 q 265 420 268 448 q 260 358 263 391 q 249 269 255 307 q 243 204 243 231 q 247 194 243 200 q 255 189 252 189 l 258 189 q 274 211 264 196 q 295 244 283 226 q 321 281 307 261 q 347 316 334 300 q 375 352 360 333 q 407 391 390 371 q 441 430 423 411 q 474 467 458 450 q 521 511 495 488 q 575 553 547 534 q 632 584 603 572 q 686 596 660 596 q 698 594 691 596 q 714 586 706 591 q 729 574 722 581 q 739 557 735 567 q 758 484 752 520 q 769 406 765 447 q 778 335 773 372 q 790 269 783 299 q 810 220 798 239 q 840 201 822 201 q 1000 238 923 201 q 1070 276 1041 258 q 1125 314 1100 295 q 1176 358 1150 334 q 1234 413 1201 381 q 1311 473 1300 473 q 1321 445 1321 473 q 1300 400 1321 431 q 1281 373 1293 388 q 1257 343 1270 358 q 1233 314 1245 328 q 1211 291 1220 301 q 1127 215 1171 251 q 1036 149 1083 178 q 939 103 989 120 q 836 84 888 85 q 765 99 796 84 q 716 147 734 114 q 690 222 699 181 q 676 311 681 263 q 674 333 675 318 q 671 366 672 348 q 666 403 669 384 q 660 438 663 422 q 652 463 657 453 q 642 473 648 473 q 585 445 621 473 q 505 371 548 417 q 416 267 461 325 q 331 150 370 210 q 268 47 297 99 q 219 -43 240 -4 q 195 -68 208 -61 q 177 -75 182 -75 q 155 -70 166 -75 q 135 -56 144 -65 q 120 -38 126 -48 q 114 -17 114 -27 q 117 11 114 -8 q 124 56 120 31 q 132 108 128 81 q 139 158 137 134 q 150 256 144 202 q 162 364 156 309 q 172 471 167 419 q 179 565 177 523 q 181 592 180 576 q 182 629 181 609 q 185 672 183 649 q 187 718 186 695 q 144 714 168 716 q 96 709 120 711 q 52 705 72 706 q 21 703 32 703 q -30 710 -10 703 q -50 742 -50 717 q -46 769 -50 757 q -25 784 -41 781 q 25 792 -4 789 q 82 796 54 794 q 134 800 104 797 q 191 806 165 803 q 192 835 192 822 q 193 859 193 849 q 196 895 194 878 q 201 927 198 911 q 209 959 204 943 q 224 994 215 975 q 233 1007 227 1000 q 247 1021 239 1015 q 264 1031 255 1027 q 282 1036 273 1036 q 318 1020 302 1036 q 334 977 334 1005 q 331 953 334 968 q 324 922 328 938 q 316 892 320 906 q 311 870 312 877 q 307 845 309 858 q 303 818 305 832 q 411 833 357 826 q 513 841 465 841 q 561 832 542 841 q 581 792 581 822 "},"õ":{"x_min":54.265625,"x_max":1061.421875,"ha":803,"o":"m 1061 568 q 1056 544 1061 556 q 1043 521 1051 533 q 1025 500 1034 510 q 1005 484 1015 491 q 937 457 981 469 q 829 445 893 445 q 725 458 777 445 q 625 502 673 472 q 645 457 640 478 q 649 405 649 435 q 622 291 649 352 q 554 178 596 230 q 465 91 512 126 q 407 57 438 71 q 341 33 375 42 q 269 20 306 24 q 193 15 231 15 q 142 32 167 15 q 97 73 117 49 q 66 126 78 98 q 54 176 54 153 q 68 281 54 231 q 108 379 83 332 q 165 471 132 426 q 234 561 198 516 q 281 610 255 586 q 335 653 307 634 q 393 684 364 672 q 448 696 422 696 q 486 690 470 696 q 515 673 501 684 q 544 644 529 661 q 577 607 558 628 q 611 589 583 600 q 676 565 638 577 q 755 546 714 554 q 830 537 796 537 q 893 540 864 537 q 948 548 921 542 q 1001 562 975 553 q 1058 585 1028 572 q 1061 568 1061 575 m 554 405 q 552 448 555 424 q 540 494 548 472 q 517 529 531 515 q 483 539 503 542 q 432 565 452 552 q 400 579 411 579 q 383 574 392 579 q 363 560 373 569 q 342 539 353 551 q 322 514 332 527 q 284 466 301 488 q 251 423 267 444 q 222 378 236 402 q 193 326 208 355 q 183 297 187 314 q 174 262 178 280 q 169 226 171 244 q 168 193 168 208 q 174 172 168 185 q 190 148 180 160 q 212 128 200 136 q 237 120 225 120 q 296 123 271 120 q 341 133 320 126 q 383 155 362 141 q 432 190 404 168 q 458 214 445 200 q 484 243 472 227 q 509 274 497 258 q 531 305 520 290 q 542 330 537 316 q 550 360 547 345 q 553 387 552 375 q 554 405 554 400 m 744 938 q 726 890 744 920 q 707 861 717 875 q 683 832 696 847 q 642 793 658 803 q 605 784 626 784 q 561 788 580 784 q 525 802 541 793 q 508 814 518 807 q 485 833 498 822 q 467 849 473 844 q 459 856 460 855 q 440 874 449 865 q 424 890 432 883 q 406 901 415 896 q 384 905 396 905 q 361 901 371 905 q 341 888 351 896 q 319 868 331 880 q 295 840 308 856 q 271 811 281 823 q 252 791 261 799 q 233 779 242 783 q 214 776 224 776 q 193 785 200 776 q 185 809 185 795 q 217 882 185 837 q 293 959 251 926 q 366 992 337 992 q 431 983 410 992 q 453 969 442 978 q 477 947 464 960 q 501 925 490 934 q 521 909 512 915 q 540 895 530 903 q 560 881 550 888 q 579 870 569 875 q 594 866 588 866 q 627 880 612 866 q 656 914 642 894 q 671 934 664 924 q 686 954 679 945 q 711 974 702 974 q 735 964 727 974 q 744 938 744 954 "},"˙":{"x_min":67.765625,"x_max":234.671875,"ha":315,"o":"m 234 874 q 208 819 234 843 q 151 796 183 796 q 96 807 127 796 q 67 841 67 819 q 74 873 67 853 q 93 912 82 893 q 119 944 105 931 q 145 955 132 956 q 209 934 184 955 q 234 874 234 913 "},"ê":{"x_min":108.515625,"x_max":946.125,"ha":731,"o":"m 946 467 q 931 432 946 457 q 852 330 895 381 q 759 233 808 279 q 656 148 710 187 q 549 79 603 108 q 441 35 495 50 q 337 20 387 19 q 168 83 228 20 q 108 274 108 146 q 141 480 108 380 q 253 674 174 581 q 287 705 268 690 q 326 731 305 720 q 369 750 347 743 q 413 758 391 756 q 428 756 419 758 q 448 752 438 755 q 470 743 459 748 q 486 731 480 738 q 516 686 505 709 q 529 635 527 663 q 521 574 530 604 q 493 512 513 543 q 440 447 473 480 q 362 375 408 413 q 297 321 333 350 q 211 259 261 291 q 251 159 211 193 q 360 124 290 124 q 438 134 398 124 q 515 161 477 145 q 589 199 553 178 q 655 243 624 221 q 760 327 713 285 q 853 415 807 368 l 889 451 q 937 480 923 480 q 946 467 946 480 m 427 602 q 424 622 427 613 q 417 640 422 632 q 406 652 413 647 q 392 656 400 656 q 320 612 356 654 q 252 502 284 571 q 239 468 245 487 q 228 431 233 450 q 220 392 223 411 q 213 358 216 373 q 278 407 248 385 q 334 453 308 430 q 367 485 350 468 q 398 522 384 503 q 420 561 412 541 q 427 602 428 581 m 669 790 q 657 761 669 775 q 631 748 645 748 q 611 755 621 748 q 591 773 601 762 q 572 796 581 784 q 557 818 563 808 q 512 877 543 839 q 468 941 481 916 q 461 955 464 948 q 453 969 457 963 q 445 980 449 976 q 437 984 441 984 q 425 978 430 984 q 368 919 391 945 q 346 896 357 907 q 326 873 335 884 q 297 842 316 863 q 250 791 279 822 q 213 772 230 772 q 179 830 179 772 q 189 865 179 856 q 255 927 228 901 q 307 973 282 952 q 387 1052 354 1014 q 453 1099 426 1099 q 487 1068 466 1099 q 535 985 508 1036 q 571 924 562 934 q 586 908 574 921 q 618 873 598 894 q 660 825 658 828 q 669 790 669 800 "},"″":{"x_min":88.84375,"x_max":520.875,"ha":561,"o":"m 520 966 q 503 878 520 950 q 490 820 495 842 q 484 792 486 799 q 474 725 478 754 q 465 666 470 696 q 455 609 461 636 q 441 559 449 582 q 426 541 438 548 q 401 534 415 534 q 379 540 388 534 q 364 555 370 545 q 355 577 358 564 q 352 604 352 590 q 376 731 352 646 q 402 829 400 817 q 411 882 405 848 q 421 942 416 915 q 433 986 427 968 q 470 1012 442 1012 q 504 998 488 1012 q 520 966 520 984 m 241 958 q 240 943 241 951 q 238 924 240 934 q 236 902 237 914 q 231 876 234 889 q 228 852 229 862 q 226 837 227 843 q 211 781 224 818 q 197 725 198 744 q 192 668 194 691 q 187 630 189 644 q 183 602 186 616 q 174 575 179 588 q 159 554 170 563 q 134 545 147 545 q 99 568 110 545 q 88 616 88 590 q 94 652 88 631 q 105 695 99 674 q 111 725 109 710 q 116 758 113 741 q 124 809 121 793 q 143 903 136 866 q 152 959 149 940 q 157 979 153 969 q 166 996 160 988 q 179 1008 171 1003 q 196 1012 186 1012 q 226 994 212 1012 q 241 958 241 977 "},"„":{"x_min":55.609375,"x_max":702.640625,"ha":798,"o":"m 702 87 q 683 -21 702 47 q 633 -146 665 -92 q 565 -201 601 -201 q 531 -189 545 -201 q 516 -158 516 -177 q 523 -126 516 -143 q 541 -99 530 -109 q 592 -34 577 -68 q 608 48 608 0 q 592 86 608 68 q 551 125 577 103 q 524 156 524 148 q 524 169 524 165 q 523 180 524 174 q 521 194 522 187 q 520 208 520 202 q 522 225 520 219 q 551 243 524 233 q 588 254 577 254 q 613 238 595 254 q 644 209 630 223 q 672 177 657 195 q 702 87 702 135 m 279 58 q 259 -33 279 23 q 240 -84 250 -62 q 219 -124 230 -107 q 164 -158 215 -131 q 104 -184 113 -184 q 86 -180 94 -184 q 70 -170 77 -177 q 59 -154 63 -163 q 55 -136 55 -146 q 69 -94 55 -106 q 88 -84 77 -89 q 112 -75 99 -80 q 151 -56 141 -67 q 177 -12 166 -40 q 189 35 189 16 q 152 93 189 51 q 116 143 116 135 q 124 195 116 168 q 155 221 132 221 q 168 216 159 221 q 231 181 223 192 q 264 124 250 163 q 279 58 279 88 "},"ч":{"x_min":149.890625,"x_max":1247.65625,"ha":1033,"o":"m 1245 434 q 1233 414 1245 430 q 1202 372 1222 397 q 1157 317 1183 347 q 1101 254 1130 286 q 1040 191 1071 222 q 978 134 1008 160 q 885 59 932 95 q 790 -4 838 23 q 689 -48 741 -31 q 581 -65 638 -65 q 521 -51 549 -65 q 473 -14 493 -37 q 441 37 453 8 q 430 99 430 67 q 446 230 430 159 q 497 392 462 301 q 422 354 465 370 q 332 337 378 337 q 276 346 301 337 q 226 372 250 354 q 197 401 211 383 q 173 444 183 420 q 156 497 162 468 q 149 557 149 526 q 155 619 149 588 q 173 675 162 650 q 202 716 185 700 q 242 731 219 731 q 277 719 267 731 q 286 678 286 706 q 283 653 286 666 q 274 626 279 640 q 266 595 269 612 q 262 555 262 577 q 271 501 262 524 q 294 462 280 478 q 327 438 309 446 q 366 430 346 430 q 432 443 396 430 q 507 480 468 457 q 557 520 538 500 q 590 558 577 541 q 627 594 606 577 q 670 610 647 610 q 688 607 679 610 q 705 600 697 604 q 716 589 712 595 q 720 575 720 582 q 711 539 720 554 q 687 509 701 524 q 654 476 672 493 q 622 432 637 458 q 589 362 604 401 q 563 283 573 324 q 546 201 552 242 q 540 127 540 161 q 559 58 540 81 q 627 35 578 35 q 710 53 665 35 q 803 103 754 71 q 903 178 852 135 q 1003 267 954 220 q 1098 366 1052 315 q 1184 465 1144 417 q 1205 483 1193 474 q 1231 491 1218 491 q 1243 484 1240 491 q 1247 468 1247 478 q 1246 450 1247 459 q 1245 434 1245 440 "},"δ":{"x_min":59,"x_max":790.125,"ha":701,"o":"m 398 599 q 373 628 387 612 q 343 661 358 644 q 312 695 327 678 q 285 724 297 711 q 214 822 240 771 q 189 912 189 872 q 206 979 189 951 q 251 1025 224 1007 q 313 1051 279 1043 q 379 1060 347 1060 q 487 1043 435 1060 q 585 999 539 1026 q 668 940 630 972 q 733 878 706 908 q 775 825 760 849 q 790 791 790 801 q 778 755 790 769 q 749 741 766 741 q 731 749 741 741 q 709 768 720 756 q 683 794 697 779 q 653 822 669 808 q 595 872 626 847 q 530 919 564 898 q 458 953 496 940 q 379 967 421 967 q 323 950 338 967 q 308 908 308 933 q 336 833 308 881 q 430 715 363 785 q 514 617 476 666 q 577 519 551 569 q 617 419 603 470 q 631 316 631 368 q 605 180 631 245 q 533 64 580 114 q 419 -15 486 14 q 269 -46 352 -46 q 181 -30 220 -46 q 115 14 143 -14 q 73 85 88 44 q 59 180 59 127 q 73 273 59 227 q 111 360 87 318 q 169 440 136 402 q 239 508 202 477 q 318 562 277 539 q 398 599 358 585 m 524 303 q 520 349 524 325 q 511 398 517 374 q 495 445 504 422 q 476 486 486 467 q 457 515 465 505 q 438 526 449 526 q 403 515 427 526 q 350 483 379 503 q 291 434 322 463 q 236 370 261 406 q 194 295 210 335 q 178 210 178 254 q 188 140 178 169 q 213 93 198 111 q 249 67 229 75 q 290 59 269 59 q 382 77 339 59 q 456 128 425 95 q 506 205 488 160 q 524 303 524 250 "},"Â":{"x_min":13.5625,"x_max":1130.59375,"ha":1162,"o":"m 1130 44 q 1113 -1 1130 17 q 1068 -21 1096 -21 q 1048 -15 1056 -21 q 1027 4 1039 -8 q 1003 35 1015 16 q 957 116 978 74 q 923 191 936 159 q 916 209 920 201 q 909 225 912 217 q 901 243 905 233 q 892 267 897 253 q 864 344 872 326 q 845 329 854 335 q 827 322 836 324 q 806 319 817 320 q 784 319 796 319 q 767 316 777 319 q 745 310 756 314 q 721 303 733 307 q 699 296 710 299 q 631 279 666 286 q 560 264 596 271 q 483 251 523 257 q 398 237 443 244 q 360 210 378 233 q 286 109 342 187 q 194 -4 232 31 q 122 -40 157 -40 q 47 -22 77 -40 q 13 23 13 0 q 28 42 13 36 q 67 52 42 48 q 105 86 75 53 q 147 137 132 117 q 205 217 175 174 q 271 312 234 259 q 302 359 288 339 q 324 392 316 379 q 346 423 334 406 q 373 461 358 440 q 389 484 380 470 q 412 514 399 497 q 435 545 425 532 q 453 570 446 559 q 474 597 461 581 q 503 636 486 613 q 525 668 509 642 q 568 737 541 693 q 617 829 606 800 q 737 1022 697 1022 q 765 1019 754 1022 q 782 1008 776 1015 q 790 989 788 1001 q 792 961 792 978 q 792 940 792 949 q 792 926 792 931 q 790 898 791 915 q 788 858 790 881 q 853 705 822 787 q 886 614 868 663 q 923 506 903 565 q 957 406 942 448 q 982 339 972 365 q 1004 280 991 314 q 1036 205 1018 247 q 1087 130 1043 189 q 1130 44 1130 70 m 830 445 q 803 525 817 482 q 774 612 789 569 q 743 695 758 655 q 711 766 727 735 q 639 667 673 714 q 574 572 605 619 q 511 474 542 524 q 448 366 480 423 q 462 364 456 364 q 488 365 472 364 q 521 369 504 367 q 553 375 537 372 q 577 379 568 377 q 605 386 594 383 q 628 392 617 389 q 652 397 639 394 q 682 404 664 400 q 760 425 721 415 q 830 445 798 436 m 1005 1144 q 993 1116 1005 1129 q 966 1102 981 1102 q 946 1109 956 1102 q 926 1127 936 1117 q 908 1150 916 1138 q 892 1172 899 1162 q 847 1231 878 1193 q 803 1296 816 1270 q 796 1310 800 1302 q 789 1324 792 1317 q 781 1334 785 1330 q 773 1338 777 1338 q 760 1333 766 1338 q 704 1274 727 1299 q 681 1250 692 1262 q 661 1228 671 1239 q 633 1197 652 1217 q 585 1146 614 1176 q 549 1126 566 1126 q 514 1184 514 1126 q 524 1219 514 1211 q 591 1281 564 1256 q 642 1327 617 1306 q 722 1407 690 1368 q 788 1454 761 1454 q 822 1422 802 1454 q 870 1340 843 1391 q 906 1279 897 1289 q 922 1262 910 1275 q 953 1227 933 1249 q 995 1179 994 1182 q 1005 1144 1005 1155 "},"Į":{"x_min":19.671875,"x_max":387.9375,"ha":432,"o":"m 328 -204 q 268 -284 328 -263 q 136 -305 209 -305 q 50 -268 82 -305 q 19 -177 19 -232 q 44 -74 19 -127 q 106 12 61 -39 q 89 45 95 26 q 83 76 83 63 q 97 248 83 161 q 115 346 105 291 q 141 466 126 400 q 162 552 152 512 q 181 630 172 593 q 203 712 191 666 q 229 815 215 758 q 237 849 233 835 q 242 872 240 864 q 248 896 244 881 q 258 935 252 912 q 264 953 259 943 q 276 973 269 964 q 291 989 283 982 q 307 995 299 995 q 337 987 320 995 q 362 967 353 979 q 387 905 387 940 q 387 886 387 894 q 387 868 387 878 q 356 784 387 849 q 322 697 326 718 q 252 326 287 537 q 243 276 247 297 q 237 241 240 255 q 232 211 234 227 q 227 177 229 196 q 223 143 224 158 q 222 113 222 127 q 229 88 222 105 q 237 64 236 73 q 239 49 239 56 q 227 20 239 31 q 213 7 222 14 q 191 -11 204 0 q 112 -164 112 -92 q 126 -203 112 -187 q 162 -219 139 -219 q 206 -214 189 -219 q 250 -198 221 -210 q 266 -187 259 -193 q 282 -177 274 -182 q 297 -169 289 -172 q 312 -166 304 -166 q 319 -170 316 -166 q 324 -180 322 -174 q 327 -192 326 -185 q 328 -204 328 -199 "},"ω":{"x_min":95.625,"x_max":1237.078125,"ha":1272,"o":"m 781 543 q 776 496 781 519 q 764 448 771 473 q 748 374 756 419 q 740 281 740 330 q 750 204 740 236 q 776 151 759 172 q 816 120 792 130 q 868 109 840 109 q 968 136 922 109 q 1049 209 1015 162 q 1104 319 1084 255 q 1124 455 1124 382 q 1119 507 1124 482 q 1105 554 1114 532 q 1085 592 1097 575 q 1058 619 1072 609 q 1034 639 1047 628 q 1022 667 1022 651 q 1028 690 1022 680 q 1042 705 1033 699 q 1061 714 1050 711 q 1081 716 1071 716 q 1135 703 1107 716 q 1185 661 1162 690 q 1222 588 1207 633 q 1237 478 1237 543 q 1225 361 1237 419 q 1190 250 1213 303 q 1133 153 1167 198 q 1056 75 1099 108 q 959 24 1012 42 q 845 5 906 5 q 755 22 795 5 q 689 76 716 40 q 651 168 663 112 q 644 299 638 223 q 571 159 614 222 q 476 52 527 96 q 369 -16 425 7 q 258 -41 314 -41 q 188 -28 219 -41 q 137 9 158 -14 q 106 70 116 34 q 95 149 95 105 q 106 252 95 198 q 137 363 118 307 q 184 474 157 419 q 243 574 211 528 q 281 623 263 603 q 315 656 299 644 q 347 674 331 669 q 379 680 363 680 q 427 659 408 680 q 447 603 447 638 q 439 588 447 592 q 420 580 432 583 q 395 573 408 577 q 371 558 382 569 q 314 479 341 526 q 265 382 286 433 q 231 279 244 330 q 218 184 218 227 q 238 97 218 124 q 301 70 259 70 q 368 88 334 70 q 435 139 402 107 q 499 214 468 170 q 559 308 531 258 q 611 414 587 359 q 653 525 635 470 q 684 574 663 559 q 735 589 704 589 q 768 577 754 589 q 781 543 781 564 "},"Ţ":{"x_min":16.5625,"x_max":1074.984375,"ha":974,"o":"m 630 -252 q 577 -331 630 -298 q 542 -352 558 -343 q 509 -366 526 -360 q 474 -374 493 -371 q 434 -376 456 -376 q 387 -362 433 -376 q 353 -352 364 -356 q 339 -348 341 -349 q 305 -304 305 -334 q 308 -288 305 -296 q 316 -273 311 -280 q 328 -262 321 -267 q 342 -258 335 -258 q 375 -271 354 -258 q 406 -290 396 -285 q 442 -295 417 -295 q 518 -276 485 -295 q 552 -215 552 -257 q 537 -172 552 -190 q 497 -155 522 -155 q 467 -163 487 -155 q 435 -172 447 -172 q 399 -139 399 -172 q 431 -56 417 -90 q 452 -1 444 -22 q 437 17 444 6 q 425 40 430 27 q 417 79 420 57 q 411 125 413 101 q 408 172 409 149 q 408 215 408 196 q 408 248 408 234 q 408 265 408 261 q 413 330 408 286 q 423 428 417 374 q 436 541 429 483 q 449 647 443 599 q 459 727 455 695 q 463 758 463 758 q 459 774 463 769 q 448 780 454 779 q 437 781 442 781 q 431 780 432 780 q 364 775 405 780 q 278 765 324 771 q 184 754 231 759 q 95 750 136 750 q 76 750 86 750 q 57 752 67 750 q 37 759 47 754 q 17 775 27 765 q 16 792 16 781 q 18 814 16 803 q 28 835 21 826 q 49 847 35 844 q 119 858 80 854 q 198 865 158 862 q 277 870 238 868 q 345 877 315 873 q 397 884 366 880 q 461 893 428 888 q 525 902 494 897 q 575 911 556 907 q 662 930 616 919 q 754 951 708 941 q 847 967 801 961 q 935 973 893 973 q 952 973 940 973 q 979 971 964 973 q 1011 967 994 970 q 1043 960 1028 965 q 1056 951 1050 958 q 1066 936 1062 944 q 1072 920 1070 928 q 1074 906 1074 912 q 1070 875 1074 886 q 1059 861 1066 865 q 1042 856 1051 857 q 1024 856 1033 856 q 983 856 1001 856 q 945 857 964 857 q 906 858 927 858 q 858 859 885 859 q 790 854 830 859 q 713 841 751 849 q 643 825 674 834 q 600 810 612 817 q 590 800 595 807 q 582 786 585 794 q 576 770 579 778 q 574 756 574 762 q 559 613 567 684 q 543 473 550 543 q 531 336 536 404 q 526 200 526 267 q 529 166 526 189 q 536 120 532 143 q 542 78 539 96 q 545 57 545 60 q 535 12 545 34 q 535 5 535 10 q 531 -8 535 -1 q 522 -23 526 -16 q 509 -80 514 -42 q 562 -105 525 -94 q 596 -120 583 -109 q 630 -252 630 -147 "},"´":{"x_min":67.828125,"x_max":442.203125,"ha":517,"o":"m 442 929 q 430 908 442 922 q 406 890 425 903 q 362 862 387 878 q 310 830 337 847 q 265 800 284 813 q 205 758 234 779 q 145 718 175 737 q 139 714 144 717 q 128 707 134 711 q 116 700 122 704 q 110 697 111 697 q 93 702 101 697 q 80 713 86 706 q 71 727 74 719 q 67 743 67 735 q 153 833 67 772 q 305 931 239 893 q 341 952 328 944 q 364 968 354 961 q 384 980 374 975 q 404 984 394 984 q 413 979 406 984 q 426 966 419 974 q 437 949 432 959 q 442 929 442 940 "},"Ĉ":{"x_min":88.140625,"x_max":1167.21875,"ha":1024,"o":"m 1167 437 q 1109 333 1167 395 q 1074 299 1095 318 q 1030 260 1053 280 q 984 222 1007 241 q 940 187 961 203 q 804 92 875 137 q 660 14 733 48 q 515 -39 588 -19 q 376 -59 443 -59 q 248 -37 303 -59 q 159 21 194 -16 q 105 114 123 60 q 88 236 88 169 q 100 360 87 297 q 137 484 113 423 q 194 602 161 545 q 267 707 227 659 q 320 766 290 736 q 383 825 350 796 q 450 878 416 853 q 516 922 484 903 q 570 950 537 934 q 638 981 602 967 q 710 1005 674 995 q 771 1015 745 1015 q 837 1009 812 1015 q 881 990 862 1003 q 901 969 889 983 q 924 939 913 955 q 941 905 934 922 q 948 877 948 889 q 937 843 948 866 q 912 795 927 819 q 884 749 898 770 q 862 719 870 727 q 803 689 834 689 q 760 705 775 689 q 745 747 745 722 q 755 774 745 756 q 789 817 765 793 q 826 861 813 841 q 843 887 839 881 q 809 902 829 897 q 773 908 790 908 q 712 896 748 908 q 639 868 676 885 q 565 829 601 850 q 505 788 530 807 q 377 663 436 730 q 279 516 318 597 q 249 447 263 483 q 225 373 236 411 q 209 299 215 336 q 204 228 204 262 q 213 153 204 188 q 243 94 222 119 q 298 54 264 69 q 383 40 333 40 q 494 55 437 40 q 608 95 551 70 q 720 154 664 121 q 827 223 775 187 q 924 295 878 259 q 1008 362 970 330 q 1041 391 1024 375 q 1075 422 1058 406 q 1108 453 1092 438 q 1136 482 1124 469 q 1167 437 1167 466 m 1014 1152 q 1002 1123 1014 1137 q 976 1110 990 1110 q 956 1117 966 1110 q 936 1135 946 1124 q 917 1158 926 1146 q 902 1180 908 1170 q 857 1239 888 1201 q 813 1303 826 1278 q 806 1317 809 1310 q 798 1331 802 1325 q 790 1342 794 1338 q 782 1346 786 1346 q 770 1340 775 1346 q 713 1281 736 1307 q 691 1258 702 1269 q 671 1235 680 1246 q 642 1204 661 1225 q 595 1153 624 1184 q 558 1134 575 1134 q 524 1192 524 1134 q 534 1227 524 1218 q 600 1289 573 1263 q 652 1335 627 1314 q 732 1414 699 1376 q 798 1461 771 1461 q 832 1430 811 1461 q 880 1347 853 1398 q 916 1286 907 1296 q 931 1270 919 1283 q 963 1235 943 1256 q 1005 1187 1003 1190 q 1014 1152 1014 1162 "},"И":{"x_min":141.75,"x_max":1133.3125,"ha":1278,"o":"m 1133 933 q 1130 908 1133 931 q 1123 852 1127 885 q 1114 779 1119 818 q 1105 705 1109 739 q 1097 646 1100 671 q 1094 617 1094 621 q 1078 472 1084 533 q 1069 365 1072 411 q 1064 285 1066 319 q 1062 221 1063 251 q 1062 200 1062 212 q 1062 174 1062 187 q 1062 147 1062 160 q 1065 123 1063 133 q 1071 105 1066 115 q 1081 84 1076 94 q 1089 63 1085 73 q 1093 48 1093 53 q 1083 17 1093 34 q 1059 -14 1073 0 q 1031 -40 1045 -29 q 1007 -50 1016 -50 q 971 -35 985 -50 q 948 6 956 -21 q 936 72 940 33 q 933 160 933 111 q 937 256 933 196 q 949 391 942 316 q 965 551 956 466 q 982 723 973 636 q 955 709 971 722 q 922 677 940 696 q 887 636 905 657 q 852 597 868 614 q 809 550 835 578 q 755 492 784 522 q 699 434 727 462 q 649 385 671 405 q 601 345 628 367 q 542 299 573 323 q 478 248 511 274 q 416 195 446 222 q 360 142 386 168 q 318 91 335 116 q 304 69 311 82 q 290 42 297 56 q 274 15 282 29 q 257 -8 266 2 q 223 -29 241 -25 q 189 -33 205 -33 q 164 -27 173 -33 q 150 -11 155 -21 q 143 8 145 -2 q 141 30 141 20 q 143 55 141 38 q 148 95 145 73 q 155 141 151 117 q 163 189 159 166 q 169 231 166 212 q 174 263 172 251 q 185 346 179 296 q 196 456 190 396 q 209 580 202 515 q 221 708 215 645 q 232 827 227 771 q 242 926 238 883 q 255 982 246 958 q 275 1022 263 1006 q 298 1047 286 1039 q 320 1055 310 1055 q 353 1046 339 1055 q 374 1025 366 1037 q 386 999 382 1012 q 389 976 389 985 q 383 899 389 944 q 367 805 376 853 q 349 710 358 756 q 337 630 341 663 q 326 537 334 585 q 310 439 318 489 q 297 341 303 389 q 291 245 291 292 q 295 219 291 223 q 342 256 317 235 q 393 301 366 277 q 446 352 419 326 q 499 403 473 378 q 551 452 526 428 q 597 494 575 475 q 690 581 647 537 q 773 670 733 624 q 852 763 813 715 q 933 862 891 810 q 968 909 952 885 q 1001 951 984 932 q 1037 983 1018 971 q 1077 995 1055 995 q 1104 988 1093 995 q 1121 972 1115 982 q 1130 951 1127 962 q 1133 933 1133 941 "},"⌡":{"x_min":71.890625,"x_max":492.078125,"ha":839,"o":"m 471 581 q 472 562 472 575 q 473 532 472 549 q 473 497 473 515 q 473 462 474 478 q 473 432 473 445 q 472 415 472 419 q 473 389 472 407 q 473 349 473 372 q 474 301 474 326 q 475 254 474 276 q 475 214 475 231 q 474 190 474 197 q 483 84 478 137 q 490 -21 488 31 q 491 -126 493 -74 q 480 -229 489 -179 q 458 -307 474 -270 q 416 -371 441 -343 q 357 -414 390 -398 q 285 -430 324 -430 q 206 -412 243 -430 q 140 -368 168 -394 q 93 -313 111 -342 q 71 -261 75 -284 q 73 -247 71 -255 q 79 -235 75 -240 q 85 -225 82 -229 q 90 -221 88 -221 q 111 -235 95 -221 q 158 -271 128 -249 q 183 -288 171 -280 q 206 -302 194 -296 q 229 -310 217 -307 q 257 -314 242 -314 q 320 -288 293 -314 q 360 -213 346 -262 q 367 -154 364 -195 q 370 -60 369 -114 q 371 56 371 -6 q 369 184 370 120 q 365 308 367 248 q 359 418 362 369 q 357 464 358 436 q 357 524 357 492 q 358 590 357 556 q 359 656 358 624 q 361 715 360 688 q 362 761 362 743 q 361 803 362 774 q 360 870 360 832 q 361 951 360 908 q 362 1033 362 994 q 364 1104 363 1072 q 368 1152 366 1136 q 386 1171 371 1163 q 420 1180 401 1180 q 456 1171 439 1180 q 476 1152 472 1163 l 476 1115 q 474 1077 475 1104 q 473 1017 474 1051 q 472 945 472 983 q 472 873 472 907 q 472 812 472 838 q 474 773 472 785 l 471 581 "},"○":{"x_min":103.078125,"x_max":738.578125,"ha":839,"o":"m 738 411 q 729 326 738 366 q 693 250 719 286 q 552 139 639 179 q 381 98 465 98 q 269 115 320 97 q 181 168 218 134 q 123 252 143 203 q 103 364 102 302 q 104 390 103 377 q 108 419 105 404 q 118 452 111 435 q 134 489 124 470 q 179 560 156 527 q 232 623 202 592 q 345 680 295 680 q 374 682 358 680 q 412 687 390 684 q 448 692 430 691 q 483 693 466 693 q 560 680 513 693 q 600 667 583 674 q 628 651 617 659 q 649 628 637 644 q 676 587 661 611 q 704 536 692 561 q 726 485 715 511 q 738 442 737 461 q 738 411 738 423 m 668 387 q 658 465 670 426 q 628 536 647 505 q 588 585 610 567 q 544 602 565 604 q 511 600 529 602 q 479 595 494 598 q 456 589 465 592 q 448 587 446 587 q 429 586 445 587 q 396 589 414 585 q 347 593 365 593 q 300 582 322 594 q 259 551 278 571 q 224 504 240 531 q 199 449 209 478 q 183 393 188 421 q 178 342 177 365 q 189 280 178 309 q 233 225 200 250 q 269 201 250 212 q 309 184 289 191 q 349 173 330 177 q 387 169 369 169 q 485 184 441 169 q 564 215 530 198 q 595 241 578 222 q 630 291 613 260 q 659 346 650 322 q 668 387 668 370 "},"Љ":{"x_min":4.0625,"x_max":1660.96875,"ha":1814,"o":"m 1660 428 q 1654 383 1660 408 q 1637 335 1648 359 q 1613 288 1627 310 q 1586 250 1599 265 q 1460 147 1530 189 q 1302 68 1390 104 q 1238 44 1275 56 q 1161 18 1201 31 q 1081 -4 1121 6 q 1004 -24 1040 -15 q 940 -37 969 -32 q 897 -42 912 -42 q 839 -24 858 -42 q 820 28 820 -6 q 821 41 820 31 q 824 60 822 50 q 827 81 826 71 q 828 94 828 90 q 827 110 828 96 q 824 144 826 124 q 819 190 822 165 q 814 241 817 216 q 810 289 812 267 q 807 328 808 312 q 799 409 803 373 q 792 483 796 446 q 783 558 788 519 q 774 647 779 598 q 748 852 761 774 q 718 952 734 930 q 702 963 714 957 q 674 968 690 968 q 647 959 660 968 q 622 935 634 950 q 601 900 611 920 q 586 859 592 880 q 566 789 576 823 q 544 714 557 754 q 515 622 532 673 q 474 501 498 571 q 455 451 469 486 q 425 376 442 417 q 392 296 408 335 q 364 231 375 257 q 297 105 331 156 q 226 23 262 54 q 151 -20 189 -7 q 74 -33 113 -33 q 49 -30 61 -33 q 26 -19 36 -27 q 10 1 16 -11 q 4 35 4 14 q 10 54 4 47 q 28 64 16 61 q 53 71 39 68 q 84 81 68 75 q 118 98 101 87 q 150 128 134 109 q 187 178 169 151 q 224 236 206 204 q 260 307 242 268 q 299 392 279 345 q 332 474 316 431 q 364 560 349 518 q 392 641 379 602 q 413 709 404 680 q 432 772 421 735 q 453 843 442 808 q 474 908 464 878 q 491 950 484 937 q 514 987 503 970 q 539 1018 526 1004 q 569 1041 553 1031 q 605 1058 585 1051 q 653 1071 628 1066 q 695 1076 678 1076 q 735 1074 715 1076 q 773 1065 755 1072 q 806 1046 791 1059 q 830 1010 821 1032 q 859 896 849 965 q 877 741 869 827 q 880 726 878 735 q 885 706 882 716 q 894 690 889 697 q 905 683 899 683 q 963 688 927 683 q 1043 699 998 693 q 1144 710 1089 706 q 1260 715 1199 715 q 1428 698 1353 714 q 1554 646 1502 681 q 1633 557 1606 611 q 1660 428 1660 503 m 1542 417 q 1535 473 1542 448 q 1516 518 1529 498 q 1483 553 1503 537 q 1437 581 1464 568 q 1354 603 1405 596 q 1220 610 1302 610 q 1182 608 1204 610 q 1135 601 1160 605 q 1083 593 1110 598 q 1032 583 1057 588 q 908 558 973 572 q 919 470 913 516 q 930 378 925 423 q 941 293 936 333 q 950 228 946 254 q 957 162 954 188 q 963 121 960 136 q 971 99 966 105 q 988 93 977 93 q 1024 100 996 93 q 1088 118 1051 107 q 1166 142 1125 129 q 1242 165 1207 154 q 1301 184 1277 177 q 1327 193 1325 191 q 1415 239 1376 212 q 1483 296 1455 266 q 1527 357 1511 326 q 1542 417 1542 388 "},"р":{"x_min":78,"x_max":1176.71875,"ha":919,"o":"m 1176 520 q 1162 470 1176 499 q 1150 454 1159 463 q 1132 438 1142 446 q 1115 423 1123 430 q 1102 413 1106 417 q 1044 372 1079 395 q 966 324 1009 349 q 874 272 923 299 q 778 221 826 246 q 685 174 730 196 q 602 134 639 151 q 550 107 575 122 q 502 79 526 92 q 455 56 479 65 q 405 48 432 48 q 375 51 389 48 q 349 63 360 55 q 330 84 337 71 q 323 114 323 96 q 329 132 323 124 q 346 146 336 140 q 368 158 356 153 q 392 168 381 164 q 421 178 404 172 q 455 188 438 183 q 487 198 472 193 q 515 209 503 204 q 556 238 537 221 q 591 277 575 256 q 621 321 607 298 q 648 364 636 343 q 663 396 656 379 q 677 432 671 414 q 686 465 682 449 q 689 492 689 481 q 668 566 689 539 q 617 594 648 594 q 574 582 598 594 q 524 552 549 569 q 478 515 499 534 q 444 482 457 495 q 385 409 413 448 q 333 329 358 370 q 287 247 309 288 q 247 168 265 206 q 231 97 239 136 q 219 12 223 59 q 208 -150 212 -78 q 193 -282 204 -222 q 175 -320 189 -303 q 137 -337 162 -337 q 119 -333 129 -337 q 100 -322 109 -329 q 84 -307 90 -316 q 78 -288 78 -299 q 81 -233 78 -266 q 88 -167 84 -200 q 95 -107 92 -134 q 101 -69 99 -80 q 118 81 110 0 q 130 258 125 162 q 131 312 130 278 q 133 380 132 345 q 135 443 134 414 q 138 485 137 473 q 157 582 143 550 q 202 615 172 615 q 224 609 213 615 q 242 594 234 603 q 255 573 250 585 q 260 551 260 562 q 255 500 260 527 q 244 443 250 472 q 232 387 238 415 q 227 336 227 359 q 231 316 227 316 q 324 466 279 402 q 415 574 370 531 q 473 624 444 601 q 530 663 501 647 q 590 689 559 680 q 655 699 621 698 q 705 687 679 699 q 750 651 730 675 q 784 591 771 626 q 796 512 797 556 q 786 444 797 478 q 756 378 775 411 q 713 314 737 345 q 662 258 689 284 q 776 309 718 279 q 894 375 835 340 q 1009 448 952 411 q 1117 522 1066 486 q 1142 541 1133 533 q 1163 548 1152 548 q 1175 539 1173 548 q 1176 520 1176 530 "},"Ω":{"x_min":-46.796875,"x_max":1320.5,"ha":1378,"o":"m 1317 100 q 1279 56 1310 69 q 1197 44 1248 44 q 1174 44 1186 44 q 1147 45 1162 44 q 1115 46 1133 46 q 1074 46 1097 46 q 1025 46 1049 46 q 977 45 1000 46 q 934 42 954 44 q 900 39 914 41 q 867 29 883 37 q 836 13 851 21 q 805 -2 820 4 q 774 -8 790 -8 q 735 8 752 -8 q 719 51 719 26 q 728 85 719 69 q 758 118 737 102 q 808 155 779 132 q 861 202 836 177 q 932 280 900 242 q 990 358 964 318 q 1035 441 1015 398 q 1066 536 1054 485 q 1082 617 1078 585 q 1087 676 1087 649 q 1078 754 1087 718 q 1051 815 1069 790 q 1012 857 1036 837 q 955 892 988 877 q 881 916 923 907 q 790 925 840 925 q 720 918 754 925 q 656 899 687 911 q 598 872 625 887 q 548 840 571 857 q 493 789 520 818 q 441 728 465 760 q 397 659 417 695 q 364 588 377 623 q 340 506 348 547 q 333 427 333 465 q 342 329 333 374 q 375 242 352 284 q 409 190 393 210 q 442 159 426 171 q 472 138 457 147 q 499 118 486 130 q 517 94 511 107 q 524 65 524 80 q 519 45 524 55 q 505 25 514 34 q 486 11 497 16 q 465 5 476 5 q 454 6 461 5 q 439 9 447 8 q 423 12 431 10 q 412 13 415 13 q 348 11 382 13 q 280 6 314 9 q 211 -1 245 2 q 146 -10 177 -6 q 75 -24 105 -16 q 35 -31 46 -31 q 10 -28 24 -31 q -16 -18 -4 -25 q -37 0 -29 -11 q -46 29 -46 12 q -21 77 -46 56 q 61 103 3 99 q 123 105 88 105 q 197 106 159 105 q 271 108 235 107 q 338 114 308 110 q 278 200 302 160 q 241 276 255 239 q 221 349 227 312 q 215 427 215 386 q 222 516 215 474 q 245 598 229 558 q 281 683 262 643 q 327 762 301 724 q 391 838 354 800 q 481 914 428 875 q 551 962 516 940 q 627 1000 587 984 q 715 1024 668 1015 q 819 1033 762 1033 q 916 1024 872 1033 q 996 999 959 1015 q 1065 957 1033 982 q 1125 902 1096 933 q 1186 801 1165 857 q 1206 679 1206 744 q 1196 576 1206 629 q 1152 437 1182 504 q 1080 315 1122 370 q 1041 268 1060 289 q 1005 227 1022 246 q 971 191 987 208 q 943 155 956 173 q 1026 159 986 155 q 1103 165 1066 162 q 1171 171 1139 168 q 1233 174 1204 174 q 1301 161 1283 174 q 1320 124 1320 147 q 1317 100 1320 111 "},"т":{"x_min":145.140625,"x_max":1620.953125,"ha":1413,"o":"m 1620 472 q 1618 457 1620 466 q 1612 436 1616 447 q 1603 414 1608 425 q 1592 394 1598 403 q 1562 354 1580 377 q 1521 306 1543 330 q 1473 256 1498 281 q 1423 211 1448 231 q 1378 175 1403 195 q 1323 139 1352 155 q 1265 110 1295 122 q 1209 99 1235 99 q 1166 106 1185 99 q 1130 131 1146 113 q 1102 183 1115 150 q 1081 267 1090 215 q 1074 313 1077 288 q 1068 362 1071 338 q 1062 409 1065 387 q 1056 450 1060 432 q 1048 477 1052 467 q 1038 487 1043 487 q 1013 472 1029 487 q 976 429 997 457 q 929 362 954 401 q 876 274 904 322 q 783 125 821 176 q 714 74 745 74 q 651 118 667 74 q 632 268 636 163 q 618 426 630 370 q 585 481 605 481 q 550 459 573 481 q 497 398 526 437 q 433 307 467 360 q 364 193 398 255 q 342 155 354 177 q 317 113 330 134 q 293 73 305 92 q 272 42 281 54 q 225 13 252 13 q 157 66 173 13 q 150 88 153 80 q 147 105 148 96 q 145 124 145 113 q 145 150 145 134 q 146 200 145 177 q 151 246 148 223 q 158 295 153 269 q 166 357 162 322 q 172 419 169 386 q 177 484 174 453 q 182 542 179 516 q 188 584 184 569 q 198 603 190 592 q 215 624 205 614 q 236 641 225 634 q 255 648 246 648 q 278 641 269 648 q 293 624 287 635 q 301 599 299 613 q 303 569 303 584 q 300 528 303 552 q 292 475 297 503 q 282 416 288 446 q 271 358 276 385 q 261 306 265 330 q 255 268 257 283 q 246 209 248 231 q 244 173 244 187 q 267 200 253 182 q 297 241 280 217 q 331 293 313 265 q 367 352 349 322 q 396 399 380 373 q 429 452 412 425 q 463 503 446 479 q 495 543 480 526 q 554 592 523 575 q 617 609 584 609 q 674 584 650 609 q 706 518 698 558 q 713 474 710 499 q 717 422 715 449 q 721 368 719 395 q 725 316 722 341 q 730 277 727 293 q 738 252 734 261 q 746 239 742 243 q 751 236 749 236 q 794 289 764 236 q 829 349 810 316 q 871 423 848 383 q 921 499 894 462 q 972 563 947 535 q 1020 608 998 592 q 1058 625 1043 625 q 1079 623 1068 625 q 1100 617 1090 621 q 1118 607 1110 613 q 1130 594 1126 601 q 1145 557 1140 578 q 1151 510 1149 537 q 1155 450 1153 483 q 1161 377 1157 417 q 1190 251 1170 293 q 1247 209 1210 209 q 1283 219 1262 209 q 1329 243 1305 228 q 1379 278 1354 259 q 1426 316 1404 297 q 1468 355 1448 335 q 1508 394 1488 374 q 1550 436 1528 414 q 1595 482 1571 457 q 1610 490 1604 490 q 1620 472 1620 490 "},"П":{"x_min":133.609375,"x_max":1061.421875,"ha":1080,"o":"m 198 798 q 175 803 187 800 q 154 811 164 805 q 140 827 145 817 q 134 851 134 836 q 150 901 134 882 q 191 921 166 920 q 251 924 225 923 q 301 925 278 925 q 346 927 324 926 q 392 929 368 928 q 443 930 415 929 q 505 930 470 930 q 526 931 509 930 q 568 933 543 931 q 619 935 592 934 q 673 938 647 937 q 719 941 699 940 q 749 942 740 942 q 784 946 764 942 q 826 953 805 949 q 869 961 848 958 q 907 965 891 965 q 922 963 917 965 q 931 960 927 962 q 939 957 935 959 q 952 956 944 956 q 980 959 967 956 q 1006 961 992 961 q 1045 950 1029 961 q 1061 913 1061 939 q 1055 882 1061 895 q 1039 859 1049 868 q 1018 844 1030 849 q 994 838 1006 838 q 963 825 974 836 q 946 795 951 813 q 923 701 933 755 q 905 584 913 647 q 890 453 896 522 q 879 313 883 383 q 872 173 874 242 q 870 40 870 103 l 870 15 q 864 0 870 7 q 850 -15 858 -8 q 833 -26 842 -22 q 819 -31 825 -31 q 775 -12 790 -31 q 754 33 760 6 q 747 87 748 59 q 746 132 746 115 q 749 207 746 163 q 756 302 752 251 q 767 409 761 354 q 780 517 773 464 q 793 619 786 571 q 804 706 799 668 q 813 769 809 744 q 817 798 816 793 q 810 821 819 814 q 771 830 801 828 q 720 831 746 830 q 669 831 694 831 q 622 832 644 832 q 585 832 600 832 q 529 831 561 832 q 466 827 497 830 q 409 818 435 824 q 371 800 383 811 q 361 778 366 795 q 349 732 355 760 q 339 665 344 704 q 329 580 333 627 q 319 504 326 545 q 305 418 313 462 q 290 328 298 373 q 276 242 282 284 q 272 209 275 231 q 266 162 269 187 q 261 110 263 136 q 259 65 259 84 q 260 43 259 54 q 261 22 261 32 q 259 0 261 10 q 250 -19 257 -10 q 233 -32 244 -27 q 203 -38 221 -37 q 165 -30 179 -38 q 144 -8 151 -21 q 135 19 137 4 q 133 48 133 35 q 134 74 133 57 q 137 109 135 90 q 141 145 139 128 q 145 172 143 162 q 151 205 147 185 q 160 250 155 226 q 169 299 164 274 q 177 347 173 324 q 194 453 185 400 q 212 558 204 506 q 225 661 220 611 q 231 760 231 712 q 224 787 231 778 q 198 798 218 796 "},"Ö":{"x_min":75.96875,"x_max":1072.953125,"ha":1116,"o":"m 656 893 q 562 874 606 893 q 480 824 518 855 q 407 754 441 793 q 341 674 373 714 q 288 593 314 638 q 243 498 263 548 q 211 395 223 448 q 200 288 200 341 q 217 197 200 238 q 261 127 233 156 q 324 82 288 98 q 398 65 360 65 q 507 81 454 65 q 609 123 560 96 q 701 185 658 149 q 782 262 745 221 q 848 348 819 303 q 897 437 876 393 q 914 486 906 458 q 927 544 922 514 q 935 606 932 575 q 939 665 938 637 q 938 714 940 693 q 932 748 936 736 q 904 795 925 769 q 848 842 883 820 q 766 878 813 864 q 656 893 718 893 m 1072 628 q 1059 531 1072 584 q 1021 422 1046 478 q 959 310 996 366 q 876 206 923 255 q 740 80 803 129 q 618 2 678 30 q 493 -37 557 -26 q 353 -48 430 -48 q 279 -34 314 -48 q 212 5 243 -19 q 156 63 181 29 q 113 132 131 96 q 85 208 95 169 q 75 282 75 246 q 94 425 75 347 q 149 580 113 502 q 236 731 185 658 q 349 860 286 804 q 487 950 413 916 q 644 984 561 984 q 680 983 659 984 q 728 981 702 983 q 782 975 754 979 q 838 964 811 971 q 891 947 866 957 q 936 921 916 936 q 1011 852 984 885 q 1052 785 1038 819 q 1069 712 1066 750 q 1072 628 1072 674 m 886 1223 q 819 1155 886 1155 q 780 1171 796 1155 q 764 1210 764 1188 q 779 1248 764 1239 q 834 1268 794 1257 q 850 1272 846 1272 q 877 1258 868 1272 q 886 1223 886 1243 m 633 1162 q 572 1134 633 1134 q 531 1144 558 1134 q 504 1167 504 1152 q 506 1198 504 1184 q 512 1222 508 1211 q 525 1238 516 1233 q 547 1244 533 1244 q 610 1222 586 1244 q 633 1162 633 1201 "},"z":{"x_min":104.453125,"x_max":832.375,"ha":838,"o":"m 806 137 q 826 126 822 137 q 832 101 830 115 q 815 63 834 86 q 767 20 796 41 q 700 -15 737 0 q 630 -30 663 -30 q 601 -26 621 -30 q 553 -17 580 -23 q 495 -6 526 -12 q 436 5 465 0 q 383 13 407 10 q 347 17 360 17 q 292 11 314 17 q 252 -5 270 4 q 224 -23 236 -14 q 199 -41 211 -33 q 174 -53 187 -48 q 145 -59 161 -59 q 129 -53 136 -59 q 117 -39 122 -48 q 109 -20 112 -31 q 104 0 105 -10 q 179 82 141 44 q 255 156 217 120 q 331 231 293 193 q 406 314 368 269 q 487 415 452 367 q 548 507 523 462 q 519 513 534 514 q 482 510 503 512 q 450 507 463 507 q 424 505 437 506 q 398 503 412 505 q 362 499 383 502 q 321 494 339 496 q 290 493 303 493 q 141 571 141 493 q 157 606 141 592 q 194 620 172 620 q 208 618 200 620 q 224 614 216 617 q 240 609 233 612 q 252 605 248 607 q 326 596 287 596 q 400 600 361 596 q 480 610 440 604 q 562 619 521 615 q 642 623 604 623 q 666 621 653 623 q 689 613 678 619 q 708 599 700 608 q 715 577 715 590 l 715 575 q 677 509 695 537 q 639 453 659 480 q 596 399 619 426 q 545 338 573 372 q 493 278 523 310 q 434 215 463 246 q 381 154 404 183 q 349 104 358 125 q 360 102 349 103 q 382 101 370 101 q 406 101 394 101 q 421 101 417 101 q 467 98 441 101 q 526 90 494 94 q 595 82 558 86 q 673 79 632 79 q 716 88 695 79 q 754 108 737 97 q 785 128 771 119 q 806 137 798 137 "},"™":{"x_min":87.484375,"x_max":1408.671875,"ha":1438,"o":"m 1408 580 q 1393 550 1408 560 q 1357 539 1378 539 q 1262 621 1292 539 q 1228 819 1233 705 q 1216 838 1228 826 q 1191 822 1201 830 q 1174 807 1180 814 q 1144 766 1161 794 q 1131 744 1136 752 q 1123 731 1126 735 q 1114 717 1122 730 q 1093 679 1107 704 q 1043 602 1066 630 q 996 575 1020 575 q 965 587 980 575 q 935 621 952 599 q 914 649 919 644 q 858 707 885 678 q 805 766 831 735 q 793 758 795 762 q 788 740 791 754 q 783 709 787 729 q 771 659 778 689 q 760 611 765 630 q 754 580 756 591 q 694 498 739 498 q 657 513 678 498 q 636 541 636 528 q 725 804 636 582 q 743 854 743 849 q 733 875 743 866 q 711 883 724 883 q 669 881 699 883 q 590 876 638 879 q 455 859 462 864 q 408 758 435 846 q 383 625 383 670 q 384 611 383 619 q 388 596 386 604 q 393 580 391 588 q 394 567 394 573 q 389 545 394 554 q 382 533 387 540 q 368 516 377 525 q 341 498 350 498 q 302 529 313 498 q 291 597 291 560 q 309 740 291 686 q 324 777 312 749 q 334 801 330 791 q 341 819 338 811 q 344 834 343 827 q 345 849 345 841 q 304 864 345 864 q 219 842 274 864 q 149 820 164 820 q 87 858 87 820 q 116 903 87 880 q 170 931 145 926 q 211 937 187 935 q 263 943 236 940 q 319 948 290 946 q 375 955 347 951 q 395 965 385 956 q 427 975 406 975 q 453 967 435 975 q 478 959 471 959 q 496 961 483 959 q 530 966 510 963 q 553 969 539 968 q 586 971 567 971 q 619 973 605 972 q 642 976 633 975 q 676 986 650 978 q 718 995 703 995 q 756 988 725 995 q 785 980 771 984 q 810 971 798 975 q 837 954 834 962 q 837 937 837 942 q 836 926 836 932 q 861 865 836 910 q 883 826 874 842 q 900 801 893 811 q 924 776 909 790 q 959 744 939 761 q 1012 708 1000 708 q 1085 800 1026 708 q 1142 884 1115 847 q 1192 952 1168 921 q 1283 1012 1240 1012 q 1309 1003 1297 1012 q 1321 983 1321 994 q 1319 964 1321 977 q 1317 942 1318 952 q 1311 844 1311 883 q 1313 798 1311 822 q 1320 748 1315 775 q 1332 699 1325 722 q 1347 659 1338 677 q 1363 646 1351 653 q 1382 634 1377 639 q 1399 607 1389 626 q 1408 580 1408 588 "},"Θ":{"x_min":81.390625,"x_max":1144.84375,"ha":1189,"o":"m 1114 524 q 1035 372 1086 447 q 920 228 985 296 q 779 105 855 161 q 626 10 704 48 q 524 -31 577 -14 q 415 -49 472 -49 q 302 -34 354 -49 q 209 11 250 -18 q 140 86 168 41 q 96 191 111 131 q 81 320 81 255 q 90 420 81 370 q 116 522 99 470 q 195 688 145 607 q 319 841 245 769 q 397 906 355 876 q 479 952 438 937 q 500 960 487 956 q 527 967 513 964 q 555 972 541 970 q 577 973 568 973 q 614 971 596 973 q 646 968 632 968 q 680 976 661 968 q 718 996 699 985 q 742 1007 729 1001 q 771 1017 755 1012 q 805 1024 786 1021 q 846 1026 823 1026 q 938 1011 896 1026 q 1013 970 980 996 q 1071 911 1046 944 q 1112 840 1096 877 q 1136 764 1128 803 q 1144 691 1144 726 q 1137 615 1144 660 q 1114 524 1129 570 m 911 894 q 861 909 885 900 q 811 918 837 918 q 774 912 794 918 q 741 895 755 906 q 746 881 744 890 q 748 863 748 872 q 745 844 748 853 q 737 828 743 835 q 720 815 731 820 q 694 811 710 811 q 672 818 680 811 q 657 834 664 825 q 639 850 649 843 q 613 857 630 857 q 524 832 577 857 q 415 757 471 808 q 351 692 379 725 q 303 628 324 659 q 266 564 282 596 q 238 503 250 533 q 212 418 222 465 q 202 320 202 371 q 205 264 202 292 q 217 208 208 236 q 285 101 236 139 q 408 63 335 63 q 559 96 486 63 q 694 181 632 128 q 737 213 714 199 q 782 241 760 227 q 833 286 807 256 q 885 352 859 316 q 931 423 910 387 q 967 485 953 459 q 988 533 977 505 q 1009 593 999 562 q 1024 654 1018 623 q 1030 709 1030 685 q 1022 766 1030 735 q 999 823 1014 796 q 961 869 983 849 q 911 894 939 889 m 806 465 q 782 467 796 465 q 754 470 769 470 q 719 468 745 470 q 661 465 693 467 q 596 460 630 463 q 539 453 562 457 q 489 441 511 447 q 446 434 466 434 q 427 440 440 434 q 401 455 414 445 q 378 477 387 464 q 368 503 368 489 q 382 531 368 518 q 421 550 396 543 q 493 566 459 562 q 569 571 526 571 l 581 571 q 623 572 601 571 q 665 575 645 573 q 701 577 685 576 q 722 579 716 579 q 765 570 742 579 q 806 548 787 561 q 836 521 824 535 q 849 495 849 506 q 843 482 849 488 q 830 473 837 476 q 816 467 823 469 q 806 465 809 465 "},"Ř":{"x_min":139.03125,"x_max":1237.75,"ha":1217,"o":"m 1237 23 q 1209 -17 1237 -3 q 1152 -31 1181 -31 q 1078 -15 1115 -31 q 995 30 1040 1 q 937 71 971 46 q 855 133 902 96 q 811 168 844 142 q 722 237 777 193 q 598 328 613 323 q 527 336 576 336 q 494 335 517 336 q 436 331 472 334 q 411 393 411 348 q 437 438 411 431 q 448 440 440 439 q 466 442 456 441 q 488 444 476 443 q 512 446 500 445 q 673 497 603 461 q 722 524 698 510 q 772 555 747 539 q 860 629 822 588 q 900 708 900 669 q 883 762 900 736 q 839 809 866 788 q 780 846 812 830 q 720 869 748 861 q 617 883 670 883 q 580 882 602 883 q 532 878 559 881 q 482 872 505 875 q 439 866 459 870 q 397 859 419 863 q 348 849 374 855 q 375 771 364 824 q 387 683 387 717 q 386 644 387 663 q 383 607 385 625 q 380 571 382 590 q 374 534 377 553 q 358 438 368 496 q 333 281 340 338 q 328 225 330 252 q 326 172 326 198 q 334 89 326 126 q 365 16 342 53 q 338 -7 356 2 q 304 -18 320 -18 q 238 0 259 -18 q 211 48 216 19 q 206 130 206 75 q 210 203 206 165 q 220 272 215 241 q 231 339 225 304 q 238 377 235 354 q 246 430 242 400 q 262 544 256 489 q 267 642 267 599 q 265 728 267 684 q 257 820 262 772 q 173 798 182 798 q 145 811 152 798 q 139 847 139 824 q 187 896 139 872 q 235 917 211 908 q 283 934 259 927 q 428 965 338 952 q 579 979 518 979 q 779 954 682 979 q 942 870 874 931 q 1009 706 1009 809 q 961 580 1009 641 q 846 475 912 520 q 702 389 779 430 q 824 304 747 359 q 897 253 863 277 q 960 208 931 229 q 1026 163 990 188 q 1105 109 1062 139 q 1181 59 1148 80 q 1237 23 1214 37 m 865 1361 q 857 1340 865 1351 q 840 1320 849 1329 q 826 1305 837 1315 q 803 1282 815 1294 q 779 1260 790 1271 q 765 1245 768 1249 q 708 1182 732 1210 q 669 1130 685 1153 q 651 1120 666 1125 q 623 1115 637 1115 q 605 1122 613 1115 q 589 1140 597 1129 q 575 1163 582 1150 q 561 1188 568 1176 q 534 1229 552 1204 q 498 1281 517 1254 q 460 1331 478 1307 q 429 1368 441 1355 q 418 1393 418 1378 q 430 1419 418 1408 q 460 1430 443 1430 q 494 1421 484 1430 q 518 1394 504 1414 q 550 1349 533 1374 q 576 1309 565 1327 q 599 1274 588 1291 q 620 1242 610 1258 q 642 1210 630 1226 q 683 1263 660 1231 q 744 1336 706 1296 q 779 1370 764 1358 q 804 1388 793 1382 q 822 1395 815 1394 q 835 1397 829 1397 q 845 1393 840 1397 q 855 1384 850 1389 q 862 1372 860 1378 q 865 1361 865 1366 "},"Ň":{"x_min":117.859375,"x_max":1098.15625,"ha":1163,"o":"m 147 200 q 167 281 155 232 q 190 386 178 329 q 214 505 202 443 q 236 626 226 567 q 254 735 246 684 q 264 822 261 786 q 264 852 265 836 q 265 883 263 868 q 274 912 267 898 q 301 935 282 926 q 343 946 324 947 q 384 932 362 944 q 394 917 389 929 q 403 889 398 905 q 411 854 407 872 q 418 824 415 836 q 447 746 426 792 q 498 643 467 699 q 567 524 529 587 q 648 399 605 461 q 734 276 690 336 q 822 166 779 217 q 854 300 841 236 q 879 425 868 364 q 900 547 890 486 q 921 673 910 608 q 932 747 926 706 q 944 830 938 788 q 953 911 949 872 q 957 978 956 950 q 957 1001 957 990 q 958 1023 957 1013 q 963 1044 959 1034 q 975 1061 967 1053 q 1014 1085 996 1081 q 1051 1089 1032 1089 q 1069 1078 1061 1089 q 1083 1052 1077 1067 q 1093 1021 1089 1037 q 1098 996 1097 1005 q 1095 968 1098 987 q 1086 926 1091 948 q 1076 882 1081 904 q 1067 848 1070 860 q 1035 712 1051 786 q 1005 562 1020 638 q 978 413 990 486 q 955 282 965 341 q 941 186 946 224 q 936 140 935 147 q 937 117 937 130 q 937 91 937 104 q 937 68 937 79 q 938 50 937 56 q 935 22 940 34 q 924 2 931 10 q 908 -10 916 -5 q 891 -18 899 -15 q 871 -23 883 -21 q 848 -25 859 -25 q 827 -23 837 -25 q 813 -16 817 -21 q 770 30 787 8 q 747 75 752 53 q 740 91 746 82 q 728 111 735 101 q 716 129 722 121 q 706 143 710 138 q 619 258 661 200 q 533 382 576 316 q 446 523 490 448 q 354 688 402 598 q 320 543 335 620 q 293 393 305 467 q 271 253 281 319 q 255 140 262 187 q 253 106 253 126 q 253 66 253 86 q 252 28 253 46 q 246 0 250 10 q 236 -17 243 -7 q 220 -37 229 -27 q 200 -53 210 -46 q 179 -59 189 -59 q 148 -53 160 -59 q 131 -35 137 -47 q 122 -6 125 -23 q 118 34 120 11 q 119 62 117 43 q 126 105 122 82 q 136 153 130 128 q 147 200 141 179 m 918 1315 q 910 1294 918 1305 q 893 1274 902 1283 q 879 1259 890 1269 q 856 1236 868 1248 q 832 1214 843 1225 q 818 1199 821 1203 q 761 1136 785 1164 q 722 1084 738 1107 q 704 1074 719 1079 q 676 1069 690 1069 q 658 1076 666 1069 q 642 1094 650 1083 q 628 1117 635 1104 q 614 1142 621 1130 q 587 1183 605 1158 q 551 1235 570 1208 q 513 1285 531 1261 q 482 1322 494 1309 q 471 1347 471 1332 q 483 1373 471 1362 q 513 1384 496 1384 q 547 1375 537 1384 q 571 1348 557 1368 q 603 1303 586 1328 q 629 1263 618 1281 q 652 1228 641 1245 q 673 1196 663 1212 q 695 1164 683 1180 q 736 1217 713 1185 q 797 1290 759 1250 q 832 1324 817 1312 q 857 1342 846 1336 q 875 1349 868 1348 q 888 1351 882 1351 q 898 1347 893 1351 q 908 1338 903 1343 q 915 1326 913 1332 q 918 1315 918 1320 "},"É":{"x_min":109.875,"x_max":1065.484375,"ha":1042,"o":"m 1065 964 q 1062 949 1065 958 q 1054 931 1059 940 q 1044 914 1050 922 q 1032 904 1039 906 q 998 890 1013 895 q 962 882 983 886 q 836 861 897 870 q 720 848 775 853 q 620 841 666 843 q 543 838 575 838 q 512 838 525 838 q 486 838 499 838 q 463 837 474 838 q 438 837 451 837 q 386 838 408 837 q 348 840 364 838 q 334 781 338 816 q 328 710 330 747 q 325 638 326 673 q 320 576 324 602 q 344 561 334 567 q 363 554 354 556 q 384 551 373 552 q 411 551 395 551 q 448 551 427 551 q 490 552 469 551 q 530 555 510 553 q 565 560 550 556 q 612 568 592 567 q 652 569 632 569 q 691 571 671 569 q 735 583 710 573 q 767 596 752 590 q 794 606 781 602 q 818 612 807 610 q 844 615 830 615 q 862 607 855 615 q 874 587 870 599 q 879 561 878 575 q 881 533 881 546 q 870 507 881 518 q 845 491 859 497 q 815 480 830 484 q 792 474 800 476 q 751 468 776 470 q 697 464 725 466 q 643 462 670 463 q 600 459 617 461 q 503 451 554 453 q 400 448 452 448 q 355 445 373 448 q 313 435 336 442 q 303 417 308 434 q 291 375 297 400 q 279 320 285 350 q 266 263 272 290 q 252 188 257 222 q 246 140 248 154 q 257 131 250 136 q 270 126 263 126 q 313 127 288 126 q 364 128 337 127 q 415 129 390 128 q 459 132 440 130 q 552 140 503 136 q 647 150 601 145 q 734 162 693 155 q 805 177 775 168 q 814 179 805 177 q 840 186 824 182 q 874 196 855 191 q 908 205 892 201 q 934 212 923 209 q 944 215 944 215 q 963 210 954 215 q 980 195 973 204 q 992 174 988 186 q 996 147 996 162 q 991 132 996 142 q 976 112 986 122 q 954 93 967 102 q 927 82 942 84 q 863 70 893 75 q 801 61 832 65 q 734 53 769 57 q 655 46 699 50 q 551 34 603 40 q 452 23 498 29 q 371 11 406 16 q 318 3 335 6 q 284 -5 303 0 q 246 -14 265 -10 q 211 -23 227 -19 q 185 -27 195 -27 q 152 -22 166 -27 q 128 -4 138 -16 q 114 30 119 8 q 109 85 109 52 q 118 150 109 114 q 137 237 126 185 q 154 321 145 279 q 172 404 164 362 q 186 487 181 446 q 193 572 192 529 q 197 634 193 602 q 205 697 201 665 q 211 760 208 729 q 215 823 215 792 q 213 838 215 828 q 212 852 212 847 q 233 916 212 881 q 251 935 238 925 q 279 952 263 944 q 309 965 294 960 q 335 969 324 969 q 358 967 341 969 q 393 960 375 964 q 428 954 411 956 q 451 951 444 951 q 482 951 463 951 q 524 950 501 950 q 572 950 547 950 q 619 951 597 950 q 717 957 671 954 q 815 969 764 961 q 871 982 845 974 q 921 998 897 990 q 968 1010 944 1005 q 1015 1015 991 1015 q 1033 1011 1024 1015 q 1049 1000 1042 1007 q 1061 983 1056 992 q 1065 964 1065 973 m 860 1309 q 849 1288 860 1302 q 825 1270 844 1283 q 780 1242 805 1258 q 729 1210 756 1226 q 683 1180 702 1193 q 623 1138 653 1159 q 563 1098 594 1117 q 557 1094 562 1097 q 546 1087 552 1091 q 535 1080 540 1083 q 529 1077 529 1077 q 512 1082 520 1077 q 498 1092 504 1086 q 489 1107 493 1099 q 486 1123 486 1115 q 572 1213 486 1152 q 724 1311 657 1273 q 760 1332 747 1323 q 783 1348 773 1340 q 803 1359 792 1355 q 822 1363 813 1363 q 831 1359 825 1363 q 844 1346 838 1354 q 855 1329 851 1338 q 860 1309 860 1319 "},"и":{"x_min":107.15625,"x_max":1272.34375,"ha":1058,"o":"m 1272 476 q 1265 450 1272 468 q 1244 409 1258 431 q 1194 334 1223 375 q 1128 252 1164 293 q 1052 173 1093 211 q 969 105 1012 134 q 883 59 927 76 q 797 41 839 41 q 720 53 754 41 q 663 95 687 66 q 626 173 639 125 q 611 293 613 221 q 561 244 585 269 q 512 194 537 219 q 462 144 487 168 q 411 98 437 119 q 307 29 359 55 q 211 2 256 2 q 187 11 204 2 q 152 36 170 19 q 121 78 134 52 q 107 137 107 103 q 110 218 107 180 q 122 292 114 256 q 141 365 130 328 q 166 441 152 401 q 177 470 170 451 q 190 511 183 489 q 202 552 196 532 q 209 585 208 573 q 218 607 210 595 q 236 629 225 619 q 256 647 246 640 q 274 654 267 654 q 293 647 282 654 q 314 631 304 640 q 329 611 323 621 q 336 594 336 601 q 331 575 336 589 q 320 544 327 562 q 303 506 312 526 q 283 467 293 486 q 255 402 267 440 q 235 326 243 365 q 222 250 226 287 q 217 187 217 214 q 221 170 217 181 q 229 149 224 160 q 241 132 234 139 q 253 125 247 125 q 297 140 270 125 q 355 177 324 154 q 419 229 386 200 q 482 286 452 258 q 536 340 512 315 q 575 383 560 366 q 637 463 609 423 q 689 545 666 503 q 725 605 710 583 q 756 626 740 626 q 781 620 772 626 q 795 604 790 613 q 800 585 799 595 q 801 567 801 575 q 798 556 801 564 q 791 537 795 548 q 781 512 786 525 q 770 486 775 498 q 761 465 765 474 q 756 454 758 457 q 741 410 748 432 q 729 365 734 387 q 721 322 724 343 q 718 284 718 301 q 723 226 718 252 q 739 180 728 199 q 768 149 750 160 q 812 139 786 139 q 874 153 841 139 q 943 192 908 168 q 1013 249 978 217 q 1081 316 1048 281 q 1144 385 1115 350 q 1199 450 1174 420 q 1214 467 1205 459 q 1229 483 1222 476 q 1241 495 1236 491 q 1249 499 1247 499 q 1263 493 1254 499 q 1272 476 1272 487 "},"³":{"x_min":34.59375,"x_max":526.296875,"ha":539,"o":"m 526 683 q 490 596 526 648 q 415 516 463 556 q 326 458 370 476 q 71 388 162 388 q 57 393 64 388 q 45 404 50 397 q 37 419 40 411 q 34 434 34 427 q 52 493 34 479 q 116 507 71 507 q 128 504 121 507 q 139 502 135 502 q 164 504 153 502 q 188 509 176 505 q 213 515 200 512 q 242 523 226 519 q 273 533 255 526 q 315 553 291 540 q 398 609 364 579 q 434 663 434 640 q 388 687 434 687 q 346 683 377 687 q 266 672 316 679 q 236 663 255 670 q 206 657 218 657 q 171 669 185 657 q 158 704 158 681 q 162 720 158 710 q 174 738 167 729 q 190 753 181 747 q 206 759 199 759 q 217 757 211 759 q 233 755 222 755 q 286 779 244 755 q 361 837 328 805 q 394 893 394 870 q 381 904 394 902 q 347 906 373 906 q 292 896 318 906 q 238 869 267 885 q 208 852 221 859 q 186 841 196 845 q 145 832 168 832 q 118 850 130 832 q 105 883 105 868 q 148 927 105 909 q 174 936 159 932 q 205 943 189 940 q 235 950 221 947 q 259 958 250 954 q 302 974 283 967 q 334 984 320 980 q 398 991 362 991 q 461 973 436 991 q 486 918 486 954 q 423 807 486 864 q 364 752 364 761 q 369 750 364 750 q 396 760 377 750 q 425 772 416 772 q 458 765 440 772 q 491 745 476 757 q 516 717 506 733 q 526 683 526 701 "},"[":{"x_min":125.46875,"x_max":567,"ha":564,"o":"m 567 984 q 540 949 567 966 q 462 933 514 933 q 422 933 441 933 q 386 933 403 933 q 349 934 369 934 q 307 934 330 934 q 286 924 293 934 q 279 906 279 914 q 280 900 279 905 q 282 885 281 895 q 286 857 286 866 q 278 615 282 690 q 269 486 275 577 q 254 251 263 396 q 240 21 244 106 q 235 -93 235 -64 q 236 -113 235 -97 q 238 -157 236 -128 q 243 -215 240 -213 q 290 -227 256 -227 q 303 -227 298 -227 q 317 -227 309 -227 q 382 -216 339 -227 q 427 -206 425 -206 q 483 -259 483 -206 q 465 -307 483 -293 q 410 -328 446 -322 q 343 -336 392 -331 q 275 -346 294 -341 q 225 -360 251 -352 q 177 -368 198 -368 q 140 -349 155 -368 q 125 -309 125 -330 q 126 -285 125 -299 q 130 -250 128 -270 q 134 -217 133 -231 q 136 -193 136 -203 q 135 -170 136 -184 q 133 -137 134 -156 q 131 -105 132 -118 q 130 -82 130 -91 q 131 -52 130 -70 q 133 -9 132 -33 q 138 62 134 14 q 147 180 141 109 q 155 296 152 251 q 159 358 158 340 q 165 447 163 417 q 168 485 166 462 q 172 541 170 508 q 175 598 174 573 q 177 642 177 623 q 179 722 179 679 q 173 815 179 757 q 153 916 168 874 q 139 975 139 959 q 164 1031 139 1014 q 257 1048 189 1048 q 276 1048 264 1048 q 304 1049 288 1048 l 367 1051 q 395 1051 383 1051 q 415 1051 407 1051 q 433 1052 424 1052 q 453 1052 442 1052 q 567 984 567 1052 "},"ζ":{"x_min":70.53125,"x_max":815.21875,"ha":678,"o":"m 776 899 q 759 895 769 897 q 740 891 750 893 q 588 808 660 855 q 455 705 516 760 q 345 591 394 650 q 261 474 296 532 q 208 360 227 415 q 190 256 190 304 q 209 191 190 217 q 260 149 229 166 q 333 122 292 132 q 415 102 373 111 q 498 83 457 93 q 570 56 539 73 q 621 15 602 40 q 640 -48 640 -9 q 622 -144 640 -96 q 576 -233 604 -191 q 517 -308 549 -275 q 457 -359 485 -341 q 435 -369 448 -366 q 411 -372 423 -372 q 384 -366 396 -372 q 373 -349 373 -361 q 391 -318 373 -336 q 494 -197 457 -255 q 532 -75 532 -138 q 512 -37 532 -50 q 460 -15 492 -23 q 386 0 427 -6 q 301 14 344 5 q 216 39 258 24 q 142 81 174 54 q 90 148 110 107 q 70 249 70 189 q 106 414 70 331 q 203 577 141 497 q 348 729 265 656 q 527 865 432 803 q 446 868 485 864 q 372 883 406 872 q 307 911 337 893 q 256 956 278 929 q 242 990 242 972 q 248 1013 242 1003 q 262 1032 253 1024 q 282 1046 271 1041 q 305 1051 294 1051 q 327 1046 316 1051 q 345 1030 337 1041 q 431 963 380 986 q 545 940 482 940 q 649 954 594 940 q 762 996 703 967 q 781 1001 772 1001 q 806 987 798 1001 q 815 955 815 973 q 805 920 815 937 q 776 899 796 903 "},"∏":{"x_min":44.078125,"x_max":1475.140625,"ha":1472,"o":"m 1475 952 q 1469 931 1475 941 q 1454 913 1464 921 q 1432 901 1445 906 q 1404 896 1419 896 q 1376 899 1389 896 q 1339 905 1363 902 q 1276 912 1315 909 q 1168 914 1236 914 q 1151 910 1157 914 q 1142 890 1146 906 q 1130 814 1136 862 q 1117 707 1124 767 q 1109 653 1113 680 q 1102 602 1106 626 q 1096 558 1099 578 q 1089 523 1092 537 q 1085 491 1087 510 q 1079 450 1082 472 q 1073 405 1077 428 q 1067 359 1070 381 q 1062 323 1064 340 q 1058 289 1060 306 q 1054 253 1056 271 q 1051 213 1052 235 q 1049 175 1049 193 q 1049 141 1049 156 q 1050 96 1049 118 q 1052 57 1052 75 q 1045 25 1052 39 q 1026 2 1038 11 q 998 -12 1013 -7 q 967 -17 983 -17 q 924 1 937 -17 q 910 59 910 21 q 913 123 910 94 q 918 182 916 153 q 923 223 920 198 q 930 279 926 249 q 939 338 935 308 q 946 393 944 368 q 955 454 951 429 q 964 502 959 480 q 972 546 968 524 q 982 598 977 569 q 989 641 984 615 q 998 697 993 667 q 1008 759 1003 727 q 1017 817 1013 790 q 1023 864 1021 844 q 1026 890 1026 883 q 1009 908 1026 908 q 969 906 994 908 q 915 899 945 903 q 853 890 886 895 q 788 881 820 885 q 716 873 753 877 q 647 865 680 868 q 589 859 615 862 q 549 855 563 856 q 535 845 539 851 q 527 822 531 838 q 512 742 520 783 q 495 649 503 701 q 478 554 486 598 q 463 470 470 510 q 449 388 455 429 q 437 301 442 347 q 429 255 434 282 q 422 199 425 227 q 416 142 419 170 q 414 94 414 115 q 416 59 414 74 q 418 33 418 44 q 411 2 418 16 q 393 -23 404 -12 q 366 -41 381 -34 q 334 -47 351 -47 q 304 -40 316 -47 q 286 -21 293 -33 q 277 5 279 -9 q 274 33 274 19 q 277 69 274 48 q 283 112 279 89 q 290 162 286 136 q 298 213 295 187 q 318 340 306 274 q 341 463 330 406 q 353 528 347 499 q 363 582 358 556 q 373 633 368 608 q 383 685 378 657 q 393 731 388 709 q 401 770 397 752 q 407 801 404 788 q 409 820 409 814 q 392 837 409 837 q 362 836 383 837 q 318 834 342 835 q 270 831 295 832 q 230 830 246 830 q 188 826 208 830 q 154 817 169 822 q 128 808 139 812 q 113 803 118 803 q 64 816 84 803 q 44 857 44 829 q 55 900 44 883 q 86 926 66 916 q 131 940 105 936 q 188 944 158 944 q 290 945 244 944 q 375 948 336 946 q 450 952 415 950 q 519 956 484 954 q 578 962 545 959 q 646 969 611 965 q 717 977 682 973 q 781 984 752 982 q 837 991 802 986 q 917 1001 872 995 q 1014 1012 962 1006 q 1119 1023 1066 1018 q 1224 1031 1172 1028 q 1322 1034 1277 1034 q 1391 1029 1363 1034 q 1442 1013 1419 1024 q 1456 1003 1450 1010 q 1466 987 1462 996 q 1472 969 1470 978 q 1475 952 1475 959 "},"Έ":{"x_min":61.515625,"x_max":1188.484375,"ha":1165,"o":"m 1188 964 q 1185 949 1188 958 q 1177 931 1182 940 q 1167 914 1173 922 q 1155 904 1162 906 q 1121 890 1136 895 q 1085 882 1106 886 q 959 861 1020 870 q 843 848 898 853 q 743 841 789 843 q 666 838 698 838 q 635 838 648 838 q 609 838 622 838 q 586 837 597 838 q 561 837 574 837 q 509 838 531 837 q 471 840 487 838 q 457 781 461 816 q 451 710 453 747 q 448 638 449 673 q 443 576 447 602 q 467 561 457 567 q 486 554 477 556 q 507 551 496 552 q 534 551 518 551 q 571 551 550 551 q 613 552 592 551 q 653 555 633 553 q 688 560 673 556 q 735 568 715 567 q 775 569 755 569 q 814 571 794 569 q 858 583 833 573 q 890 596 875 590 q 917 606 904 602 q 941 612 930 610 q 967 615 953 615 q 985 607 978 615 q 997 587 993 599 q 1002 561 1001 575 q 1004 533 1004 546 q 993 507 1004 518 q 968 491 982 497 q 938 480 953 484 q 915 474 923 476 q 874 468 899 470 q 820 464 848 466 q 766 462 793 463 q 723 459 740 461 q 626 451 677 453 q 523 448 575 448 q 478 445 496 448 q 436 435 459 442 q 426 417 431 434 q 414 375 420 400 q 402 320 408 350 q 389 263 395 290 q 375 188 380 222 q 369 140 371 154 q 380 131 373 136 q 393 126 386 126 q 436 127 411 126 q 487 128 460 127 q 538 129 513 128 q 582 132 563 130 q 675 140 626 136 q 770 150 724 145 q 857 162 816 155 q 928 177 898 168 q 937 179 928 177 q 963 186 947 182 q 997 196 978 191 q 1031 205 1015 201 q 1057 212 1046 209 q 1067 215 1067 215 q 1086 210 1077 215 q 1103 195 1096 204 q 1115 174 1111 186 q 1119 147 1119 162 q 1114 132 1119 142 q 1099 112 1109 122 q 1077 93 1090 102 q 1050 82 1065 84 q 986 70 1016 75 q 924 61 955 65 q 857 53 892 57 q 778 46 822 50 q 674 34 726 40 q 575 23 621 29 q 494 11 529 16 q 441 3 458 6 q 407 -5 426 0 q 369 -14 388 -10 q 334 -23 350 -19 q 308 -27 318 -27 q 275 -22 289 -27 q 251 -4 261 -16 q 237 30 242 8 q 232 85 232 52 q 241 150 232 114 q 260 237 249 185 q 277 321 268 279 q 295 404 287 362 q 309 487 304 446 q 316 572 315 529 q 320 634 316 602 q 328 697 324 665 q 334 760 331 729 q 338 823 338 792 q 336 838 338 828 q 335 852 335 847 q 356 916 335 881 q 374 935 361 925 q 402 952 386 944 q 432 965 417 960 q 458 969 447 969 q 481 967 464 969 q 516 960 498 964 q 551 954 534 956 q 574 951 567 951 q 605 951 586 951 q 647 950 624 950 q 695 950 670 950 q 742 951 720 950 q 840 957 794 954 q 938 969 887 961 q 994 982 968 974 q 1044 998 1020 990 q 1091 1010 1067 1005 q 1138 1015 1114 1015 q 1156 1011 1147 1015 q 1172 1000 1165 1007 q 1184 983 1179 992 q 1188 964 1188 973 m 199 1092 q 221 1088 212 1092 q 237 1079 231 1084 q 246 1066 243 1073 q 249 1054 249 1059 q 246 1035 249 1046 q 239 1016 243 1023 q 213 964 228 993 q 184 901 199 934 q 155 834 169 868 q 132 770 142 801 q 127 756 130 765 q 121 739 125 747 q 110 724 117 730 q 95 718 104 718 q 81 722 87 718 q 70 732 75 726 q 63 746 66 738 q 61 759 61 753 q 67 804 61 773 q 85 875 74 835 q 111 960 96 915 q 144 1046 126 1005 q 152 1063 148 1054 q 163 1078 157 1071 q 178 1088 169 1084 q 199 1092 186 1092 "},"Ρ":{"x_min":144.46875,"x_max":1068.203125,"ha":1084,"o":"m 1068 840 q 1048 768 1068 817 q 1030 727 1039 744 q 1012 697 1021 709 q 855 554 964 628 q 636 425 745 480 q 492 358 564 387 q 348 305 421 328 q 344 279 344 300 l 344 257 q 346 204 344 238 q 352 122 348 170 q 357 35 355 73 q 359 -30 359 -2 q 343 -71 359 -56 q 302 -86 328 -86 q 227 237 227 -86 l 227 257 q 232 339 227 295 q 245 445 237 383 q 251 486 248 465 q 258 531 255 507 q 271 611 265 577 q 286 677 277 645 q 290 698 288 686 q 297 726 293 710 q 311 781 303 757 q 330 826 318 804 q 359 866 341 847 q 383 870 370 870 q 420 855 408 870 q 433 813 433 840 q 428 793 433 810 q 416 756 423 775 q 404 718 410 736 q 397 697 398 701 q 387 658 392 682 q 380 618 383 638 q 372 574 376 597 q 365 529 368 552 q 360 485 362 506 q 356 447 358 465 q 354 416 354 429 q 406 438 375 425 q 478 468 437 451 q 620 531 558 501 q 743 597 683 561 q 819 651 782 621 q 891 716 856 680 q 962 849 962 788 q 906 893 962 878 q 850 905 878 900 q 794 911 822 909 q 740 914 766 914 q 691 915 714 915 q 408 886 558 915 q 202 825 335 870 q 179 819 187 819 q 154 828 164 819 q 144 852 144 837 q 163 906 144 885 q 219 942 183 926 q 341 976 259 959 q 424 991 383 985 q 509 1003 466 998 q 637 1013 594 1013 q 708 1013 674 1013 q 775 1010 742 1012 q 841 1002 808 1007 q 908 989 874 997 q 1022 936 975 973 q 1068 840 1068 900 "},"ğ":{"x_min":-37.296875,"x_max":637.375,"ha":678,"o":"m 612 520 q 603 417 607 474 q 594 290 600 360 q 589 231 592 264 q 581 164 585 199 q 573 96 577 130 q 565 35 569 63 q 550 -45 559 -3 q 526 -129 540 -88 q 491 -208 512 -170 q 442 -273 470 -245 q 376 -318 413 -301 q 290 -335 338 -335 q 228 -327 259 -335 q 167 -307 197 -320 q 108 -277 137 -295 q 56 -240 80 -260 q 10 -196 30 -219 q -23 -149 -10 -173 q -37 -104 -37 -126 q -23 -83 -37 -83 q -13 -88 -18 -83 q -7 -94 -10 -90 q 0 -102 -3 -98 q 6 -108 3 -105 q 9 -112 8 -111 q 288 -233 140 -233 q 369 -210 338 -233 q 420 -151 401 -187 q 448 -70 438 -115 q 465 16 458 -26 q 472 71 469 44 q 478 127 475 98 q 483 189 480 157 q 489 260 486 222 q 419 197 461 230 q 328 134 377 163 q 230 87 280 106 q 140 69 181 69 q 107 77 122 69 q 82 100 92 85 q 64 138 71 115 q 58 187 58 160 q 71 271 58 226 q 106 360 85 316 q 153 446 127 404 q 203 521 179 488 q 262 589 227 554 q 336 654 297 625 q 419 703 376 684 q 502 722 461 722 q 569 706 538 722 q 617 658 600 690 q 622 636 621 651 q 621 603 623 621 q 617 563 620 584 q 612 520 615 541 m 501 397 q 506 446 503 417 q 513 518 509 475 q 517 562 515 540 q 516 599 520 585 q 495 624 510 619 q 444 630 479 630 q 379 579 411 609 q 317 515 347 550 q 263 443 288 480 q 219 371 238 406 q 185 294 198 333 q 173 229 173 256 q 178 210 173 218 q 189 199 182 203 q 205 192 196 194 q 224 191 215 191 q 275 201 248 191 q 330 226 303 211 q 381 258 357 241 q 423 288 406 274 q 443 305 431 293 q 467 331 455 316 q 489 364 480 347 q 501 397 499 381 m 637 1045 q 628 1020 637 1036 q 605 986 619 1004 q 576 951 591 968 q 547 926 560 935 q 474 885 514 902 q 387 869 433 869 q 328 882 356 869 q 274 917 299 896 q 229 966 249 939 q 195 1019 208 993 q 189 1033 192 1026 q 185 1047 187 1040 q 181 1060 182 1054 q 180 1068 180 1066 q 183 1083 180 1075 q 193 1099 187 1091 q 207 1111 199 1106 q 222 1116 215 1116 q 235 1110 228 1116 q 246 1093 241 1103 q 272 1044 258 1065 q 304 1001 286 1022 q 347 969 322 981 q 395 958 372 958 q 437 961 417 958 q 477 979 456 965 q 534 1024 510 1000 q 581 1079 558 1048 q 596 1093 589 1091 q 606 1095 603 1095 q 619 1091 613 1095 q 629 1078 625 1086 q 635 1062 633 1071 q 637 1045 637 1053 "},"ª":{"x_min":87.484375,"x_max":714.171875,"ha":725,"o":"m 714 754 q 693 694 714 731 q 612 611 664 646 q 508 577 560 577 q 441 615 470 577 q 396 698 412 651 q 369 655 392 693 q 283 542 332 593 q 184 493 236 493 q 111 531 135 493 q 87 619 87 569 q 119 764 87 678 q 204 916 151 848 q 316 1000 258 984 q 331 1004 323 1001 q 347 1008 339 1006 q 362 1012 356 1010 q 373 1013 369 1013 q 427 978 406 1013 q 448 984 444 984 q 482 930 482 984 q 475 871 482 911 q 469 815 469 830 q 476 733 469 758 q 497 688 483 712 q 526 666 511 666 q 663 756 604 666 q 690 779 680 779 q 705 770 697 779 q 714 754 714 762 m 385 914 q 376 932 385 929 q 348 935 367 935 q 266 875 306 935 q 230 810 246 845 q 200 736 213 775 q 174 616 174 657 q 176 608 174 613 q 181 599 178 604 q 186 591 183 594 q 193 588 189 588 q 229 598 212 588 q 261 624 246 609 q 287 658 275 640 q 309 694 299 677 q 380 876 356 766 q 385 914 385 903 "},"ї":{"x_min":46.125,"x_max":880.359375,"ha":627,"o":"m 880 507 q 867 464 881 493 q 828 396 853 434 q 771 316 804 358 q 704 231 739 273 q 664 187 685 210 q 619 140 642 164 q 572 94 596 117 q 525 53 548 72 q 482 23 505 37 q 435 -1 459 9 q 388 -17 411 -11 q 347 -23 365 -23 q 256 1 292 -23 q 199 69 220 25 q 169 173 177 113 q 160 305 160 233 q 161 328 160 314 q 162 358 161 341 q 164 393 163 375 q 168 430 166 411 q 176 493 172 466 q 185 535 180 519 q 225 591 194 567 q 290 616 256 616 q 308 581 308 616 q 304 529 308 558 q 295 472 299 500 q 282 376 286 418 q 278 302 278 333 q 278 267 278 288 q 281 223 278 246 q 288 177 283 200 q 302 135 293 154 q 324 105 311 117 q 357 94 337 94 q 417 107 382 94 q 482 143 451 120 q 555 203 519 170 q 625 270 592 236 q 689 338 659 305 q 743 400 718 371 q 771 434 756 416 q 799 469 786 452 q 825 502 813 486 q 845 529 836 517 q 848 533 846 530 q 851 539 849 536 q 855 544 853 542 q 859 545 857 546 q 874 531 869 545 q 880 507 880 516 m 427 893 q 360 825 427 825 q 322 841 338 825 q 305 880 305 857 q 320 918 305 909 q 376 938 335 927 q 392 942 387 942 q 418 927 409 942 q 427 893 427 913 m 174 832 q 113 804 174 804 q 72 813 99 804 q 46 837 46 822 q 47 867 46 853 q 53 892 49 881 q 66 908 58 902 q 88 914 75 914 q 151 892 128 914 q 174 832 174 870 "},"T":{"x_min":16.5625,"x_max":1074.984375,"ha":974,"o":"m 1074 906 q 1070 875 1074 886 q 1059 861 1066 865 q 1042 856 1051 857 q 1024 856 1033 856 q 983 856 1001 856 q 945 857 964 857 q 906 858 927 858 q 858 859 885 859 q 790 854 830 859 q 713 841 751 849 q 643 825 674 834 q 600 810 612 817 q 590 800 595 807 q 582 786 585 794 q 576 770 579 778 q 574 756 574 762 q 559 613 567 684 q 543 473 550 543 q 531 336 536 404 q 526 200 526 267 q 529 166 526 189 q 536 120 532 143 q 542 78 539 96 q 545 57 545 60 q 541 30 545 44 q 530 5 537 16 q 513 -13 523 -6 q 490 -20 502 -20 q 472 -15 482 -20 q 454 -2 463 -10 q 437 16 444 5 q 425 40 430 27 q 417 79 420 57 q 411 125 413 101 q 408 172 409 149 q 408 215 408 196 q 408 248 408 234 q 408 265 408 261 q 413 330 408 286 q 423 428 417 374 q 436 541 429 483 q 449 647 443 599 q 459 727 455 695 q 463 758 463 758 q 459 774 463 769 q 448 780 454 779 q 437 781 442 781 q 431 780 432 780 q 364 775 405 780 q 278 765 324 771 q 184 754 231 759 q 95 750 136 750 q 76 750 86 750 q 57 752 67 750 q 37 759 47 754 q 17 775 27 765 q 16 792 16 781 q 18 814 16 803 q 28 835 21 826 q 49 847 35 844 q 119 858 80 854 q 198 865 158 862 q 277 870 238 868 q 345 877 315 873 q 397 884 366 880 q 461 893 428 888 q 525 902 494 897 q 575 911 556 907 q 662 930 616 919 q 754 951 708 941 q 847 967 801 961 q 935 973 893 973 q 952 973 940 973 q 979 971 964 973 q 1011 967 994 970 q 1043 960 1028 965 q 1056 951 1050 958 q 1066 936 1062 944 q 1072 920 1070 928 q 1074 906 1074 912 "},"š":{"x_min":25.09375,"x_max":817.265625,"ha":579,"o":"m 817 490 q 811 466 817 479 q 794 438 805 453 q 771 409 784 424 q 746 381 758 395 q 724 357 735 369 q 698 331 712 345 q 663 297 683 316 q 617 252 644 278 q 565 203 594 229 q 506 153 536 178 q 449 107 477 129 q 401 67 421 84 q 308 -7 352 27 q 221 -71 264 -43 q 87 -128 137 -128 q 48 -120 70 -128 q 25 -95 25 -111 q 58 -26 25 -51 q 160 25 90 -2 q 261 78 227 52 q 295 148 295 103 q 248 239 295 170 q 207 302 225 274 q 177 354 189 331 q 151 454 151 402 q 168 550 151 499 q 194 607 176 578 q 233 658 212 636 q 276 695 254 681 q 314 708 297 708 q 373 637 373 708 q 354 584 373 610 q 330 559 344 572 q 299 531 317 545 q 270 505 282 516 q 251 487 259 495 q 273 404 251 452 q 299 354 284 381 q 334 296 314 327 q 367 240 354 265 q 387 204 381 215 q 395 201 388 201 q 428 215 404 201 q 483 252 451 229 q 554 306 516 276 q 630 372 592 337 q 695 434 669 407 q 744 483 720 460 q 778 519 767 506 q 790 531 789 531 q 800 527 796 531 q 809 517 805 523 q 815 503 813 510 q 817 490 817 496 m 510 1019 q 502 998 510 1009 q 485 978 494 987 q 471 963 482 973 q 448 940 460 952 q 424 918 435 929 q 410 903 413 907 q 353 840 377 868 q 314 788 330 811 q 296 778 311 783 q 268 773 282 773 q 250 780 258 773 q 234 798 242 787 q 220 821 227 808 q 206 846 213 834 q 179 887 197 862 q 143 939 162 912 q 105 989 123 965 q 74 1026 86 1013 q 63 1051 63 1036 q 75 1077 63 1066 q 105 1088 88 1088 q 139 1079 129 1088 q 163 1052 149 1072 q 195 1007 178 1032 q 221 967 210 985 q 244 932 233 949 q 265 900 255 916 q 287 868 275 884 q 328 921 305 889 q 389 994 351 954 q 424 1028 409 1016 q 449 1046 438 1040 q 467 1053 460 1052 q 480 1055 474 1055 q 490 1051 485 1055 q 500 1042 495 1047 q 507 1030 505 1036 q 510 1019 510 1024 "},"є":{"x_min":135.640625,"x_max":691.78125,"ha":718,"o":"m 691 253 q 689 236 691 245 q 684 218 687 227 q 678 201 681 208 q 674 190 676 194 q 648 141 667 166 q 603 94 629 117 q 546 53 577 72 q 484 19 516 33 q 424 -2 453 5 q 373 -10 395 -10 q 291 1 326 -10 q 232 35 257 14 q 191 86 208 56 q 162 148 174 115 q 147 198 152 173 q 139 244 141 222 q 136 285 137 266 q 135 320 135 305 q 143 400 135 359 q 163 479 150 440 q 196 552 177 517 q 238 613 215 586 q 290 659 261 638 q 355 695 320 680 q 426 718 389 710 q 501 726 463 726 q 559 718 533 726 q 604 697 585 711 q 633 661 623 682 q 643 612 643 640 q 640 592 643 602 q 632 573 637 581 q 619 559 627 564 q 603 554 612 554 q 592 559 595 554 q 586 573 589 564 q 578 591 583 581 q 563 609 574 600 q 533 622 552 617 q 481 628 513 628 q 423 622 448 628 q 378 605 398 616 q 342 581 358 595 q 313 550 326 567 q 294 520 303 537 q 276 488 284 504 q 263 457 268 472 q 259 434 259 442 q 280 411 259 411 q 345 414 310 411 q 414 421 381 417 q 474 429 446 425 q 515 432 501 432 q 530 428 524 432 q 537 418 535 424 q 540 402 539 411 q 540 384 540 394 q 522 366 540 375 q 478 350 505 358 q 418 338 451 343 q 357 328 386 333 q 305 322 328 324 q 276 319 283 320 q 252 308 261 318 q 243 290 243 299 q 255 201 243 239 q 284 138 266 163 q 325 100 302 112 q 370 87 347 87 q 434 94 404 87 q 493 119 464 102 q 553 165 522 137 q 622 235 584 193 q 653 264 640 255 q 676 272 666 272 q 688 267 685 272 q 691 253 691 261 "}}}
